  0
SECTION
  2
HEADER
  9
$ACADVER
  1
AC1009
  9
$DWGCODEPAGE
  3
ansi_1252
  9
$INSBASE
 10
0.0
 20
0.0
 30
0.0
  9
$EXTMIN
 10
688.1417096270179
 20
2133.562619466333
 30
0.0
  9
$EXTMAX
 10
1006.746823816992
 20
2309.535275764185
 30
0.0
  9
$LIMMIN
 10
0.0
 20
0.0
  9
$LIMMAX
 10
12.0
 20
9.0
  9
$ORTHOMODE
 70
     0
  9
$REGENMODE
 70
     1
  9
$FILLMODE
 70
     1
  9
$QTEXTMODE
 70
     0
  9
$MIRRTEXT
 70
     1
  9
$DRAGMODE
 70
     2
  9
$LTSCALE
 40
1.0
  9
$OSMODE
 70
    37
  9
$ATTMODE
 70
     1
  9
$TEXTSIZE
 40
0.2
  9
$TRACEWID
 40
0.05
  9
$TEXTSTYLE
  7
STANDARD
  9
$CLAYER
  8
0
  9
$CELTYPE
  6
BYLAYER
  9
$CECOLOR
 62
   256
  9
$DIMSCALE
 40
1.0
  9
$DIMASZ
 40
0.18
  9
$DIMEXO
 40
0.0625
  9
$DIMDLI
 40
0.38
  9
$DIMRND
 40
0.0
  9
$DIMDLE
 40
0.0
  9
$DIMEXE
 40
0.18
  9
$DIMTP
 40
0.0
  9
$DIMTM
 40
0.0
  9
$DIMTXT
 40
0.18
  9
$DIMCEN
 40
0.09
  9
$DIMTSZ
 40
0.0
  9
$DIMTOL
 70
     0
  9
$DIMLIM
 70
     0
  9
$DIMTIH
 70
     1
  9
$DIMTOH
 70
     1
  9
$DIMSE1
 70
     0
  9
$DIMSE2
 70
     0
  9
$DIMTAD
 70
     0
  9
$DIMZIN
 70
     0
  9
$DIMBLK
  1

  9
$DIMASO
 70
     1
  9
$DIMSHO
 70
     1
  9
$DIMPOST
  1

  9
$DIMAPOST
  1

  9
$DIMALT
 70
     0
  9
$DIMALTD
 70
     2
  9
$DIMALTF
 40
25.4
  9
$DIMLFAC
 40
1.0
  9
$DIMTOFL
 70
     0
  9
$DIMTVP
 40
0.0
  9
$DIMTIX
 70
     0
  9
$DIMSOXD
 70
     0
  9
$DIMSAH
 70
     0
  9
$DIMBLK1
  1

  9
$DIMBLK2
  1

  9
$DIMSTYLE
  2
STANDARD
  9
$DIMCLRD
 70
     0
  9
$DIMCLRE
 70
     0
  9
$DIMCLRT
 70
     0
  9
$DIMTFAC
 40
1.0
  9
$DIMGAP
 40
0.09
  9
$LUNITS
 70
     2
  9
$LUPREC
 70
     2
  9
$SKETCHINC
 40
0.1
  9
$FILLETRAD
 40
0.5
  9
$AUNITS
 70
     0
  9
$AUPREC
 70
     0
  9
$MENU
  1
.
  9
$ELEVATION
 40
0.0
  9
$PELEVATION
 40
0.0
  9
$THICKNESS
 40
0.0
  9
$LIMCHECK
 70
     0
  9
$CHAMFERA
 40
0.0
  9
$CHAMFERB
 40
0.0
  9
$SKPOLY
 70
     0
  9
$TDCREATE
 40
2456566.612910972
  9
$TDUPDATE
 40
2456566.612990151
  9
$TDINDWG
 40
0.0000000116
  9
$TDUSRTIMER
 40
0.0000000116
  9
$USRTIMER
 70
     1
  9
$ANGBASE
 50
0.0
  9
$ANGDIR
 70
     0
  9
$PDMODE
 70
     0
  9
$PDSIZE
 40
0.0
  9
$PLINEWID
 40
0.0
  9
$COORDS
 70
     1
  9
$SPLFRAME
 70
     0
  9
$SPLINETYPE
 70
     6
  9
$SPLINESEGS
 70
     8
  9
$ATTDIA
 70
     0
  9
$ATTREQ
 70
     1
  9
$HANDLING
 70
     1
  9
$HANDSEED
  5
528
  9
$SURFTAB1
 70
     6
  9
$SURFTAB2
 70
     6
  9
$SURFTYPE
 70
     6
  9
$SURFU
 70
     6
  9
$SURFV
 70
     6
  9
$UCSNAME
  2

  9
$UCSORG
 10
0.0
 20
0.0
 30
0.0
  9
$UCSXDIR
 10
1.0
 20
0.0
 30
0.0
  9
$UCSYDIR
 10
0.0
 20
1.0
 30
0.0
  9
$PUCSNAME
  2

  9
$PUCSORG
 10
0.0
 20
0.0
 30
0.0
  9
$PUCSXDIR
 10
1.0
 20
0.0
 30
0.0
  9
$PUCSYDIR
 10
0.0
 20
1.0
 30
0.0
  9
$USERI1
 70
     0
  9
$USERI2
 70
     0
  9
$USERI3
 70
     0
  9
$USERI4
 70
     0
  9
$USERI5
 70
     0
  9
$USERR1
 40
0.0
  9
$USERR2
 40
0.0
  9
$USERR3
 40
0.0
  9
$USERR4
 40
0.0
  9
$USERR5
 40
0.0
  9
$WORLDVIEW
 70
     1
  9
$SHADEDGE
 70
     3
  9
$SHADEDIF
 70
    70
  9
$TILEMODE
 70
     1
  9
$MAXACTVP
 70
    64
  9
$PLIMCHECK
 70
     0
  9
$PEXTMIN
 10
1.000000000000000E+20
 20
1.000000000000000E+20
 30
1.000000000000000E+20
  9
$PEXTMAX
 10
-1.000000000000000E+20
 20
-1.000000000000000E+20
 30
-1.000000000000000E+20
  9
$PLIMMIN
 10
0.0
 20
0.0
  9
$PLIMMAX
 10
12.0
 20
9.0
  9
$UNITMODE
 70
     0
  9
$VISRETAIN
 70
     1
  9
$PLINEGEN
 70
     0
  9
$PSLTSCALE
 70
     1
  0
ENDSEC
  0
SECTION
  2
TABLES
  0
TABLE
  2
VPORT
 70
     1
  0
VPORT
  2
*ACTIVE
 70
     0
 10
0.0
 20
0.0
 11
1.0
 21
1.0
 12
847.4442667220048
 22
2221.548947615259
 13
0.0
 23
0.0
 14
0.5
 24
0.5
 15
0.5
 25
0.5
 16
0.0
 26
0.0
 36
1.0
 17
0.0
 27
0.0
 37
0.0
 40
179.4921094238092
 41
1.810537619269106
 42
50.0
 43
0.0
 44
0.0
 50
0.0
 51
0.0
 71
     0
 72
   100
 73
     1
 74
     3
 75
     0
 76
     0
 77
     0
 78
     0
  0
ENDTAB
  0
TABLE
  2
LTYPE
 70
     1
  0
LTYPE
  2
CONTINUOUS
 70
     0
  3
Solid line
 72
    65
 73
     0
 40
0.0
  0
ENDTAB
  0
TABLE
  2
LAYER
 70
     2
  0
LAYER
  2
0
 70
     0
 62
     7
  6
CONTINUOUS
  0
LAYER
  2
MAKE2D$VISIBLE$LINES
 70
     0
 62
     7
  6
CONTINUOUS
  0
ENDTAB
  0
TABLE
  2
STYLE
 70
     1
  0
STYLE
  2
STANDARD
 70
     0
 40
0.0
 41
1.0
 50
0.0
 71
     0
 42
0.2
  3
txt
  4

  0
ENDTAB
  0
TABLE
  2
VIEW
 70
     0
  0
ENDTAB
  0
TABLE
  2
UCS
 70
     0
  0
ENDTAB
  0
TABLE
  2
APPID
 70
     1
  0
APPID
  2
ACAD
 70
     0
  0
ENDTAB
  0
TABLE
  2
DIMSTYLE
 70
     1
  0
DIMSTYLE
  2
STANDARD
 70
     0
  3

  4

  5

  6

  7

 40
1.0
 41
0.18
 42
0.0625
 43
0.38
 44
0.18
 45
0.0
 46
0.0
 47
0.0
 48
0.0
140
0.18
141
0.09
142
0.0
143
25.4
144
1.0
145
0.0
146
1.0
147
0.09
 71
     0
 72
     0
 73
     1
 74
     1
 75
     0
 76
     0
 77
     0
 78
     0
170
     0
171
     2
172
     0
173
     0
174
     0
175
     0
176
     0
177
     0
178
     0
  0
ENDTAB
  0
ENDSEC
  0
SECTION
  2
BLOCKS
  0
BLOCK
  8
0
  2
$MODEL_SPACE
 70
     0
 10
0.0
 20
0.0
 30
0.0
  3
$MODEL_SPACE
  1

  0
ENDBLK
  5
21
  8
0
  0
BLOCK
 67
     1
  8
0
  2
$PAPER_SPACE
 70
     0
 10
0.0
 20
0.0
 30
0.0
  3
$PAPER_SPACE
  1

  0
ENDBLK
  5
1D
 67
     1
  8
0
  0
ENDSEC
  0
SECTION
  2
ENTITIES
  0
LINE
  5
6B
  8
MAKE2D$VISIBLE$LINES
 10
735.8162224722466
 20
2287.000556070546
 30
0.0
 11
735.6582777795338
 21
2295.459942779626
 31
0.0
  0
LINE
  5
6C
  8
MAKE2D$VISIBLE$LINES
 10
735.6582777795338
 20
2295.459942779626
 30
0.0
 11
742.1251455861384
 21
2295.618842336849
 31
0.0
  0
LINE
  5
6D
  8
MAKE2D$VISIBLE$LINES
 10
742.1251455861384
 20
2295.618842336849
 30
0.0
 11
745.3622496809073
 21
2295.698382296955
 31
0.0
  0
LINE
  5
6E
  8
MAKE2D$VISIBLE$LINES
 10
745.3622496809073
 20
2295.698382296955
 30
0.0
 11
930.6342235070601
 21
2300.250761514735
 31
0.0
  0
LINE
  5
6F
  8
MAKE2D$VISIBLE$LINES
 10
930.6342235070601
 20
2300.250761514735
 30
0.0
 11
934.015575310541
 21
2300.333845833212
 31
0.0
  0
LINE
  5
70
  8
MAKE2D$VISIBLE$LINES
 10
934.015575310541
 20
2300.333845833212
 30
0.0
 11
940.7861303654465
 21
2300.500207390701
 31
0.0
  0
LINE
  5
71
  8
MAKE2D$VISIBLE$LINES
 10
940.7861303654465
 20
2300.500207390701
 30
0.0
 11
944.1753396962052
 21
2300.58348477909
 31
0.0
  0
LINE
  5
72
  8
MAKE2D$VISIBLE$LINES
 10
944.1753396962052
 20
2300.58348477909
 30
0.0
 11
1006.746823816992
 21
2302.120949502192
 31
0.0
  0
LINE
  5
73
  8
MAKE2D$VISIBLE$LINES
 10
1006.746823816992
 20
2281.210268654604
 30
0.0
 11
972.0632823794202
 21
2280.440273894802
 31
0.0
  0
LINE
  5
74
  8
MAKE2D$VISIBLE$LINES
 10
972.0632823794202
 20
2280.440273894802
 30
0.0
 11
971.1557338446838
 21
2280.814708166579
 31
0.0
  0
LINE
  5
75
  8
MAKE2D$VISIBLE$LINES
 10
971.1557338446838
 20
2280.814708166579
 30
0.0
 11
967.940110338589
 21
2280.743175021084
 31
0.0
  0
LINE
  5
76
  8
MAKE2D$VISIBLE$LINES
 10
967.940110338589
 20
2280.743175021084
 30
0.0
 11
968.3323173800416
 21
2227.639441900024
 31
0.0
  0
LINE
  5
77
  8
MAKE2D$VISIBLE$LINES
 10
968.3323173800416
 20
2227.639441900024
 30
0.0
 11
971.5397749333819
 21
2227.691394772476
 31
0.0
  0
LINE
  5
78
  8
MAKE2D$VISIBLE$LINES
 10
971.5397749333819
 20
2227.691394772476
 30
0.0
 11
971.1557338446837
 21
2280.814708166579
 31
0.0
  0
LINE
  5
79
  8
MAKE2D$VISIBLE$LINES
 10
971.1557338446837
 20
2280.814708166579
 30
0.0
 11
1006.746823816992
 21
2281.606449678757
 31
0.0
  0
LINE
  5
7A
  8
MAKE2D$VISIBLE$LINES
 10
946.7957166931367
 20
2288.448704118651
 30
0.0
 11
958.2430604820192
 21
2288.714039636523
 31
0.0
  0
LINE
  5
7B
  8
MAKE2D$VISIBLE$LINES
 10
958.2430604820192
 20
2288.714039636523
 30
0.0
 11
961.4528862841241
 21
2288.788439497939
 31
0.0
  0
LINE
  5
7C
  8
MAKE2D$VISIBLE$LINES
 10
961.4528862841241
 20
2288.788439497939
 30
0.0
 11
967.8795904165034
 21
2288.937402689804
 31
0.0
  0
LINE
  5
7D
  8
MAKE2D$VISIBLE$LINES
 10
967.8795904165034
 20
2288.937402689804
 30
0.0
 11
971.0964739138676
 21
2289.01196614002
 31
0.0
  0
LINE
  5
7E
  8
MAKE2D$VISIBLE$LINES
 10
971.0964739138676
 20
2289.01196614002
 30
0.0
 11
1006.746823816992
 21
2289.838297927403
 31
0.0
  0
LINE
  5
7F
  8
MAKE2D$VISIBLE$LINES
 10
1006.746823816992
 20
2292.94433977132
 30
0.0
 11
945.2627804589356
 21
2291.497562883501
 31
0.0
  0
LINE
  5
80
  8
MAKE2D$VISIBLE$LINES
 10
945.2627804589356
 20
2291.497562883501
 30
0.0
 11
944.2493054170907
 21
2291.915700068161
 31
0.0
  0
LINE
  5
81
  8
MAKE2D$VISIBLE$LINES
 10
944.2493054170907
 20
2291.915700068161
 30
0.0
 11
940.8614944936003
 21
2291.835810742098
 31
0.0
  0
LINE
  5
82
  8
MAKE2D$VISIBLE$LINES
 10
940.8614944936003
 20
2291.835810742098
 30
0.0
 11
941.3498186178757
 21
2235.694593302748
 31
0.0
  0
LINE
  5
83
  8
MAKE2D$VISIBLE$LINES
 10
941.3498186178757
 20
2235.694593302748
 30
0.0
 11
944.7285679352864
 21
2235.752598052736
 31
0.0
  0
LINE
  5
84
  8
MAKE2D$VISIBLE$LINES
 10
944.7285679352864
 20
2235.752598052736
 30
0.0
 11
944.2493054170907
 21
2291.915700068161
 31
0.0
  0
LINE
  5
85
  8
MAKE2D$VISIBLE$LINES
 10
944.2493054170907
 20
2291.915700068161
 30
0.0
 11
1006.746823816992
 21
2293.38947907718
 31
0.0
  0
LINE
  5
86
  8
MAKE2D$VISIBLE$LINES
 10
735.658277779534
 20
2295.459942779626
 30
0.0
 11
688.1417096270179
 21
2309.535275764185
 31
0.0
  0
LINE
  5
87
  8
MAKE2D$VISIBLE$LINES
 10
786.8701537515972
 20
2133.562619466334
 30
0.0
 11
786.5534262605242
 21
2152.981806990474
 31
0.0
  0
LINE
  5
88
  8
MAKE2D$VISIBLE$LINES
 10
786.5534262605242
 20
2152.981806990474
 30
0.0
 11
788.9999041417343
 21
2153.001033497725
 31
0.0
  0
LINE
  5
89
  8
MAKE2D$VISIBLE$LINES
 10
788.9999041417343
 20
2153.001033497725
 30
0.0
 11
789.3146172594749
 21
2133.562619466334
 31
0.0
  0
LINE
  5
8A
  8
MAKE2D$VISIBLE$LINES
 10
790.2886552190319
 20
2133.562619466334
 30
0.0
 11
789.97649485642
 21
2152.900359128916
 31
0.0
  0
LINE
  5
8B
  8
MAKE2D$VISIBLE$LINES
 10
789.97649485642
 20
2152.900359128916
 30
0.0
 11
794.0424738910772
 21
2152.932261850434
 31
0.0
  0
LINE
  5
8C
  8
MAKE2D$VISIBLE$LINES
 10
847.89613426899
 20
2133.562619466334
 30
0.0
 11
847.6327694956615
 21
2153.334446203864
 31
0.0
  0
ARC
  5
8D
  8
MAKE2D$VISIBLE$LINES
 10
-909.8938994760761
 20
2145.429548118469
 30
0.0
 40
25.70666218697605
 50
332.5077564719368
 51
359.639569240993
210
0.0
220
0.0
230
-1.0
  0
LINE
  5
8E
  8
MAKE2D$VISIBLE$LINES
 10
884.1877459316531
 20
2145.267836196019
 30
0.0
 11
884.0408553998072
 21
2158.001542851691
 31
0.0
  0
LINE
  5
8F
  8
MAKE2D$VISIBLE$LINES
 10
884.0408553998072
 20
2158.001542851691
 30
0.0
 11
870.7750377442081
 21
2157.890801030943
 31
0.0
  0
LINE
  5
90
  8
MAKE2D$VISIBLE$LINES
 10
870.7750377442081
 20
2157.890801030943
 30
0.0
 11
871.0714713713455
 21
2133.562619466334
 31
0.0
  0
LINE
  5
91
  8
MAKE2D$VISIBLE$LINES
 10
930.7920965598054
 20
2158.391817895619
 30
0.0
 11
917.3833924960253
 21
2158.279883272331
 31
0.0
  0
LINE
  5
92
  8
MAKE2D$VISIBLE$LINES
 10
917.3833924960253
 20
2158.279883272331
 30
0.0
 11
917.5099900637716
 21
2145.497217790598
 31
0.0
  0
ARC
  5
93
  8
MAKE2D$VISIBLE$LINES
 10
-891.9880281999432
 20
2145.092533315208
 30
0.0
 40
25.52517006610014
 50
179.091575731249
 51
206.8532960378988
210
0.0
220
0.0
230
-1.0
  0
ARC
  5
94
  8
MAKE2D$VISIBLE$LINES
 10
830.0311809880861
 20
2144.580148554592
 30
0.0
 40
25.53482644790355
 50
334.4390701597382
 51
1.062621284059656
  0
LINE
  5
95
  8
MAKE2D$VISIBLE$LINES
 10
855.5616160438273
 20
2145.053696428777
 30
0.0
 11
855.3974666799007
 21
2157.741698648818
 31
0.0
  0
LINE
  5
96
  8
MAKE2D$VISIBLE$LINES
 10
855.3974666799007
 20
2157.741698648818
 30
0.0
 11
868.6125170553476
 21
2157.85198506505
 31
0.0
  0
LINE
  5
97
  8
MAKE2D$VISIBLE$LINES
 10
809.8212680122143
 20
2133.562619466334
 30
0.0
 11
809.4599161109461
 21
2157.358326079001
 31
0.0
  0
LINE
  5
98
  8
MAKE2D$VISIBLE$LINES
 10
809.4599161109461
 20
2157.358326079001
 30
0.0
 11
822.5351760626288
 21
2157.467445871994
 31
0.0
  0
LINE
  5
99
  8
MAKE2D$VISIBLE$LINES
 10
822.5351760626288
 20
2157.467445871994
 30
0.0
 11
822.719029895791
 21
2144.827681400016
 31
0.0
  0
ARC
  5
9A
  8
MAKE2D$VISIBLE$LINES
 10
848.5277469224606
 20
2145.082790163899
 30
0.0
 40
25.80997781951998
 50
180.5663272396956
 51
206.5094636916174
  0
ARC
  5
9B
  8
MAKE2D$VISIBLE$LINES
 10
768.6228169027378
 20
2144.105160791599
 30
0.0
 40
25.55750386478935
 50
335.6378473778046
 51
1.217517549918568
  0
LINE
  5
9C
  8
MAKE2D$VISIBLE$LINES
 10
794.1745507478709
 20
2144.648208953551
 30
0.0
 11
793.9736392624939
 21
2157.249670048696
 31
0.0
  0
LINE
  5
9D
  8
MAKE2D$VISIBLE$LINES
 10
793.9736392624939
 20
2157.249670048696
 30
0.0
 11
804.396116257299
 21
2157.336675924178
 31
0.0
  0
LINE
  5
9E
  8
MAKE2D$VISIBLE$LINES
 10
751.2460742210337
 20
2156.892984281436
 30
0.0
 11
761.5652718421321
 21
2156.979127990244
 31
0.0
  0
LINE
  5
9F
  8
MAKE2D$VISIBLE$LINES
 10
761.5652718421321
 20
2156.979127990244
 30
0.0
 11
761.7853371799399
 21
2144.42525009682
 31
0.0
  0
ARC
  5
A0
  8
MAKE2D$VISIBLE$LINES
 10
787.7022360819224
 20
2144.771805774504
 30
0.0
 40
25.91921583561728
 50
180.7661022423048
 51
205.6241772518419
  0
LINE
  5
A1
  8
MAKE2D$VISIBLE$LINES
 10
917.4267665579329
 20
2153.900366873898
 30
0.0
 11
905.7620185025849
 21
2153.80884224831
 31
0.0
  0
LINE
  5
A2
  8
MAKE2D$VISIBLE$LINES
 10
905.7620185025849
 20
2153.80884224831
 30
0.0
 11
905.9740938830369
 21
2133.562619466334
 31
0.0
  0
LINE
  5
A3
  8
MAKE2D$VISIBLE$LINES
 10
844.5254173247928
 20
2133.562619466334
 30
0.0
 11
844.2576748937564
 21
2153.416945560119
 31
0.0
  0
LINE
  5
A4
  8
MAKE2D$VISIBLE$LINES
 10
844.2576748937564
 20
2153.416945560119
 30
0.0
 11
846.7364291777449
 21
2153.436420469005
 31
0.0
  0
LINE
  5
A5
  8
MAKE2D$VISIBLE$LINES
 10
846.7364291777449
 20
2153.436420469005
 30
0.0
 11
847.0020228384838
 21
2133.562619466334
 31
0.0
  0
LINE
  5
A6
  8
MAKE2D$VISIBLE$LINES
 10
902.6506701605633
 20
2133.562619466334
 30
0.0
 11
902.4344083193431
 21
2153.892498462011
 31
0.0
  0
LINE
  5
A7
  8
MAKE2D$VISIBLE$LINES
 10
905.1612386044421
 20
2133.562619466334
 30
0.0
 11
904.9472696801718
 21
2153.912246667193
 31
0.0
  0
LINE
  5
A8
  8
MAKE2D$VISIBLE$LINES
 10
804.7630309882002
 20
2133.562619466334
 30
0.0
 11
804.396116257299
 21
2157.336675924178
 31
0.0
  0
LINE
  5
A9
  8
MAKE2D$VISIBLE$LINES
 10
804.396116257299
 20
2157.336675924178
 30
0.0
 11
807.0056804992871
 21
2157.358460325488
 31
0.0
  0
LINE
  5
AA
  8
MAKE2D$VISIBLE$LINES
 10
807.0056804992871
 20
2157.358460325488
 30
0.0
 11
807.3698923042747
 21
2133.562619466334
 31
0.0
  0
LINE
  5
AB
  8
MAKE2D$VISIBLE$LINES
 10
749.0934620301089
 20
2133.562619466334
 30
0.0
 11
748.670154285551
 21
2156.87148073969
 31
0.0
  0
LINE
  5
AC
  8
MAKE2D$VISIBLE$LINES
 10
748.670154285551
 20
2156.87148073969
 30
0.0
 11
751.2460742210337
 21
2156.892984281436
 31
0.0
  0
LINE
  5
AD
  8
MAKE2D$VISIBLE$LINES
 10
751.2460742210337
 20
2156.892984281436
 30
0.0
 11
751.6668310851892
 21
2133.562619466334
 31
0.0
  0
LINE
  5
AE
  8
MAKE2D$VISIBLE$LINES
 10
931.0217086324238
 20
2133.562619466334
 30
0.0
 11
930.7920965598054
 21
2158.391817895619
 31
0.0
  0
LINE
  5
AF
  8
MAKE2D$VISIBLE$LINES
 10
930.7920965598054
 20
2158.391817895619
 30
0.0
 11
931.9396298575488
 21
2158.228854619547
 31
0.0
  0
LINE
  5
B0
  8
MAKE2D$VISIBLE$LINES
 10
870.778830010517
 20
2157.579571347065
 30
0.0
 11
868.6125170553476
 21
2157.85198506505
 31
0.0
  0
LINE
  5
B1
  8
MAKE2D$VISIBLE$LINES
 10
868.6125170553476
 20
2157.85198506505
 30
0.0
 11
868.9110486214283
 21
2133.562619466334
 31
0.0
  0
LINE
  5
B2
  8
MAKE2D$VISIBLE$LINES
 10
748.3129659102092
 20
2133.562619466334
 30
0.0
 11
747.8131833806622
 21
2161.02463728859
 31
0.0
  0
LINE
  5
B3
  8
MAKE2D$VISIBLE$LINES
 10
747.8131833806622
 20
2161.02463728859
 30
0.0
 11
931.8989849573826
 21
2162.65082347664
 31
0.0
  0
LINE
  5
B4
  8
MAKE2D$VISIBLE$LINES
 10
931.9004948512276
 20
2162.486554317853
 30
0.0
 11
749.1839704345741
 21
2160.875896439475
 31
0.0
  0
LINE
  5
B5
  8
MAKE2D$VISIBLE$LINES
 10
749.1839704345741
 20
2160.875896439475
 30
0.0
 11
747.8131833806623
 21
2161.02463728859
 31
0.0
  0
LINE
  5
B6
  8
MAKE2D$VISIBLE$LINES
 10
747.8131833806623
 20
2161.02463728859
 30
0.0
 11
744.5963405682278
 21
2160.996220184686
 31
0.0
  0
LINE
  5
B7
  8
MAKE2D$VISIBLE$LINES
 10
744.5963405682278
 20
2160.996220184686
 30
0.0
 11
745.0999244039313
 21
2133.562619466334
 31
0.0
  0
LINE
  5
B8
  8
MAKE2D$VISIBLE$LINES
 10
935.5210572914175
 20
2133.562619466334
 30
0.0
 11
935.2582035433795
 21
2162.680498306639
 31
0.0
  0
LINE
  5
B9
  8
MAKE2D$VISIBLE$LINES
 10
935.2582035433795
 20
2162.680498306639
 30
0.0
 11
938.6200037495101
 21
2162.710195942282
 31
0.0
  0
LINE
  5
BA
  8
MAKE2D$VISIBLE$LINES
 10
938.6200037495101
 20
2162.710195942282
 30
0.0
 11
938.5442037164954
 21
2171.26285281553
 31
0.0
  0
LINE
  5
BB
  8
MAKE2D$VISIBLE$LINES
 10
938.5442037164954
 20
2171.26285281553
 30
0.0
 11
935.1810265353669
 21
2171.22985621128
 31
0.0
  0
LINE
  5
BC
  8
MAKE2D$VISIBLE$LINES
 10
939.6376734614138
 20
2162.554758043404
 30
0.0
 11
936.2822392670043
 21
2162.525179675832
 31
0.0
  0
LINE
  5
BD
  8
MAKE2D$VISIBLE$LINES
 10
936.2822392670043
 20
2162.525179675832
 30
0.0
 11
935.2582035433794
 21
2162.680498306639
 31
0.0
  0
LINE
  5
BE
  8
MAKE2D$VISIBLE$LINES
 10
935.2582035433794
 20
2162.680498306639
 30
0.0
 11
931.8989849573825
 21
2162.65082347664
 31
0.0
  0
LINE
  5
BF
  8
MAKE2D$VISIBLE$LINES
 10
931.8989849573825
 20
2162.65082347664
 30
0.0
 11
932.1663516409427
 21
2133.562619466334
 31
0.0
  0
LINE
  5
C0
  8
MAKE2D$VISIBLE$LINES
 10
969.0271384411499
 20
2133.562619466334
 30
0.0
 11
968.8421565295656
 21
2158.608651349419
 31
0.0
  0
LINE
  5
C1
  8
MAKE2D$VISIBLE$LINES
 10
968.8421565295656
 20
2158.608651349419
 30
0.0
 11
972.0389978830021
 21
2158.635301592155
 31
0.0
  0
LINE
  5
C2
  8
MAKE2D$VISIBLE$LINES
 10
972.0389978830021
 20
2158.635301592155
 30
0.0
 11
972.9394807736702
 21
2158.495801838787
 31
0.0
  0
LINE
  5
C3
  8
MAKE2D$VISIBLE$LINES
 10
972.9394807736702
 20
2158.495801838787
 30
0.0
 11
972.8813910655701
 21
2166.580407828273
 31
0.0
  0
LINE
  5
C4
  8
MAKE2D$VISIBLE$LINES
 10
972.0389978830021
 20
2158.635301592155
 30
0.0
 11
972.2202542754403
 21
2133.562619466334
 31
0.0
  0
LINE
  5
C5
  8
MAKE2D$VISIBLE$LINES
 10
942.2381767433135
 20
2133.562619466334
 30
0.0
 11
941.984388552951
 21
2162.739916409867
 31
0.0
  0
LINE
  5
C6
  8
MAKE2D$VISIBLE$LINES
 10
941.984388552951
 20
2162.739916409867
 30
0.0
 11
945.3513609354583
 21
2162.769659735735
 31
0.0
  0
LINE
  5
C7
  8
MAKE2D$VISIBLE$LINES
 10
945.3513609354583
 20
2162.769659735735
 30
0.0
 11
946.3562683584597
 21
2162.613982888212
 31
0.0
  0
LINE
  5
C8
  8
MAKE2D$VISIBLE$LINES
 10
946.3562683584597
 20
2162.613982888212
 30
0.0
 11
946.2837956679232
 21
2171.155951950954
 31
0.0
  0
LINE
  5
C9
  8
MAKE2D$VISIBLE$LINES
 10
945.3513609354583
 20
2162.769659735735
 30
0.0
 11
945.600596450703
 21
2133.562619466334
 31
0.0
  0
LINE
  5
CA
  8
MAKE2D$VISIBLE$LINES
 10
808.3778740055424
 20
2133.562619466334
 30
0.0
 11
808.0165774494376
 21
2157.244401097581
 31
0.0
  0
LINE
  5
CB
  8
MAKE2D$VISIBLE$LINES
 10
808.0165774494376
 20
2157.244401097581
 30
0.0
 11
809.4641263396178
 21
2157.081074550054
 31
0.0
  0
LINE
  5
CC
  8
MAKE2D$VISIBLE$LINES
 10
962.6478481189804
 20
2133.562619466334
 30
0.0
 11
962.4554482357653
 21
2158.555409005648
 31
0.0
  0
LINE
  5
CD
  8
MAKE2D$VISIBLE$LINES
 10
962.4554482357653
 20
2158.555409005648
 30
0.0
 11
965.6476408261153
 21
2158.582020494299
 31
0.0
  0
LINE
  5
CE
  8
MAKE2D$VISIBLE$LINES
 10
965.6476408261153
 20
2158.582020494299
 30
0.0
 11
965.5865945003065
 21
2166.676199793182
 31
0.0
  0
LINE
  5
CF
  8
MAKE2D$VISIBLE$LINES
 10
965.5865945003065
 20
2166.676199793182
 30
0.0
 11
962.393160244989
 21
2166.646633481875
 31
0.0
  0
LINE
  5
D0
  8
MAKE2D$VISIBLE$LINES
 10
962.393160244989
 20
2166.646633481875
 30
0.0
 11
961.9870829592057
 21
2219.396167268877
 31
0.0
  0
LINE
  5
D1
  8
MAKE2D$VISIBLE$LINES
 10
961.9870829592057
 20
2219.396167268877
 30
0.0
 11
965.1886116335131
 21
2219.445054249979
 31
0.0
  0
LINE
  5
D2
  8
MAKE2D$VISIBLE$LINES
 10
965.1886116335131
 20
2219.445054249979
 30
0.0
 11
965.1272010787204
 21
2227.587526950059
 31
0.0
  0
LINE
  5
D3
  8
MAKE2D$VISIBLE$LINES
 10
965.1272010787204
 20
2227.587526950059
 30
0.0
 11
961.9244234668927
 21
2227.535649881075
 31
0.0
  0
LINE
  5
D4
  8
MAKE2D$VISIBLE$LINES
 10
961.9244234668927
 20
2227.535649881075
 30
0.0
 11
961.5159206115084
 21
2280.600265722915
 31
0.0
  0
LINE
  5
D5
  8
MAKE2D$VISIBLE$LINES
 10
961.5159206115084
 20
2280.600265722915
 30
0.0
 11
967.940110338589
 21
2280.743175021084
 31
0.0
  0
LINE
  5
D6
  8
MAKE2D$VISIBLE$LINES
 10
966.559634570422
 20
2158.442723441683
 30
0.0
 11
963.3731845082601
 21
2158.416213137772
 31
0.0
  0
LINE
  5
D7
  8
MAKE2D$VISIBLE$LINES
 10
963.3731845082601
 20
2158.416213137772
 30
0.0
 11
962.4554482357653
 21
2158.555409005648
 31
0.0
  0
LINE
  5
D8
  8
MAKE2D$VISIBLE$LINES
 10
962.4554482357653
 20
2158.555409005648
 30
0.0
 11
959.2655762253181
 21
2158.528816862348
 31
0.0
  0
LINE
  5
D9
  8
MAKE2D$VISIBLE$LINES
 10
959.2655762253181
 20
2158.528816862348
 30
0.0
 11
959.4616686031143
 21
2133.562619466334
 31
0.0
  0
LINE
  5
DA
  8
MAKE2D$VISIBLE$LINES
 10
946.7697743931519
 20
2291.533023856382
 30
0.0
 11
948.0984679035173
 21
2133.562619466334
 31
0.0
  0
LINE
  5
DB
  8
MAKE2D$VISIBLE$LINES
 10
973.4139098923562
 20
2280.470258609866
 30
0.0
 11
974.4598211737798
 21
2133.562619466334
 31
0.0
  0
LINE
  5
DC
  8
MAKE2D$VISIBLE$LINES
 10
937.8084151550287
 20
2162.538633014849
 30
0.0
 11
938.0663748911861
 21
2133.562619466334
 31
0.0
  0
LINE
  5
DD
  8
MAKE2D$VISIBLE$LINES
 10
964.7415968385394
 20
2158.427597916287
 30
0.0
 11
964.9302324020758
 21
2133.562619466334
 31
0.0
  0
LINE
  5
DE
  8
MAKE2D$VISIBLE$LINES
 10
866.2676876022165
 20
2133.562619466334
 30
0.0
 11
865.966284724904
 21
2157.829900890419
 31
0.0
  0
LINE
  5
DF
  8
MAKE2D$VISIBLE$LINES
 10
869.8280470434959
 20
2133.562619466334
 30
0.0
 11
869.5320226487894
 21
2157.736357294455
 31
0.0
  0
LINE
  5
E0
  8
MAKE2D$VISIBLE$LINES
 10
812.4304380431996
 20
2133.562619466334
 30
0.0
 11
812.0717997279746
 21
2157.380123595889
 31
0.0
  0
LINE
  5
E1
  8
MAKE2D$VISIBLE$LINES
 10
873.7185082281023
 20
2133.562619466334
 30
0.0
 11
873.424962933887
 21
2157.912922361718
 31
0.0
  0
LINE
  5
E2
  8
MAKE2D$VISIBLE$LINES
 10
928.3397262593477
 20
2133.562619466334
 30
0.0
 11
928.1070619212883
 21
2158.369403474409
 31
0.0
  0
LINE
  5
E3
  8
MAKE2D$VISIBLE$LINES
 10
931.8460055485781
 20
2133.562619466334
 30
0.0
 11
931.6184767171953
 21
2158.274462157015
 31
0.0
  0
LINE
  5
E4
  8
MAKE2D$VISIBLE$LINES
 10
793.0281580918656
 20
2216.551626656674
 30
0.0
 11
784.5180528759822
 21
2216.421939903727
 31
0.0
  0
LINE
  5
E5
  8
MAKE2D$VISIBLE$LINES
 10
784.5180528759822
 20
2216.421939903727
 30
0.0
 11
783.2890112535445
 21
2216.665827818159
 31
0.0
  0
LINE
  5
E6
  8
MAKE2D$VISIBLE$LINES
 10
783.2890112535445
 20
2216.665827818159
 30
0.0
 11
793.0239411533364
 21
2216.816119185406
 31
0.0
  0
LINE
  5
E7
  8
MAKE2D$VISIBLE$LINES
 10
793.9775099929807
 20
2157.00689219285
 30
0.0
 11
785.4911700142527
 21
2156.93628840257
 31
0.0
  0
LINE
  5
E8
  8
MAKE2D$VISIBLE$LINES
 10
785.4911700142527
 20
2156.93628840257
 30
0.0
 11
784.2675084510861
 21
2157.069065013945
 31
0.0
  0
LINE
  5
E9
  8
MAKE2D$VISIBLE$LINES
 10
784.2675084510861
 20
2157.069065013945
 30
0.0
 11
793.9752142361897
 21
2157.150885403738
 31
0.0
  0
LINE
  5
EA
  8
MAKE2D$VISIBLE$LINES
 10
905.7620185025849
 20
2153.80884224831
 30
0.0
 11
904.9472696801718
 21
2153.912246667193
 31
0.0
  0
LINE
  5
EB
  8
MAKE2D$VISIBLE$LINES
 10
904.9472696801718
 20
2153.912246667193
 30
0.0
 11
902.4344083193431
 21
2153.892498462011
 31
0.0
  0
LINE
  5
EC
  8
MAKE2D$VISIBLE$LINES
 10
902.4344083193431
 20
2153.892498462011
 30
0.0
 11
884.0614891179082
 21
2156.212838023644
 31
0.0
  0
LINE
  5
ED
  8
MAKE2D$VISIBLE$LINES
 10
846.7364291777449
 20
2153.436420469005
 30
0.0
 11
847.6327694956615
 21
2153.334446203864
 31
0.0
  0
LINE
  5
EE
  8
MAKE2D$VISIBLE$LINES
 10
847.6327694956615
 20
2153.334446203864
 30
0.0
 11
855.4536912426342
 21
2153.395794651871
 31
0.0
  0
LINE
  5
EF
  8
MAKE2D$VISIBLE$LINES
 10
750.1112332865372
 20
2219.818286907381
 30
0.0
 11
760.4608742812667
 21
2219.980744978168
 31
0.0
  0
LINE
  5
F0
  8
MAKE2D$VISIBLE$LINES
 10
760.4608742812667
 20
2219.980744978168
 30
0.0
 11
760.6822982487606
 21
2207.349362506558
 31
0.0
  0
LINE
  5
F1
  8
MAKE2D$VISIBLE$LINES
 10
760.6822982487606
 20
2207.349362506558
 30
0.0
 11
760.714825911554
 21
2206.411693986346
 31
0.0
  0
LINE
  5
F2
  8
MAKE2D$VISIBLE$LINES
 10
760.714825911554
 20
2206.411693986346
 30
0.0
 11
760.7435658490006
 21
2205.937429514854
 31
0.0
  0
LINE
  5
F3
  8
MAKE2D$VISIBLE$LINES
 10
760.7435658490006
 20
2205.937429514854
 30
0.0
 11
760.7808841770101
 21
2205.459976180941
 31
0.0
  0
LINE
  5
F4
  8
MAKE2D$VISIBLE$LINES
 10
760.7808841770101
 20
2205.459976180941
 30
0.0
 11
760.8269661009126
 21
2204.979678769205
 31
0.0
  0
LINE
  5
F5
  8
MAKE2D$VISIBLE$LINES
 10
760.8269661009126
 20
2204.979678769205
 30
0.0
 11
760.8819872918
 21
2204.496898775851
 31
0.0
  0
LINE
  5
F6
  8
MAKE2D$VISIBLE$LINES
 10
760.8819872918
 20
2204.496898775851
 30
0.0
 11
760.9461129591099
 21
2204.012014011988
 31
0.0
  0
LINE
  5
F7
  8
MAKE2D$VISIBLE$LINES
 10
760.9461129591099
 20
2204.012014011988
 30
0.0
 11
761.0194969251639
 21
2203.525418112845
 31
0.0
  0
LINE
  5
F8
  8
MAKE2D$VISIBLE$LINES
 10
761.0194969251639
 20
2203.525418112845
 30
0.0
 11
761.1022807077273
 21
2203.037519950707
 31
0.0
  0
LINE
  5
F9
  8
MAKE2D$VISIBLE$LINES
 10
761.1022807077273
 20
2203.037519950707
 30
0.0
 11
761.1945926169844
 21
2202.548742950069
 31
0.0
  0
LINE
  5
FA
  8
MAKE2D$VISIBLE$LINES
 10
761.1945926169844
 20
2202.548742950069
 30
0.0
 11
761.2965468735888
 21
2202.059524304253
 31
0.0
  0
LINE
  5
FB
  8
MAKE2D$VISIBLE$LINES
 10
761.2965468735888
 20
2202.059524304253
 30
0.0
 11
761.4082427546675
 21
2201.570314093547
 31
0.0
  0
LINE
  5
FC
  8
MAKE2D$VISIBLE$LINES
 10
761.4082427546675
 20
2201.570314093547
 30
0.0
 11
761.529763774814
 21
2201.081574305812
 31
0.0
  0
LINE
  5
FD
  8
MAKE2D$VISIBLE$LINES
 10
761.529763774814
 20
2201.081574305812
 30
0.0
 11
761.6611769091803
 21
2200.593777761408
 31
0.0
  0
LINE
  5
FE
  8
MAKE2D$VISIBLE$LINES
 10
761.6611769091803
 20
2200.593777761408
 30
0.0
 11
761.8025318657905
 21
2200.107406945238
 31
0.0
  0
LINE
  5
FF
  8
MAKE2D$VISIBLE$LINES
 10
761.8025318657905
 20
2200.107406945238
 30
0.0
 11
761.9538604141197
 21
2199.622952749702
 31
0.0
  0
LINE
  5
100
  8
MAKE2D$VISIBLE$LINES
 10
761.9538604141197
 20
2199.622952749702
 30
0.0
 11
762.1151757768235
 21
2199.140913133321
 31
0.0
  0
LINE
  5
101
  8
MAKE2D$VISIBLE$LINES
 10
762.1151757768235
 20
2199.140913133321
 30
0.0
 11
762.286472091247
 21
2198.661791700792
 31
0.0
  0
LINE
  5
102
  8
MAKE2D$VISIBLE$LINES
 10
762.286472091247
 20
2198.661791700792
 30
0.0
 11
762.467723947009
 21
2198.186096211191
 31
0.0
  0
LINE
  5
103
  8
MAKE2D$VISIBLE$LINES
 10
762.467723947009
 20
2198.186096211191
 30
0.0
 11
762.6588860055236
 21
2197.714337021997
 31
0.0
  0
LINE
  5
104
  8
MAKE2D$VISIBLE$LINES
 10
762.6588860055236
 20
2197.714337021997
 30
0.0
 11
762.8598927067993
 21
2197.247025477463
 31
0.0
  0
LINE
  5
105
  8
MAKE2D$VISIBLE$LINES
 10
762.8598927067993
 20
2197.247025477463
 30
0.0
 11
763.0706580682521
 21
2196.784672250729
 31
0.0
  0
LINE
  5
106
  8
MAKE2D$VISIBLE$LINES
 10
763.0706580682521
 20
2196.784672250729
 30
0.0
 11
763.2910755795882
 21
2196.327785649801
 31
0.0
  0
LINE
  5
107
  8
MAKE2D$VISIBLE$LINES
 10
763.2910755795882
 20
2196.327785649801
 30
0.0
 11
763.521018197044
 21
2195.876869898168
 31
0.0
  0
LINE
  5
108
  8
MAKE2D$VISIBLE$LINES
 10
763.521018197044
 20
2195.876869898168
 30
0.0
 11
763.7603384394547
 21
2195.432423401385
 31
0.0
  0
LINE
  5
109
  8
MAKE2D$VISIBLE$LINES
 10
763.7603384394547
 20
2195.432423401385
 30
0.0
 11
764.0088685877384
 21
2194.994937011397
 31
0.0
  0
LINE
  5
10A
  8
MAKE2D$VISIBLE$LINES
 10
764.0088685877384
 20
2194.994937011397
 30
0.0
 11
764.2664209884603
 21
2194.564892300675
 31
0.0
  0
LINE
  5
10B
  8
MAKE2D$VISIBLE$LINES
 10
764.2664209884603
 20
2194.564892300675
 30
0.0
 11
764.5327884611833
 21
2194.142759858371
 31
0.0
  0
LINE
  5
10C
  8
MAKE2D$VISIBLE$LINES
 10
764.5327884611833
 20
2194.142759858371
 30
0.0
 11
764.8077448083433
 21
2193.728997620788
 31
0.0
  0
LINE
  5
10D
  8
MAKE2D$VISIBLE$LINES
 10
764.8077448083433
 20
2193.728997620788
 30
0.0
 11
765.0910454254018
 21
2193.324049248267
 31
0.0
  0
LINE
  5
10E
  8
MAKE2D$VISIBLE$LINES
 10
765.0910454254018
 20
2193.324049248267
 30
0.0
 11
765.3824280080703
 21
2192.928342560393
 31
0.0
  0
LINE
  5
10F
  8
MAKE2D$VISIBLE$LINES
 10
765.3824280080703
 20
2192.928342560393
 30
0.0
 11
765.6816133524482
 21
2192.542288040927
 31
0.0
  0
LINE
  5
110
  8
MAKE2D$VISIBLE$LINES
 10
765.6816133524482
 20
2192.542288040927
 30
0.0
 11
765.9883062430275
 21
2192.166277423394
 31
0.0
  0
LINE
  5
111
  8
MAKE2D$VISIBLE$LINES
 10
765.9883062430275
 20
2192.166277423394
 30
0.0
 11
766.3021964226573
 21
2191.8006823675
 31
0.0
  0
LINE
  5
112
  8
MAKE2D$VISIBLE$LINES
 10
766.3021964226573
 20
2191.8006823675
 30
0.0
 11
766.6229596377858
 21
2191.445853235773
 31
0.0
  0
LINE
  5
113
  8
MAKE2D$VISIBLE$LINES
 10
766.6229596377858
 20
2191.445853235773
 30
0.0
 11
766.9502587515958
 21
2191.102117978852
 31
0.0
  0
LINE
  5
114
  8
MAKE2D$VISIBLE$LINES
 10
766.9502587515958
 20
2191.102117978852
 30
0.0
 11
767.2837449170333
 21
2190.769781136862
 31
0.0
  0
LINE
  5
115
  8
MAKE2D$VISIBLE$LINES
 10
767.2837449170333
 20
2190.769781136862
 30
0.0
 11
767.6230588012174
 21
2190.449122963151
 31
0.0
  0
LINE
  5
116
  8
MAKE2D$VISIBLE$LINES
 10
767.6230588012174
 20
2190.449122963151
 30
0.0
 11
767.9678318523062
 21
2190.140398675517
 31
0.0
  0
LINE
  5
117
  8
MAKE2D$VISIBLE$LINES
 10
767.9678318523062
 20
2190.140398675517
 30
0.0
 11
768.3176875995957
 21
2189.843837838789
 31
0.0
  0
LINE
  5
118
  8
MAKE2D$VISIBLE$LINES
 10
768.3176875995957
 20
2189.843837838789
 30
0.0
 11
768.6722429774466
 21
2189.559643881402
 31
0.0
  0
LINE
  5
119
  8
MAKE2D$VISIBLE$LINES
 10
768.6722429774466
 20
2189.559643881402
 30
0.0
 11
769.0311096635529
 21
2189.287993747287
 31
0.0
  0
LINE
  5
11A
  8
MAKE2D$VISIBLE$LINES
 10
769.0311096635529
 20
2189.287993747287
 30
0.0
 11
769.3938954221185
 21
2189.029037683182
 31
0.0
  0
LINE
  5
11B
  8
MAKE2D$VISIBLE$LINES
 10
769.3938954221185
 20
2189.029037683182
 30
0.0
 11
769.7602054426455
 21
2188.782899160191
 31
0.0
  0
LINE
  5
11C
  8
MAKE2D$VISIBLE$LINES
 10
769.7602054426455
 20
2188.782899160191
 30
0.0
 11
770.1296436653122
 21
2188.549674927247
 31
0.0
  0
LINE
  5
11D
  8
MAKE2D$VISIBLE$LINES
 10
770.1296436653122
 20
2188.549674927247
 30
0.0
 11
770.5018140842487
 21
2188.329435193003
 31
0.0
  0
LINE
  5
11E
  8
MAKE2D$VISIBLE$LINES
 10
770.5018140842487
 20
2188.329435193003
 30
0.0
 11
770.8763220204893
 21
2188.122223931599
 31
0.0
  0
LINE
  5
11F
  8
MAKE2D$VISIBLE$LINES
 10
770.8763220204893
 20
2188.122223931599
 30
0.0
 11
771.2527753568752
 21
2187.928059306805
 31
0.0
  0
LINE
  5
120
  8
MAKE2D$VISIBLE$LINES
 10
771.2527753568752
 20
2187.928059306805
 30
0.0
 11
771.6307857278052
 21
2187.746934208133
 31
0.0
  0
LINE
  5
121
  8
MAKE2D$VISIBLE$LINES
 10
771.6307857278052
 20
2187.746934208133
 30
0.0
 11
772.0099696573566
 21
2187.578816891797
 31
0.0
  0
LINE
  5
122
  8
MAKE2D$VISIBLE$LINES
 10
772.0099696573566
 20
2187.578816891797
 30
0.0
 11
772.3899496400142
 21
2187.423651718674
 31
0.0
  0
LINE
  5
123
  8
MAKE2D$VISIBLE$LINES
 10
772.3899496400142
 20
2187.423651718674
 30
0.0
 11
772.7703551589769
 21
2187.281359980959
 31
0.0
  0
LINE
  5
124
  8
MAKE2D$VISIBLE$LINES
 10
772.7703551589769
 20
2187.281359980959
 30
0.0
 11
773.1508236377584
 21
2187.151840808717
 31
0.0
  0
LINE
  5
125
  8
MAKE2D$VISIBLE$LINES
 10
773.1508236377584
 20
2187.151840808717
 30
0.0
 11
773.5310013215732
 21
2187.034972147274
 31
0.0
  0
LINE
  5
126
  8
MAKE2D$VISIBLE$LINES
 10
773.5310013215732
 20
2187.034972147274
 30
0.0
 11
773.9105440857633
 21
2186.930611796201
 31
0.0
  0
LINE
  5
127
  8
MAKE2D$VISIBLE$LINES
 10
773.9105440857633
 20
2186.930611796201
 30
0.0
 11
774.2891181692763
 21
2186.838598500542
 31
0.0
  0
LINE
  5
128
  8
MAKE2D$VISIBLE$LINES
 10
774.2891181692763
 20
2186.838598500542
 30
0.0
 11
774.6664008319406
 21
2186.758753085005
 31
0.0
  0
LINE
  5
129
  8
MAKE2D$VISIBLE$LINES
 10
774.6664008319406
 20
2186.758753085005
 30
0.0
 11
775.0420809349891
 21
2186.69087962193
 31
0.0
  0
LINE
  5
12A
  8
MAKE2D$VISIBLE$LINES
 10
775.0420809349891
 20
2186.69087962193
 30
0.0
 11
775.4158594449555
 21
2186.634766624091
 31
0.0
  0
LINE
  5
12B
  8
MAKE2D$VISIBLE$LINES
 10
775.4158594449555
 20
2186.634766624091
 30
0.0
 11
775.787449861688
 21
2186.590188253679
 31
0.0
  0
LINE
  5
12C
  8
MAKE2D$VISIBLE$LINES
 10
775.787449861688
 20
2186.590188253679
 30
0.0
 11
776.1565785718118
 21
2186.556905539189
 31
0.0
  0
LINE
  5
12D
  8
MAKE2D$VISIBLE$LINES
 10
776.1565785718118
 20
2186.556905539189
 30
0.0
 11
776.522985129488
 21
2186.534667592377
 31
0.0
  0
LINE
  5
12E
  8
MAKE2D$VISIBLE$LINES
 10
776.522985129488
 20
2186.534667592377
 30
0.0
 11
776.8864224667952
 21
2186.523212817908
 31
0.0
  0
LINE
  5
12F
  8
MAKE2D$VISIBLE$LINES
 10
776.8864224667952
 20
2186.523212817908
 30
0.0
 11
777.2466570364704
 21
2186.522270108891
 31
0.0
  0
LINE
  5
130
  8
MAKE2D$VISIBLE$LINES
 10
777.2466570364704
 20
2186.522270108891
 30
0.0
 11
777.6067483170054
 21
2186.531692645745
 31
0.0
  0
LINE
  5
131
  8
MAKE2D$VISIBLE$LINES
 10
777.6067483170054
 20
2186.531692645745
 30
0.0
 11
777.9697506505472
 21
2186.551701871083
 31
0.0
  0
LINE
  5
132
  8
MAKE2D$VISIBLE$LINES
 10
777.9697506505472
 20
2186.551701871083
 30
0.0
 11
778.3354228921391
 21
2186.582566079919
 31
0.0
  0
LINE
  5
133
  8
MAKE2D$VISIBLE$LINES
 10
778.3354228921391
 20
2186.582566079919
 30
0.0
 11
778.7035105385706
 21
2186.624543865287
 31
0.0
  0
LINE
  5
134
  8
MAKE2D$VISIBLE$LINES
 10
778.7035105385706
 20
2186.624543865287
 30
0.0
 11
779.0737458967822
 21
2186.677882916591
 31
0.0
  0
LINE
  5
135
  8
MAKE2D$VISIBLE$LINES
 10
779.0737458967822
 20
2186.677882916591
 30
0.0
 11
779.4458483206832
 21
2186.742818803907
 31
0.0
  0
LINE
  5
136
  8
MAKE2D$VISIBLE$LINES
 10
779.4458483206832
 20
2186.742818803907
 30
0.0
 11
779.8195245190361
 21
2186.819573755132
 31
0.0
  0
LINE
  5
137
  8
MAKE2D$VISIBLE$LINES
 10
779.8195245190361
 20
2186.819573755132
 30
0.0
 11
780.1944689366353
 21
2186.908355433382
 31
0.0
  0
LINE
  5
138
  8
MAKE2D$VISIBLE$LINES
 10
780.1944689366353
 20
2186.908355433382
 30
0.0
 11
780.5703642105299
 21
2187.009355722583
 31
0.0
  0
LINE
  5
139
  8
MAKE2D$VISIBLE$LINES
 10
780.5703642105299
 20
2187.009355722583
 30
0.0
 11
780.9468817024955
 21
2187.122749529597
 31
0.0
  0
LINE
  5
13A
  8
MAKE2D$VISIBLE$LINES
 10
780.9468817024955
 20
2187.122749529597
 30
0.0
 11
781.3236821083749
 21
2187.248693611637
 31
0.0
  0
LINE
  5
13B
  8
MAKE2D$VISIBLE$LINES
 10
781.3236821083749
 20
2187.248693611637
 30
0.0
 11
781.7004161442663
 21
2187.387325438006
 31
0.0
  0
LINE
  5
13C
  8
MAKE2D$VISIBLE$LINES
 10
781.7004161442663
 20
2187.387325438006
 30
0.0
 11
782.0767253088579
 21
2187.538762095455
 31
0.0
  0
LINE
  5
13D
  8
MAKE2D$VISIBLE$LINES
 10
782.0767253088579
 20
2187.538762095455
 30
0.0
 11
782.4522427204882
 21
2187.703099246552
 31
0.0
  0
LINE
  5
13E
  8
MAKE2D$VISIBLE$LINES
 10
782.4522427204882
 20
2187.703099246552
 30
0.0
 11
782.8265940267684
 21
2187.880410150523
 31
0.0
  0
LINE
  5
13F
  8
MAKE2D$VISIBLE$LINES
 10
782.8265940267684
 20
2187.880410150523
 30
0.0
 11
783.1993983838364
 21
2188.070744755918
 31
0.0
  0
LINE
  5
140
  8
MAKE2D$VISIBLE$LINES
 10
783.1993983838364
 20
2188.070744755918
 30
0.0
 11
783.5702695015372
 21
2188.274128874315
 31
0.0
  0
LINE
  5
141
  8
MAKE2D$VISIBLE$LINES
 10
783.5702695015372
 20
2188.274128874315
 30
0.0
 11
783.938816750048
 21
2188.490563443921
 31
0.0
  0
LINE
  5
142
  8
MAKE2D$VISIBLE$LINES
 10
783.938816750048
 20
2188.490563443921
 30
0.0
 11
784.3046463227121
 21
2188.720023891541
 31
0.0
  0
LINE
  5
143
  8
MAKE2D$VISIBLE$LINES
 10
784.3046463227121
 20
2188.720023891541
 30
0.0
 11
784.6673624490993
 21
2188.962459600837
 31
0.0
  0
LINE
  5
144
  8
MAKE2D$VISIBLE$LINES
 10
784.6673624490993
 20
2188.962459600837
 30
0.0
 11
785.0265686516183
 21
2189.217793494122
 31
0.0
  0
LINE
  5
145
  8
MAKE2D$VISIBLE$LINES
 10
785.0265686516183
 20
2189.217793494122
 30
0.0
 11
785.3818690383487
 21
2189.485921734169
 31
0.0
  0
LINE
  5
146
  8
MAKE2D$VISIBLE$LINES
 10
785.3818690383487
 20
2189.485921734169
 30
0.0
 11
785.7328696241725
 21
2189.766713551624
 31
0.0
  0
LINE
  5
147
  8
MAKE2D$VISIBLE$LINES
 10
785.7328696241725
 20
2189.766713551624
 30
0.0
 11
786.0791796717681
 21
2190.060011202634
 31
0.0
  0
LINE
  5
148
  8
MAKE2D$VISIBLE$LINES
 10
786.0791796717681
 20
2190.060011202634
 30
0.0
 11
786.4204130435879
 21
2190.36563006021
 31
0.0
  0
LINE
  5
149
  8
MAKE2D$VISIBLE$LINES
 10
786.4204130435879
 20
2190.36563006021
 30
0.0
 11
786.756189555607
 21
2190.683358841704
 31
0.0
  0
LINE
  5
14A
  8
MAKE2D$VISIBLE$LINES
 10
786.756189555607
 20
2190.683358841704
 30
0.0
 11
787.0861363233757
 21
2191.012959973557
 31
0.0
  0
LINE
  5
14B
  8
MAKE2D$VISIBLE$LINES
 10
787.0861363233757
 20
2191.012959973557
 30
0.0
 11
787.4098890907904
 21
2191.354170093225
 31
0.0
  0
LINE
  5
14C
  8
MAKE2D$VISIBLE$LINES
 10
787.4098890907904
 20
2191.354170093225
 30
0.0
 11
787.727093531958
 21
2191.706700686882
 31
0.0
  0
LINE
  5
14D
  8
MAKE2D$VISIBLE$LINES
 10
787.727093531958
 20
2191.706700686882
 30
0.0
 11
788.0374065166357
 21
2192.070238860229
 31
0.0
  0
LINE
  5
14E
  8
MAKE2D$VISIBLE$LINES
 10
788.0374065166357
 20
2192.070238860229
 30
0.0
 11
788.3404973299331
 21
2192.444448238423
 31
0.0
  0
LINE
  5
14F
  8
MAKE2D$VISIBLE$LINES
 10
788.3404973299331
 20
2192.444448238423
 30
0.0
 11
788.6360488372886
 21
2192.828969989903
 31
0.0
  0
LINE
  5
150
  8
MAKE2D$VISIBLE$LINES
 10
788.6360488372886
 20
2192.828969989903
 30
0.0
 11
788.9237585861721
 21
2193.223423967663
 31
0.0
  0
LINE
  5
151
  8
MAKE2D$VISIBLE$LINES
 10
788.9237585861721
 20
2193.223423967663
 30
0.0
 11
789.2033398365086
 21
2193.62740996041
 31
0.0
  0
LINE
  5
152
  8
MAKE2D$VISIBLE$LINES
 10
789.2033398365086
 20
2193.62740996041
 30
0.0
 11
789.4745225124639
 21
2194.040509044962
 31
0.0
  0
LINE
  5
153
  8
MAKE2D$VISIBLE$LINES
 10
789.4745225124639
 20
2194.040509044962
 30
0.0
 11
789.7370540689643
 21
2194.462285030293
 31
0.0
  0
LINE
  5
154
  8
MAKE2D$VISIBLE$LINES
 10
789.7370540689643
 20
2194.462285030293
 30
0.0
 11
789.9907002671356
 21
2194.892285982825
 31
0.0
  0
LINE
  5
155
  8
MAKE2D$VISIBLE$LINES
 10
789.9907002671356
 20
2194.892285982825
 30
0.0
 11
790.235245853728
 21
2195.330045821817
 31
0.0
  0
LINE
  5
156
  8
MAKE2D$VISIBLE$LINES
 10
790.235245853728
 20
2195.330045821817
 30
0.0
 11
790.4704951405264
 21
2195.775085973158
 31
0.0
  0
LINE
  5
157
  8
MAKE2D$VISIBLE$LINES
 10
790.4704951405264
 20
2195.775085973158
 30
0.0
 11
790.6962724807089
 21
2196.226917069447
 31
0.0
  0
LINE
  5
158
  8
MAKE2D$VISIBLE$LINES
 10
790.6962724807089
 20
2196.226917069447
 30
0.0
 11
790.9124226401227
 21
2196.685040683956
 31
0.0
  0
LINE
  5
159
  8
MAKE2D$VISIBLE$LINES
 10
790.9124226401227
 20
2196.685040683956
 30
0.0
 11
791.1188110624389
 21
2197.148951085967
 31
0.0
  0
LINE
  5
15A
  8
MAKE2D$VISIBLE$LINES
 10
791.1188110624389
 20
2197.148951085967
 30
0.0
 11
791.3153240281498
 21
2197.618137004975
 31
0.0
  0
LINE
  5
15B
  8
MAKE2D$VISIBLE$LINES
 10
791.3153240281498
 20
2197.618137004975
 30
0.0
 11
791.5018687083472
 21
2198.092083391467
 31
0.0
  0
LINE
  5
15C
  8
MAKE2D$VISIBLE$LINES
 10
791.5018687083472
 20
2198.092083391467
 30
0.0
 11
791.6783731151555
 21
2198.57027316226
 31
0.0
  0
LINE
  5
15D
  8
MAKE2D$VISIBLE$LINES
 10
791.6783731151555
 20
2198.57027316226
 30
0.0
 11
791.8447859515937
 21
2199.05218891885
 31
0.0
  0
LINE
  5
15E
  8
MAKE2D$VISIBLE$LINES
 10
791.8447859515937
 20
2199.05218891885
 30
0.0
 11
792.0010763644669
 21
2199.537314627801
 31
0.0
  0
LINE
  5
15F
  8
MAKE2D$VISIBLE$LINES
 10
792.0010763644669
 20
2199.537314627801
 30
0.0
 11
792.1472336046561
 21
2200.025137252848
 31
0.0
  0
LINE
  5
160
  8
MAKE2D$VISIBLE$LINES
 10
792.1472336046561
 20
2200.025137252848
 30
0.0
 11
792.2832665998606
 21
2200.515148329202
 31
0.0
  0
LINE
  5
161
  8
MAKE2D$VISIBLE$LINES
 10
792.2832665998606
 20
2200.515148329202
 30
0.0
 11
792.4092034454488
 21
2201.006845471359
 31
0.0
  0
LINE
  5
162
  8
MAKE2D$VISIBLE$LINES
 10
792.4092034454488
 20
2201.006845471359
 30
0.0
 11
792.5250908195915
 21
2201.499733806659
 31
0.0
  0
LINE
  5
163
  8
MAKE2D$VISIBLE$LINES
 10
792.5250908195915
 20
2201.499733806659
 30
0.0
 11
792.6309933292629
 21
2201.993327327786
 31
0.0
  0
LINE
  5
164
  8
MAKE2D$VISIBLE$LINES
 10
792.6309933292629
 20
2201.993327327786
 30
0.0
 11
792.7269927940354
 21
2202.487150158401
 31
0.0
  0
LINE
  5
165
  8
MAKE2D$VISIBLE$LINES
 10
792.7269927940354
 20
2202.487150158401
 30
0.0
 11
792.8131874748159
 21
2202.980737727133
 31
0.0
  0
LINE
  5
166
  8
MAKE2D$VISIBLE$LINES
 10
792.8131874748159
 20
2202.980737727133
 30
0.0
 11
792.8896912548227
 21
2203.47363784612
 31
0.0
  0
LINE
  5
167
  8
MAKE2D$VISIBLE$LINES
 10
792.8896912548227
 20
2203.47363784612
 30
0.0
 11
792.9566327801557
 21
2203.965411691361
 31
0.0
  0
LINE
  5
168
  8
MAKE2D$VISIBLE$LINES
 10
792.9566327801557
 20
2203.965411691361
 30
0.0
 11
793.0141545672791
 21
2204.455634683048
 31
0.0
  0
LINE
  5
169
  8
MAKE2D$VISIBLE$LINES
 10
793.0141545672791
 20
2204.455634683048
 30
0.0
 11
793.0624120846352
 21
2204.943897265038
 31
0.0
  0
LINE
  5
16A
  8
MAKE2D$VISIBLE$LINES
 10
793.0624120846352
 20
2204.943897265038
 30
0.0
 11
793.1015728154256
 21
2205.429805583491
 31
0.0
  0
LINE
  5
16B
  8
MAKE2D$VISIBLE$LINES
 10
793.1015728154256
 20
2205.429805583491
 30
0.0
 11
793.1318153083595
 21
2205.912982065542
 31
0.0
  0
LINE
  5
16C
  8
MAKE2D$VISIBLE$LINES
 10
793.1318153083595
 20
2205.912982065542
 30
0.0
 11
793.1533282228621
 21
2206.393065899659
 31
0.0
  0
LINE
  5
16D
  8
MAKE2D$VISIBLE$LINES
 10
793.1533282228621
 20
2206.393065899659
 30
0.0
 11
793.1663093748992
 21
2206.869713420025
 31
0.0
  0
LINE
  5
16E
  8
MAKE2D$VISIBLE$LINES
 10
793.1663093748992
 20
2206.869713420025
 30
0.0
 11
793.1675077630639
 21
2207.811412243668
 31
0.0
  0
LINE
  5
16F
  8
MAKE2D$VISIBLE$LINES
 10
793.1675077630639
 20
2207.811412243668
 30
0.0
 11
792.9653511910597
 21
2220.490966986198
 31
0.0
  0
LINE
  5
170
  8
MAKE2D$VISIBLE$LINES
 10
792.9653511910597
 20
2220.490966986198
 30
0.0
 11
803.4188978154118
 21
2220.655056061205
 31
0.0
  0
LINE
  5
171
  8
MAKE2D$VISIBLE$LINES
 10
788.0369281496862
 20
2212.479730064659
 30
0.0
 11
789.0177958822162
 21
2212.289933842432
 31
0.0
  0
LINE
  5
172
  8
MAKE2D$VISIBLE$LINES
 10
789.0177958822162
 20
2212.289933842432
 30
0.0
 11
789.3163211242705
 21
2193.796863917551
 31
0.0
  0
LINE
  5
173
  8
MAKE2D$VISIBLE$LINES
 10
785.950488955632
 20
2189.949083021166
 30
0.0
 11
785.5836046604077
 21
2212.443483189864
 31
0.0
  0
LINE
  5
174
  8
MAKE2D$VISIBLE$LINES
 10
785.5836046604077
 20
2212.443483189864
 30
0.0
 11
788.0369281496862
 21
2212.479730064659
 31
0.0
  0
LINE
  5
175
  8
MAKE2D$VISIBLE$LINES
 10
788.0369281496862
 20
2212.479730064659
 30
0.0
 11
788.3608856086785
 21
2192.47033464555
 31
0.0
  0
LINE
  5
176
  8
MAKE2D$VISIBLE$LINES
 10
804.3720924714771
 20
2169.946471364962
 30
0.0
 11
804.2011558407364
 21
2169.969038596064
 31
0.0
  0
LINE
  5
177
  8
MAKE2D$VISIBLE$LINES
 10
804.2011558407364
 20
2169.969038596064
 30
0.0
 11
806.8122746610894
 21
2169.994663995861
 31
0.0
  0
LINE
  5
178
  8
MAKE2D$VISIBLE$LINES
 10
806.8122746610894
 20
2169.994663995861
 30
0.0
 11
806.9825661240405
 21
2169.972083089049
 31
0.0
  0
LINE
  5
179
  8
MAKE2D$VISIBLE$LINES
 10
748.6268429974116
 20
2169.399546883527
 30
0.0
 11
748.4422299334603
 21
2169.421823066276
 31
0.0
  0
LINE
  5
17A
  8
MAKE2D$VISIBLE$LINES
 10
748.4422299334603
 20
2169.421823066276
 30
0.0
 11
751.0196637928891
 21
2169.447117883418
 31
0.0
  0
LINE
  5
17B
  8
MAKE2D$VISIBLE$LINES
 10
751.0196637928891
 20
2169.447117883418
 30
0.0
 11
804.2011558407364
 21
2169.969038596064
 31
0.0
  0
LINE
  5
17C
  8
MAKE2D$VISIBLE$LINES
 10
804.2011558407364
 20
2169.969038596064
 30
0.0
 11
803.4188978154118
 21
2220.655056061205
 31
0.0
  0
LINE
  5
17D
  8
MAKE2D$VISIBLE$LINES
 10
803.4188978154118
 20
2220.655056061205
 30
0.0
 11
806.0362534887211
 21
2220.696140631526
 31
0.0
  0
LINE
  5
17E
  8
MAKE2D$VISIBLE$LINES
 10
806.0362534887211
 20
2220.696140631526
 30
0.0
 11
806.8122746610894
 21
2169.994663995861
 31
0.0
  0
LINE
  5
17F
  8
MAKE2D$VISIBLE$LINES
 10
748.4422299334603
 20
2169.421823066276
 30
0.0
 11
747.5277259306366
 21
2219.7777336533
 31
0.0
  0
LINE
  5
180
  8
MAKE2D$VISIBLE$LINES
 10
747.5277259306366
 20
2219.7777336533
 30
0.0
 11
750.1112332865372
 21
2219.818286907381
 31
0.0
  0
LINE
  5
181
  8
MAKE2D$VISIBLE$LINES
 10
750.1112332865372
 20
2219.818286907381
 30
0.0
 11
751.0196637928891
 21
2169.447117883418
 31
0.0
  0
LINE
  5
182
  8
MAKE2D$VISIBLE$LINES
 10
927.5046127336441
 20
2222.602826603984
 30
0.0
 11
927.9868742974235
 21
2171.183865933629
 31
0.0
  0
LINE
  5
183
  8
MAKE2D$VISIBLE$LINES
 10
927.9868742974235
 20
2171.183865933629
 30
0.0
 11
928.1267610331691
 21
2171.160645820467
 31
0.0
  0
LINE
  5
184
  8
MAKE2D$VISIBLE$LINES
 10
873.4251819987483
 20
2170.623960936488
 30
0.0
 11
873.2714536868154
 21
2170.646891316744
 31
0.0
  0
LINE
  5
185
  8
MAKE2D$VISIBLE$LINES
 10
873.2714536868154
 20
2170.646891316744
 30
0.0
 11
872.6554988020935
 21
2221.741861355214
 31
0.0
  0
LINE
  5
186
  8
MAKE2D$VISIBLE$LINES
 10
916.829813116428
 20
2214.175270150265
 30
0.0
 11
905.1314990447338
 21
2214.002710036301
 31
0.0
  0
LINE
  5
187
  8
MAKE2D$VISIBLE$LINES
 10
905.1314990447338
 20
2214.002710036301
 30
0.0
 11
905.393112725935
 21
2189.027209055851
 31
0.0
  0
LINE
  5
188
  8
MAKE2D$VISIBLE$LINES
 10
930.1979037977112
 20
2222.645103130344
 30
0.0
 11
916.74802010854
 21
2222.433980623045
 31
0.0
  0
LINE
  5
189
  8
MAKE2D$VISIBLE$LINES
 10
916.74802010854
 20
2222.433980623045
 30
0.0
 11
916.875413523346
 21
2209.570957778069
 31
0.0
  0
LINE
  5
18A
  8
MAKE2D$VISIBLE$LINES
 10
916.875413523346
 20
2209.570957778069
 30
0.0
 11
916.8759902567101
 21
2209.095363945655
 31
0.0
  0
LINE
  5
18B
  8
MAKE2D$VISIBLE$LINES
 10
916.8759902567101
 20
2209.095363945655
 30
0.0
 11
916.8681945263517
 21
2208.615638762578
 31
0.0
  0
LINE
  5
18C
  8
MAKE2D$VISIBLE$LINES
 10
916.8681945263517
 20
2208.615638762578
 30
0.0
 11
916.8518088495288
 21
2208.132095265828
 31
0.0
  0
LINE
  5
18D
  8
MAKE2D$VISIBLE$LINES
 10
916.8518088495288
 20
2208.132095265828
 30
0.0
 11
916.8266233393612
 21
2207.645064388153
 31
0.0
  0
LINE
  5
18E
  8
MAKE2D$VISIBLE$LINES
 10
916.8266233393612
 20
2207.645064388153
 30
0.0
 11
916.7924366666658
 21
2207.154894753257
 31
0.0
  0
LINE
  5
18F
  8
MAKE2D$VISIBLE$LINES
 10
916.7924366666658
 20
2207.154894753257
 30
0.0
 11
916.7490570332803
 21
2206.661952380243
 31
0.0
  0
LINE
  5
190
  8
MAKE2D$VISIBLE$LINES
 10
916.7490570332803
 20
2206.661952380243
 30
0.0
 11
916.6963031513457
 21
2206.166620293689
 31
0.0
  0
LINE
  5
191
  8
MAKE2D$VISIBLE$LINES
 10
916.6963031513457
 20
2206.166620293689
 30
0.0
 11
916.6340052226025
 21
2205.66929803638
 31
0.0
  0
LINE
  5
192
  8
MAKE2D$VISIBLE$LINES
 10
916.6340052226025
 20
2205.66929803638
 30
0.0
 11
916.5620059113553
 21
2205.170401082272
 31
0.0
  0
LINE
  5
193
  8
MAKE2D$VISIBLE$LINES
 10
916.5620059113553
 20
2205.170401082272
 30
0.0
 11
916.480161304407
 21
2204.670360148047
 31
0.0
  0
LINE
  5
194
  8
MAKE2D$VISIBLE$LINES
 10
916.480161304407
 20
2204.670360148047
 30
0.0
 11
916.3883418509666
 21
2204.169620402363
 31
0.0
  0
LINE
  5
195
  8
MAKE2D$VISIBLE$LINES
 10
916.3883418509666
 20
2204.169620402363
 30
0.0
 11
916.2864332752898
 21
2203.668640572781
 31
0.0
  0
LINE
  5
196
  8
MAKE2D$VISIBLE$LINES
 10
916.2864332752898
 20
2203.668640572781
 30
0.0
 11
916.1743374546274
 21
2203.167891951217
 31
0.0
  0
LINE
  5
197
  8
MAKE2D$VISIBLE$LINES
 10
916.1743374546274
 20
2203.167891951217
 30
0.0
 11
916.0519732549661
 21
2202.66785729977
 31
0.0
  0
LINE
  5
198
  8
MAKE2D$VISIBLE$LINES
 10
916.0519732549661
 20
2202.66785729977
 30
0.0
 11
915.9192773170086
 21
2202.169029659726
 31
0.0
  0
LINE
  5
199
  8
MAKE2D$VISIBLE$LINES
 10
915.9192773170086
 20
2202.169029659726
 30
0.0
 11
915.7762047849163
 21
2201.671911067572
 31
0.0
  0
LINE
  5
19A
  8
MAKE2D$VISIBLE$LINES
 10
915.7762047849163
 20
2201.671911067572
 30
0.0
 11
915.6227299704816
 21
2201.177011182891
 31
0.0
  0
LINE
  5
19B
  8
MAKE2D$VISIBLE$LINES
 10
915.6227299704816
 20
2201.177011182891
 30
0.0
 11
915.4588469456475
 21
2200.684845834021
 31
0.0
  0
LINE
  5
19C
  8
MAKE2D$VISIBLE$LINES
 10
915.4588469456475
 20
2200.684845834021
 30
0.0
 11
915.2845700566412
 21
2200.195935488374
 31
0.0
  0
LINE
  5
19D
  8
MAKE2D$VISIBLE$LINES
 10
915.2845700566412
 20
2200.195935488374
 30
0.0
 11
915.0999343534182
 21
2199.710803655312
 31
0.0
  0
LINE
  5
19E
  8
MAKE2D$VISIBLE$LINES
 10
915.0999343534182
 20
2199.710803655312
 30
0.0
 11
914.9049959286547
 21
2199.229975230363
 31
0.0
  0
LINE
  5
19F
  8
MAKE2D$VISIBLE$LINES
 10
914.9049959286547
 20
2199.229975230363
 30
0.0
 11
914.6998321611516
 21
2198.753974790476
 31
0.0
  0
LINE
  5
1A0
  8
MAKE2D$VISIBLE$LINES
 10
914.6998321611516
 20
2198.753974790476
 30
0.0
 11
914.4845418592193
 21
2198.283324850741
 31
0.0
  0
LINE
  5
1A1
  8
MAKE2D$VISIBLE$LINES
 10
914.4845418592193
 20
2198.283324850741
 30
0.0
 11
914.2592453004125
 21
2197.818544093748
 31
0.0
  0
LINE
  5
1A2
  8
MAKE2D$VISIBLE$LINES
 10
914.2592453004125
 20
2197.818544093748
 30
0.0
 11
914.0240841648315
 21
2197.360145583276
 31
0.0
  0
LINE
  5
1A3
  8
MAKE2D$VISIBLE$LINES
 10
914.0240841648315
 20
2197.360145583276
 30
0.0
 11
913.7792213601472
 21
2196.908634974506
 31
0.0
  0
LINE
  5
1A4
  8
MAKE2D$VISIBLE$LINES
 10
913.7792213601472
 20
2196.908634974506
 30
0.0
 11
913.5248407374542
 21
2196.464508733233
 31
0.0
  0
LINE
  5
1A5
  8
MAKE2D$VISIBLE$LINES
 10
913.5248407374542
 20
2196.464508733233
 30
0.0
 11
913.2611466980843
 21
2196.02825237677
 31
0.0
  0
LINE
  5
1A6
  8
MAKE2D$VISIBLE$LINES
 10
913.2611466980843
 20
2196.02825237677
 30
0.0
 11
912.9883636925133
 21
2195.600338749219
 31
0.0
  0
LINE
  5
1A7
  8
MAKE2D$VISIBLE$LINES
 10
912.9883636925133
 20
2195.600338749219
 30
0.0
 11
912.7067356135485
 21
2195.18122634371
 31
0.0
  0
LINE
  5
1A8
  8
MAKE2D$VISIBLE$LINES
 10
912.7067356135485
 20
2195.18122634371
 30
0.0
 11
912.4165250869872
 21
2194.771357683883
 31
0.0
  0
LINE
  5
1A9
  8
MAKE2D$VISIBLE$LINES
 10
912.4165250869872
 20
2194.771357683883
 30
0.0
 11
912.1180126639474
 21
2194.371157776505
 31
0.0
  0
LINE
  5
1AA
  8
MAKE2D$VISIBLE$LINES
 10
912.1180126639474
 20
2194.371157776505
 30
0.0
 11
911.8114959200103
 21
2193.981032646488
 31
0.0
  0
LINE
  5
1AB
  8
MAKE2D$VISIBLE$LINES
 10
911.8114959200103
 20
2193.981032646488
 30
0.0
 11
911.4972884672363
 21
2193.601367964904
 31
0.0
  0
LINE
  5
1AC
  8
MAKE2D$VISIBLE$LINES
 10
911.4972884672363
 20
2193.601367964904
 30
0.0
 11
911.1757188859251
 21
2193.232527779704
 31
0.0
  0
LINE
  5
1AD
  8
MAKE2D$VISIBLE$LINES
 10
911.1757188859251
 20
2193.232527779704
 30
0.0
 11
910.8471295837553
 21
2192.87485335791
 31
0.0
  0
LINE
  5
1AE
  8
MAKE2D$VISIBLE$LINES
 10
910.8471295837553
 20
2192.87485335791
 30
0.0
 11
910.511875590583
 21
2192.528662146962
 31
0.0
  0
LINE
  5
1AF
  8
MAKE2D$VISIBLE$LINES
 10
910.511875590583
 20
2192.528662146962
 30
0.0
 11
910.1703232977442
 21
2192.194246861756
 31
0.0
  0
LINE
  5
1B0
  8
MAKE2D$VISIBLE$LINES
 10
910.1703232977442
 20
2192.194246861756
 30
0.0
 11
909.8228491511333
 21
2191.871874702676
 31
0.0
  0
LINE
  5
1B1
  8
MAKE2D$VISIBLE$LINES
 10
909.8228491511333
 20
2191.871874702676
 30
0.0
 11
909.4698383076712
 21
2191.561786708655
 31
0.0
  0
LINE
  5
1B2
  8
MAKE2D$VISIBLE$LINES
 10
909.4698383076712
 20
2191.561786708655
 30
0.0
 11
909.1116832649734
 21
2191.264197247976
 31
0.0
  0
LINE
  5
1B3
  8
MAKE2D$VISIBLE$LINES
 10
909.1116832649734
 20
2191.264197247976
 30
0.0
 11
908.7487824741246
 21
2190.979293648251
 31
0.0
  0
LINE
  5
1B4
  8
MAKE2D$VISIBLE$LINES
 10
908.7487824741246
 20
2190.979293648251
 30
0.0
 11
908.3815389454294
 21
2190.707235965635
 31
0.0
  0
LINE
  5
1B5
  8
MAKE2D$VISIBLE$LINES
 10
908.3815389454294
 20
2190.707235965635
 30
0.0
 11
908.0103588568662
 21
2190.448156892141
 31
0.0
  0
LINE
  5
1B6
  8
MAKE2D$VISIBLE$LINES
 10
908.0103588568662
 20
2190.448156892141
 30
0.0
 11
907.63565017471
 21
2190.202161798617
 31
0.0
  0
LINE
  5
1B7
  8
MAKE2D$VISIBLE$LINES
 10
907.63565017471
 20
2190.202161798617
 30
0.0
 11
907.2578212954348
 21
2189.969328909814
 31
0.0
  0
LINE
  5
1B8
  8
MAKE2D$VISIBLE$LINES
 10
907.2578212954348
 20
2189.969328909814
 30
0.0
 11
906.8772797175461
 21
2189.749709606883
 31
0.0
  0
LINE
  5
1B9
  8
MAKE2D$VISIBLE$LINES
 10
906.8772797175461
 20
2189.749709606883
 30
0.0
 11
906.4944307514571
 21
2189.543328851609
 31
0.0
  0
LINE
  5
1BA
  8
MAKE2D$VISIBLE$LINES
 10
906.4944307514571
 20
2189.543328851609
 30
0.0
 11
906.1096762749078
 21
2189.350185725835
 31
0.0
  0
LINE
  5
1BB
  8
MAKE2D$VISIBLE$LINES
 10
906.1096762749078
 20
2189.350185725835
 30
0.0
 11
905.7234135407476
 21
2189.170254078688
 31
0.0
  0
LINE
  5
1BC
  8
MAKE2D$VISIBLE$LINES
 10
905.7234135407476
 20
2189.170254078688
 30
0.0
 11
905.336034043185
 21
2189.00348327361
 31
0.0
  0
LINE
  5
1BD
  8
MAKE2D$VISIBLE$LINES
 10
905.336034043185
 20
2189.00348327361
 30
0.0
 11
904.9479224478355
 21
2188.849799026576
 31
0.0
  0
LINE
  5
1BE
  8
MAKE2D$VISIBLE$LINES
 10
904.9479224478355
 20
2188.849799026576
 30
0.0
 11
904.5594555901213
 21
2188.709104326515
 31
0.0
  0
LINE
  5
1BF
  8
MAKE2D$VISIBLE$LINES
 10
904.5594555901213
 20
2188.709104326515
 30
0.0
 11
904.1710015457754
 21
2188.581280428597
 31
0.0
  0
LINE
  5
1C0
  8
MAKE2D$VISIBLE$LINES
 10
904.1710015457754
 20
2188.581280428597
 30
0.0
 11
903.7829187764007
 21
2188.466187910879
 31
0.0
  0
LINE
  5
1C1
  8
MAKE2D$VISIBLE$LINES
 10
903.7829187764007
 20
2188.466187910879
 30
0.0
 11
903.3955553522541
 21
2188.363667784748
 31
0.0
  0
LINE
  5
1C2
  8
MAKE2D$VISIBLE$LINES
 10
903.3955553522541
 20
2188.363667784748
 30
0.0
 11
903.0092482536498
 21
2188.273542649583
 31
0.0
  0
LINE
  5
1C3
  8
MAKE2D$VISIBLE$LINES
 10
903.0092482536498
 20
2188.273542649583
 30
0.0
 11
902.6243227516495
 21
2188.195617882249
 31
0.0
  0
LINE
  5
1C4
  8
MAKE2D$VISIBLE$LINES
 10
902.6243227516495
 20
2188.195617882249
 30
0.0
 11
902.2410918679948
 21
2188.129682852245
 31
0.0
  0
LINE
  5
1C5
  8
MAKE2D$VISIBLE$LINES
 10
902.2410918679948
 20
2188.129682852245
 30
0.0
 11
901.8598559135961
 21
2188.075512153616
 31
0.0
  0
LINE
  5
1C6
  8
MAKE2D$VISIBLE$LINES
 10
901.8598559135961
 20
2188.075512153616
 30
0.0
 11
901.4809021042735
 21
2188.032866845176
 31
0.0
  0
LINE
  5
1C7
  8
MAKE2D$VISIBLE$LINES
 10
901.4809021042735
 20
2188.032866845176
 30
0.0
 11
901.1045042519092
 21
2188.001495690984
 31
0.0
  0
LINE
  5
1C8
  8
MAKE2D$VISIBLE$LINES
 10
901.1045042519092
 20
2188.001495690984
 30
0.0
 11
900.7309225286623
 21
2187.981136393561
 31
0.0
  0
LINE
  5
1C9
  8
MAKE2D$VISIBLE$LINES
 10
900.7309225286623
 20
2187.981136393561
 30
0.0
 11
900.3604033014769
 21
2187.971516812855
 31
0.0
  0
LINE
  5
1CA
  8
MAKE2D$VISIBLE$LINES
 10
900.3604033014769
 20
2187.971516812855
 30
0.0
 11
899.9898028653362
 21
2187.97241177657
 31
0.0
  0
LINE
  5
1CB
  8
MAKE2D$VISIBLE$LINES
 10
899.9898028653362
 20
2187.97241177657
 30
0.0
 11
899.6159745825158
 21
2187.983969679421
 31
0.0
  0
LINE
  5
1CC
  8
MAKE2D$VISIBLE$LINES
 10
899.6159745825158
 20
2187.983969679421
 30
0.0
 11
899.2391604467397
 21
2188.0064655541
 31
0.0
  0
LINE
  5
1CD
  8
MAKE2D$VISIBLE$LINES
 10
899.2391604467397
 20
2188.0064655541
 30
0.0
 11
898.8596162997799
 21
2188.040164786627
 31
0.0
  0
LINE
  5
1CE
  8
MAKE2D$VISIBLE$LINES
 10
898.8596162997799
 20
2188.040164786627
 30
0.0
 11
898.4776116769428
 21
2188.085321903682
 31
0.0
  0
LINE
  5
1CF
  8
MAKE2D$VISIBLE$LINES
 10
898.4776116769428
 20
2188.085321903682
 30
0.0
 11
898.0934295828881
 21
2188.142179345604
 31
0.0
  0
LINE
  5
1D0
  8
MAKE2D$VISIBLE$LINES
 10
898.0934295828881
 20
2188.142179345604
 30
0.0
 11
897.7073661950004
 21
2188.210966231991
 31
0.0
  0
LINE
  5
1D1
  8
MAKE2D$VISIBLE$LINES
 10
897.7073661950004
 20
2188.210966231991
 30
0.0
 11
897.3197304919806
 21
2188.291897127353
 31
0.0
  0
LINE
  5
1D2
  8
MAKE2D$VISIBLE$LINES
 10
897.3197304919806
 20
2188.291897127353
 30
0.0
 11
896.9308438057934
 21
2188.38517081478
 31
0.0
  0
LINE
  5
1D3
  8
MAKE2D$VISIBLE$LINES
 10
896.9308438057934
 20
2188.38517081478
 30
0.0
 11
896.5410392956647
 21
2188.490969086026
 31
0.0
  0
LINE
  5
1D4
  8
MAKE2D$VISIBLE$LINES
 10
896.5410392956647
 20
2188.490969086026
 30
0.0
 11
896.1506613434144
 21
2188.609455556761
 31
0.0
  0
LINE
  5
1D5
  8
MAKE2D$VISIBLE$LINES
 10
896.1506613434144
 20
2188.609455556761
 30
0.0
 11
895.7600648700536
 21
2188.740774516092
 31
0.0
  0
LINE
  5
1D6
  8
MAKE2D$VISIBLE$LINES
 10
895.7600648700536
 20
2188.740774516092
 30
0.0
 11
895.3696145742734
 21
2188.885049819646
 31
0.0
  0
LINE
  5
1D7
  8
MAKE2D$VISIBLE$LINES
 10
895.3696145742734
 20
2188.885049819646
 30
0.0
 11
894.9796840941716
 21
2189.042383835647
 31
0.0
  0
LINE
  5
1D8
  8
MAKE2D$VISIBLE$LINES
 10
894.9796840941716
 20
2189.042383835647
 30
0.0
 11
894.5906550943247
 21
2189.212856453448
 31
0.0
  0
LINE
  5
1D9
  8
MAKE2D$VISIBLE$LINES
 10
894.5906550943247
 20
2189.212856453448
 30
0.0
 11
894.2029162810886
 21
2189.396524163914
 31
0.0
  0
LINE
  5
1DA
  8
MAKE2D$VISIBLE$LINES
 10
894.2029162810886
 20
2189.396524163914
 30
0.0
 11
893.8168623497977
 21
2189.59341922085
 31
0.0
  0
LINE
  5
1DB
  8
MAKE2D$VISIBLE$LINES
 10
893.8168623497977
 20
2189.59341922085
 30
0.0
 11
893.4328928683175
 21
2189.803548892355
 31
0.0
  0
LINE
  5
1DC
  8
MAKE2D$VISIBLE$LINES
 10
893.4328928683175
 20
2189.803548892355
 30
0.0
 11
893.0514111021864
 21
2190.026894810591
 31
0.0
  0
LINE
  5
1DD
  8
MAKE2D$VISIBLE$LINES
 10
893.0514111021864
 20
2190.026894810591
 30
0.0
 11
892.6728227873235
 21
2190.263412427863
 31
0.0
  0
LINE
  5
1DE
  8
MAKE2D$VISIBLE$LINES
 10
892.6728227873235
 20
2190.263412427863
 30
0.0
 11
892.297534857003
 21
2190.513030586279
 31
0.0
  0
LINE
  5
1DF
  8
MAKE2D$VISIBLE$LINES
 10
892.297534857003
 20
2190.513030586279
 30
0.0
 11
891.9259541304551
 21
2190.775651207469
 31
0.0
  0
LINE
  5
1E0
  8
MAKE2D$VISIBLE$LINES
 10
891.9259541304551
 20
2190.775651207469
 30
0.0
 11
891.558485971062
 21
2191.051149107937
 31
0.0
  0
LINE
  5
1E1
  8
MAKE2D$VISIBLE$LINES
 10
891.558485971062
 20
2191.051149107937
 30
0.0
 11
891.1955329226488
 21
2191.339371944683
 31
0.0
  0
LINE
  5
1E2
  8
MAKE2D$VISIBLE$LINES
 10
891.1955329226488
 20
2191.339371944683
 30
0.0
 11
890.8374933328173
 21
2191.640140294598
 31
0.0
  0
LINE
  5
1E3
  8
MAKE2D$VISIBLE$LINES
 10
890.8374933328173
 20
2191.640140294598
 30
0.0
 11
890.4847599726327
 21
2191.953247870035
 31
0.0
  0
LINE
  5
1E4
  8
MAKE2D$VISIBLE$LINES
 10
890.4847599726327
 20
2191.953247870035
 30
0.0
 11
890.1377186622174
 21
2192.278461871711
 31
0.0
  0
LINE
  5
1E5
  8
MAKE2D$VISIBLE$LINES
 10
890.1377186622174
 20
2192.278461871711
 30
0.0
 11
889.796746911973
 21
2192.615523478884
 31
0.0
  0
LINE
  5
1E6
  8
MAKE2D$VISIBLE$LINES
 10
889.796746911973
 20
2192.615523478884
 30
0.0
 11
889.4622125891603
 21
2192.964148475415
 31
0.0
  0
LINE
  5
1E7
  8
MAKE2D$VISIBLE$LINES
 10
889.4622125891603
 20
2192.964148475415
 30
0.0
 11
889.1344726195108
 21
2193.324028009074
 31
0.0
  0
LINE
  5
1E8
  8
MAKE2D$VISIBLE$LINES
 10
889.1344726195108
 20
2193.324028009074
 30
0.0
 11
888.813871733319
 21
2193.694829480146
 31
0.0
  0
LINE
  5
1E9
  8
MAKE2D$VISIBLE$LINES
 10
888.813871733319
 20
2193.694829480146
 30
0.0
 11
888.5007412651746
 21
2194.076197554175
 31
0.0
  0
LINE
  5
1EA
  8
MAKE2D$VISIBLE$LINES
 10
888.5007412651746
 20
2194.076197554175
 30
0.0
 11
888.1953980160386
 21
2194.467755292419
 31
0.0
  0
LINE
  5
1EB
  8
MAKE2D$VISIBLE$LINES
 10
888.1953980160386
 20
2194.467755292419
 30
0.0
 11
887.8981431858549
 21
2194.869105392555
 31
0.0
  0
LINE
  5
1EC
  8
MAKE2D$VISIBLE$LINES
 10
887.8981431858549
 20
2194.869105392555
 30
0.0
 11
887.6092613842299
 21
2195.279831531002
 31
0.0
  0
LINE
  5
1ED
  8
MAKE2D$VISIBLE$LINES
 10
887.6092613842299
 20
2195.279831531002
 30
0.0
 11
887.3290197260022
 21
2195.699499797426
 31
0.0
  0
LINE
  5
1EE
  8
MAKE2D$VISIBLE$LINES
 10
887.3290197260022
 20
2195.699499797426
 30
0.0
 11
887.057667017704
 21
2196.127660211013
 31
0.0
  0
LINE
  5
1EF
  8
MAKE2D$VISIBLE$LINES
 10
887.057667017704
 20
2196.127660211013
 30
0.0
 11
886.7954330400448
 21
2196.563848307524
 31
0.0
  0
LINE
  5
1F0
  8
MAKE2D$VISIBLE$LINES
 10
886.7954330400448
 20
2196.563848307524
 30
0.0
 11
886.5425279306127
 21
2197.007586785478
 31
0.0
  0
LINE
  5
1F1
  8
MAKE2D$VISIBLE$LINES
 10
886.5425279306127
 20
2197.007586785478
 30
0.0
 11
886.2991416700231
 21
2197.458387199455
 31
0.0
  0
LINE
  5
1F2
  8
MAKE2D$VISIBLE$LINES
 10
886.2991416700231
 20
2197.458387199455
 30
0.0
 11
886.065443673742
 21
2197.915751688192
 31
0.0
  0
LINE
  5
1F3
  8
MAKE2D$VISIBLE$LINES
 10
886.065443673742
 20
2197.915751688192
 30
0.0
 11
885.8415824908079
 21
2198.379174725064
 31
0.0
  0
LINE
  5
1F4
  8
MAKE2D$VISIBLE$LINES
 10
885.8415824908079
 20
2198.379174725064
 30
0.0
 11
885.6276856096748
 21
2198.848144878498
 31
0.0
  0
LINE
  5
1F5
  8
MAKE2D$VISIBLE$LINES
 10
885.6276856096748
 20
2198.848144878498
 30
0.0
 11
885.4238593704171
 21
2199.322146570141
 31
0.0
  0
LINE
  5
1F6
  8
MAKE2D$VISIBLE$LINES
 10
885.4238593704171
 20
2199.322146570141
 30
0.0
 11
885.2301889815851
 21
2199.80066181879
 31
0.0
  0
LINE
  5
1F7
  8
MAKE2D$VISIBLE$LINES
 10
885.2301889815851
 20
2199.80066181879
 30
0.0
 11
885.046738639105
 21
2200.283171958636
 31
0.0
  0
LINE
  5
1F8
  8
MAKE2D$VISIBLE$LINES
 10
885.046738639105
 20
2200.283171958636
 30
0.0
 11
884.8735517437632
 21
2200.769159320863
 31
0.0
  0
LINE
  5
1F9
  8
MAKE2D$VISIBLE$LINES
 10
884.8735517437632
 20
2200.769159320863
 30
0.0
 11
884.7106512130473
 21
2201.258108868349
 31
0.0
  0
LINE
  5
1FA
  8
MAKE2D$VISIBLE$LINES
 10
884.7106512130473
 20
2201.258108868349
 30
0.0
 11
884.5580398824083
 21
2201.749509773938
 31
0.0
  0
LINE
  5
1FB
  8
MAKE2D$VISIBLE$LINES
 10
884.5580398824083
 20
2201.749509773938
 30
0.0
 11
884.4157009903976
 21
2202.242856933641
 31
0.0
  0
LINE
  5
1FC
  8
MAKE2D$VISIBLE$LINES
 10
884.4157009903976
 20
2202.242856933641
 30
0.0
 11
884.2835987415979
 21
2202.737652406959
 31
0.0
  0
LINE
  5
1FD
  8
MAKE2D$VISIBLE$LINES
 10
884.2835987415979
 20
2202.737652406959
 30
0.0
 11
884.1616789408366
 21
2203.23340677755
 31
0.0
  0
LINE
  5
1FE
  8
MAKE2D$VISIBLE$LINES
 10
884.1616789408366
 20
2203.23340677755
 30
0.0
 11
884.0498696918182
 21
2203.729640428363
 31
0.0
  0
LINE
  5
1FF
  8
MAKE2D$VISIBLE$LINES
 10
884.0498696918182
 20
2203.729640428363
 30
0.0
 11
883.9480821530689
 21
2204.22588472643
 31
0.0
  0
LINE
  5
200
  8
MAKE2D$VISIBLE$LINES
 10
883.9480821530689
 20
2204.22588472643
 30
0.0
 11
883.8562113439223
 21
2204.721683113458
 31
0.0
  0
LINE
  5
201
  8
MAKE2D$VISIBLE$LINES
 10
883.8562113439223
 20
2204.721683113458
 30
0.0
 11
883.7741369932037
 21
2205.216592099396
 31
0.0
  0
LINE
  5
202
  8
MAKE2D$VISIBLE$LINES
 10
883.7741369932037
 20
2205.216592099396
 30
0.0
 11
883.7017244232843
 21
2205.710182157069
 31
0.0
  0
LINE
  5
203
  8
MAKE2D$VISIBLE$LINES
 10
883.7017244232843
 20
2205.710182157069
 30
0.0
 11
883.6388254622663
 21
2206.202038516949
 31
0.0
  0
LINE
  5
204
  8
MAKE2D$VISIBLE$LINES
 10
883.6388254622663
 20
2206.202038516949
 30
0.0
 11
883.5852793772244
 21
2206.69176186199
 31
0.0
  0
LINE
  5
205
  8
MAKE2D$VISIBLE$LINES
 10
883.5852793772244
 20
2206.69176186199
 30
0.0
 11
883.5409138216526
 21
2207.178968923283
 31
0.0
  0
LINE
  5
206
  8
MAKE2D$VISIBLE$LINES
 10
883.5409138216526
 20
2207.178968923283
 30
0.0
 11
883.5055457905554
 21
2207.663292978058
 31
0.0
  0
LINE
  5
207
  8
MAKE2D$VISIBLE$LINES
 10
883.5055457905554
 20
2207.663292978058
 30
0.0
 11
883.4789825769548
 21
2208.144384252278
 31
0.0
  0
LINE
  5
208
  8
MAKE2D$VISIBLE$LINES
 10
883.4789825769548
 20
2208.144384252278
 30
0.0
 11
883.4514569669346
 21
2209.095555877605
 31
0.0
  0
LINE
  5
209
  8
MAKE2D$VISIBLE$LINES
 10
883.4514569669345
 20
2209.095555877605
 30
0.0
 11
883.3036465595677
 21
2221.909005079621
 31
0.0
  0
LINE
  5
20A
  8
MAKE2D$VISIBLE$LINES
 10
883.3036465595677
 20
2221.909005079621
 30
0.0
 11
869.9975347666509
 21
2221.700139356389
 31
0.0
  0
LINE
  5
20B
  8
MAKE2D$VISIBLE$LINES
 10
869.9975347666509
 20
2221.700139356389
 30
0.0
 11
870.6199246170577
 21
2170.620869332621
 31
0.0
  0
LINE
  5
20C
  8
MAKE2D$VISIBLE$LINES
 10
930.6735561708944
 20
2171.210232905748
 30
0.0
 11
930.1979037977112
 21
2222.645103130344
 31
0.0
  0
LINE
  5
20D
  8
MAKE2D$VISIBLE$LINES
 10
930.1979037977112
 20
2222.645103130344
 30
0.0
 11
931.3503676700791
 21
2222.33773496478
 31
0.0
  0
LINE
  5
20E
  8
MAKE2D$VISIBLE$LINES
 10
905.1314990447338
 20
2214.002710036301
 30
0.0
 11
904.3133904104861
 21
2214.197668358399
 31
0.0
  0
LINE
  5
20F
  8
MAKE2D$VISIBLE$LINES
 10
904.3133904104861
 20
2214.197668358399
 30
0.0
 11
901.7932999816481
 21
2214.160435028736
 31
0.0
  0
LINE
  5
210
  8
MAKE2D$VISIBLE$LINES
 10
901.7932999816481
 20
2214.160435028736
 30
0.0
 11
883.342560184077
 21
2218.535644172453
 31
0.0
  0
LINE
  5
211
  8
MAKE2D$VISIBLE$LINES
 10
870.7743189881346
 20
2170.597952946729
 30
0.0
 11
870.6199246170577
 21
2170.620869332621
 31
0.0
  0
LINE
  5
212
  8
MAKE2D$VISIBLE$LINES
 10
870.6199246170577
 20
2170.620869332621
 30
0.0
 11
930.6735561708944
 21
2171.210232905748
 31
0.0
  0
LINE
  5
213
  8
MAKE2D$VISIBLE$LINES
 10
930.6735561708944
 20
2171.210232905748
 30
0.0
 11
930.8127584721276
 21
2171.186998519042
 31
0.0
  0
LINE
  5
214
  8
MAKE2D$VISIBLE$LINES
 10
843.7860126924688
 20
2188.392855483028
 30
0.0
 11
843.450618823538
 21
2213.263845179473
 31
0.0
  0
LINE
  5
215
  8
MAKE2D$VISIBLE$LINES
 10
843.450618823538
 20
2213.263845179473
 30
0.0
 11
845.936404239251
 21
2213.300561731131
 31
0.0
  0
LINE
  5
216
  8
MAKE2D$VISIBLE$LINES
 10
845.936404239251
 20
2213.300561731131
 30
0.0
 11
846.2504135931667
 21
2189.803918794173
 31
0.0
  0
LINE
  5
217
  8
MAKE2D$VISIBLE$LINES
 10
845.936404239251
 20
2213.300561731131
 30
0.0
 11
846.8365694435176
 21
2213.108307682895
 31
0.0
  0
LINE
  5
218
  8
MAKE2D$VISIBLE$LINES
 10
846.8365694435176
 20
2213.108307682895
 30
0.0
 11
854.6796720884632
 21
2213.223968892438
 31
0.0
  0
LINE
  5
219
  8
MAKE2D$VISIBLE$LINES
 10
741.3819142441274
 20
2160.967824427675
 30
0.0
 11
741.2271554534063
 21
2169.326947508502
 31
0.0
  0
LINE
  5
21A
  8
MAKE2D$VISIBLE$LINES
 10
741.2271554534063
 20
2169.326947508502
 30
0.0
 11
744.4428387551777
 21
2169.358497029561
 31
0.0
  0
LINE
  5
21B
  8
MAKE2D$VISIBLE$LINES
 10
870.0046870786425
 20
2221.113152153735
 30
0.0
 11
867.828682900206
 21
2221.626930585659
 31
0.0
  0
LINE
  5
21C
  8
MAKE2D$VISIBLE$LINES
 10
867.828682900206
 20
2221.626930585659
 30
0.0
 11
868.456140638541
 21
2170.575208972961
 31
0.0
  0
LINE
  5
21D
  8
MAKE2D$VISIBLE$LINES
 10
868.456140638541
 20
2170.575208972961
 30
0.0
 11
809.2680282320881
 21
2169.994506079171
 31
0.0
  0
LINE
  5
21E
  8
MAKE2D$VISIBLE$LINES
 10
809.2680282320881
 20
2169.994506079171
 30
0.0
 11
808.4980977209857
 21
2220.695887447409
 31
0.0
  0
LINE
  5
21F
  8
MAKE2D$VISIBLE$LINES
 10
808.4980977209857
 20
2220.695887447409
 30
0.0
 11
821.6124826100163
 21
2220.901684474801
 31
0.0
  0
LINE
  5
220
  8
MAKE2D$VISIBLE$LINES
 10
821.6124826100163
 20
2220.901684474801
 30
0.0
 11
821.7974792885109
 21
2208.183350545877
 31
0.0
  0
LINE
  5
221
  8
MAKE2D$VISIBLE$LINES
 10
821.7974792885109
 20
2208.183350545877
 30
0.0
 11
821.8275275637641
 21
2207.239233167394
 31
0.0
  0
LINE
  5
222
  8
MAKE2D$VISIBLE$LINES
 10
821.8275275637641
 20
2207.239233167394
 30
0.0
 11
821.8551851034061
 21
2206.761708318203
 31
0.0
  0
LINE
  5
223
  8
MAKE2D$VISIBLE$LINES
 10
821.8551851034061
 20
2206.761708318203
 30
0.0
 11
821.8915308887061
 21
2206.280973625
 31
0.0
  0
LINE
  5
224
  8
MAKE2D$VISIBLE$LINES
 10
821.8915308887061
 20
2206.280973625
 30
0.0
 11
821.9367537881568
 21
2205.797376255171
 31
0.0
  0
LINE
  5
225
  8
MAKE2D$VISIBLE$LINES
 10
821.9367537881568
 20
2205.797376255171
 30
0.0
 11
821.9910330553696
 21
2205.31128020097
 31
0.0
  0
LINE
  5
226
  8
MAKE2D$VISIBLE$LINES
 10
821.9910330553696
 20
2205.31128020097
 30
0.0
 11
822.0545373875026
 21
2204.823065880002
 31
0.0
  0
LINE
  5
227
  8
MAKE2D$VISIBLE$LINES
 10
822.0545373875026
 20
2204.823065880002
 30
0.0
 11
822.127423985374
 21
2204.333129640992
 31
0.0
  0
LINE
  5
228
  8
MAKE2D$VISIBLE$LINES
 10
822.127423985374
 20
2204.333129640992
 30
0.0
 11
822.2098376214101
 21
2203.841883172616
 31
0.0
  0
LINE
  5
229
  8
MAKE2D$VISIBLE$LINES
 10
822.2098376214101
 20
2203.841883172616
 30
0.0
 11
822.301909721901
 21
2203.349752813893
 31
0.0
  0
LINE
  5
22A
  8
MAKE2D$VISIBLE$LINES
 10
822.301909721901
 20
2203.349752813893
 30
0.0
 11
822.4037574703167
 21
2202.857178765355
 31
0.0
  0
LINE
  5
22B
  8
MAKE2D$VISIBLE$LINES
 10
822.4037574703167
 20
2202.857178765355
 30
0.0
 11
822.5154829386595
 21
2202.364614201088
 31
0.0
  0
LINE
  5
22C
  8
MAKE2D$VISIBLE$LINES
 10
822.5154829386595
 20
2202.364614201088
 30
0.0
 11
822.6371722539835
 21
2201.872524282578
 31
0.0
  0
LINE
  5
22D
  8
MAKE2D$VISIBLE$LINES
 10
822.6371722539835
 20
2201.872524282578
 30
0.0
 11
822.7688948073011
 21
2201.381385076211
 31
0.0
  0
LINE
  5
22E
  8
MAKE2D$VISIBLE$LINES
 10
822.7688948073011
 20
2201.381385076211
 30
0.0
 11
822.9107025121037
 21
2200.891682377292
 31
0.0
  0
LINE
  5
22F
  8
MAKE2D$VISIBLE$LINES
 10
822.9107025121037
 20
2200.891682377292
 30
0.0
 11
823.0626291196515
 21
2200.403910444347
 31
0.0
  0
LINE
  5
230
  8
MAKE2D$VISIBLE$LINES
 10
823.0626291196515
 20
2200.403910444347
 30
0.0
 11
823.2246895980276
 21
2199.918570648545
 31
0.0
  0
LINE
  5
231
  8
MAKE2D$VISIBLE$LINES
 10
823.2246895980276
 20
2199.918570648545
 30
0.0
 11
823.3968795816952
 21
2199.436170044013
 31
0.0
  0
LINE
  5
232
  8
MAKE2D$VISIBLE$LINES
 10
823.3968795816952
 20
2199.436170044013
 30
0.0
 11
823.5791748979656
 21
2198.957219865822
 31
0.0
  0
LINE
  5
233
  8
MAKE2D$VISIBLE$LINES
 10
823.5791748979656
 20
2198.957219865822
 30
0.0
 11
823.7715311763367
 21
2198.482233963355
 31
0.0
  0
LINE
  5
234
  8
MAKE2D$VISIBLE$LINES
 10
823.7715311763367
 20
2198.482233963355
 30
0.0
 11
823.9738835461525
 21
2198.011727177668
 31
0.0
  0
LINE
  5
235
  8
MAKE2D$VISIBLE$LINES
 10
823.9738835461525
 20
2198.011727177668
 30
0.0
 11
824.1861464274093
 21
2197.546213672269
 31
0.0
  0
LINE
  5
236
  8
MAKE2D$VISIBLE$LINES
 10
824.1861464274093
 20
2197.546213672269
 30
0.0
 11
824.4082134188553
 21
2197.086205227539
 31
0.0
  0
LINE
  5
237
  8
MAKE2D$VISIBLE$LINES
 10
824.4082134188553
 20
2197.086205227539
 30
0.0
 11
824.6399572867477
 21
2196.63220950961
 31
0.0
  0
LINE
  5
238
  8
MAKE2D$VISIBLE$LINES
 10
824.6399572867477
 20
2196.63220950961
 30
0.0
 11
824.8812300568127
 21
2196.18472832514
 31
0.0
  0
LINE
  5
239
  8
MAKE2D$VISIBLE$LINES
 10
824.8812300568127
 20
2196.18472832514
 30
0.0
 11
825.1318632110512
 21
2195.744255873814
 31
0.0
  0
LINE
  5
23A
  8
MAKE2D$VISIBLE$LINES
 10
825.1318632110512
 20
2195.744255873814
 30
0.0
 11
825.3916679901032
 21
2195.311277010727
 31
0.0
  0
LINE
  5
23B
  8
MAKE2D$VISIBLE$LINES
 10
825.3916679901032
 20
2195.311277010727
 30
0.0
 11
825.6604358009117
 21
2194.886265530952
 31
0.0
  0
LINE
  5
23C
  8
MAKE2D$VISIBLE$LINES
 10
825.6604358009117
 20
2194.886265530952
 30
0.0
 11
825.937938728446
 21
2194.46968248866
 31
0.0
  0
LINE
  5
23D
  8
MAKE2D$VISIBLE$LINES
 10
825.937938728446
 20
2194.46968248866
 30
0.0
 11
826.2239301492414
 21
2194.061974562983
 31
0.0
  0
LINE
  5
23E
  8
MAKE2D$VISIBLE$LINES
 10
826.2239301492414
 20
2194.061974562983
 30
0.0
 11
826.5181454435454
 21
2193.663572482593
 31
0.0
  0
LINE
  5
23F
  8
MAKE2D$VISIBLE$LINES
 10
826.5181454435454
 20
2193.663572482593
 30
0.0
 11
826.8203028018922
 21
2193.274889520499
 31
0.0
  0
LINE
  5
240
  8
MAKE2D$VISIBLE$LINES
 10
826.8203028018922
 20
2193.274889520499
 30
0.0
 11
827.1301041210154
 21
2192.896320070045
 31
0.0
  0
LINE
  5
241
  8
MAKE2D$VISIBLE$LINES
 10
827.1301041210154
 20
2192.896320070045
 30
0.0
 11
827.4472359831508
 21
2192.528238312374
 31
0.0
  0
LINE
  5
242
  8
MAKE2D$VISIBLE$LINES
 10
827.4472359831508
 20
2192.528238312374
 30
0.0
 11
827.7713707119793
 21
2192.17099698478
 31
0.0
  0
LINE
  5
243
  8
MAKE2D$VISIBLE$LINES
 10
827.7713707119793
 20
2192.17099698478
 30
0.0
 11
828.1021674977497
 21
2191.824926258479
 31
0.0
  0
LINE
  5
244
  8
MAKE2D$VISIBLE$LINES
 10
828.1021674977497
 20
2191.824926258479
 30
0.0
 11
828.4392735834948
 21
2191.490332733242
 31
0.0
  0
LINE
  5
245
  8
MAKE2D$VISIBLE$LINES
 10
828.4392735834948
 20
2191.490332733242
 30
0.0
 11
828.7823255037298
 21
2191.167498555237
 31
0.0
  0
LINE
  5
246
  8
MAKE2D$VISIBLE$LINES
 10
828.7823255037298
 20
2191.167498555237
 30
0.0
 11
829.1309503665985
 21
2190.856680663218
 31
0.0
  0
LINE
  5
247
  8
MAKE2D$VISIBLE$LINES
 10
829.1309503665985
 20
2190.856680663218
 30
0.0
 11
829.4847671701339
 21
2190.558110166988
 31
0.0
  0
LINE
  5
248
  8
MAKE2D$VISIBLE$LINES
 10
829.4847671701339
 20
2190.558110166988
 30
0.0
 11
829.8433881430963
 21
2190.271991860736
 31
0.0
  0
LINE
  5
249
  8
MAKE2D$VISIBLE$LINES
 10
829.8433881430963
 20
2190.271991860736
 30
0.0
 11
830.2064201007847
 21
2189.99850387265
 31
0.0
  0
LINE
  5
24A
  8
MAKE2D$VISIBLE$LINES
 10
830.2064201007847
 20
2189.99850387265
 30
0.0
 11
830.5734658062496
 21
2189.737797450842
 31
0.0
  0
LINE
  5
24B
  8
MAKE2D$VISIBLE$LINES
 10
830.5734658062496
 20
2189.737797450842
 30
0.0
 11
830.9441253274846
 21
2189.489996884454
 31
0.0
  0
LINE
  5
24C
  8
MAKE2D$VISIBLE$LINES
 10
830.9441253274846
 20
2189.489996884454
 30
0.0
 11
831.3179973814327
 21
2189.25519955756
 31
0.0
  0
LINE
  5
24D
  8
MAKE2D$VISIBLE$LINES
 10
831.3179973814327
 20
2189.25519955756
 30
0.0
 11
831.6946806559966
 21
2189.03347613237
 31
0.0
  0
LINE
  5
24E
  8
MAKE2D$VISIBLE$LINES
 10
831.6946806559966
 20
2189.03347613237
 30
0.0
 11
832.073775101687
 21
2188.824870857152
 31
0.0
  0
LINE
  5
24F
  8
MAKE2D$VISIBLE$LINES
 10
832.073775101687
 20
2188.824870857152
 30
0.0
 11
832.4548831850759
 21
2188.629401993335
 31
0.0
  0
LINE
  5
250
  8
MAKE2D$VISIBLE$LINES
 10
832.4548831850759
 20
2188.629401993335
 30
0.0
 11
832.8376110968143
 21
2188.447062355352
 31
0.0
  0
LINE
  5
251
  8
MAKE2D$VISIBLE$LINES
 10
832.8376110968143
 20
2188.447062355352
 30
0.0
 11
833.2215699076406
 21
2188.277819956024
 31
0.0
  0
LINE
  5
252
  8
MAKE2D$VISIBLE$LINES
 10
833.2215699076406
 20
2188.277819956024
 30
0.0
 11
833.606376666505
 21
2188.121618749627
 31
0.0
  0
LINE
  5
253
  8
MAKE2D$VISIBLE$LINES
 10
833.606376666505
 20
2188.121618749627
 30
0.0
 11
833.991655435678
 21
2187.978379464237
 31
0.0
  0
LINE
  5
254
  8
MAKE2D$VISIBLE$LINES
 10
833.991655435678
 20
2187.978379464237
 30
0.0
 11
834.3770382584842
 21
2187.848000514519
 31
0.0
  0
LINE
  5
255
  8
MAKE2D$VISIBLE$LINES
 10
834.3770382584842
 20
2187.848000514519
 30
0.0
 11
834.762166056063
 21
2187.730358985846
 31
0.0
  0
LINE
  5
256
  8
MAKE2D$VISIBLE$LINES
 10
834.762166056063
 20
2187.730358985846
 30
0.0
 11
835.1466894503542
 21
2187.625311680413
 31
0.0
  0
LINE
  5
257
  8
MAKE2D$VISIBLE$LINES
 10
835.1466894503542
 20
2187.625311680413
 30
0.0
 11
835.5302695112524
 21
2187.532696215961
 31
0.0
  0
LINE
  5
258
  8
MAKE2D$VISIBLE$LINES
 10
835.5302695112524
 20
2187.532696215961
 30
0.0
 11
835.9125784266372
 21
2187.452332167747
 31
0.0
  0
LINE
  5
259
  8
MAKE2D$VISIBLE$LINES
 10
835.9125784266372
 20
2187.452332167747
 30
0.0
 11
836.2933000946888
 21
2187.384022244521
 31
0.0
  0
LINE
  5
25A
  8
MAKE2D$VISIBLE$LINES
 10
836.2933000946888
 20
2187.384022244521
 30
0.0
 11
836.6721306385859
 21
2187.32755348951
 31
0.0
  0
LINE
  5
25B
  8
MAKE2D$VISIBLE$LINES
 10
836.6721306385859
 20
2187.32755348951
 30
0.0
 11
837.0487788443203
 21
2187.28269849768
 31
0.0
  0
LINE
  5
25C
  8
MAKE2D$VISIBLE$LINES
 10
837.0487788443203
 20
2187.28269849768
 30
0.0
 11
837.4229665229402
 21
2187.249216640965
 31
0.0
  0
LINE
  5
25D
  8
MAKE2D$VISIBLE$LINES
 10
837.4229665229402
 20
2187.249216640965
 30
0.0
 11
837.7944287990831
 21
2187.226855293554
 31
0.0
  0
LINE
  5
25E
  8
MAKE2D$VISIBLE$LINES
 10
837.7944287990831
 20
2187.226855293554
 30
0.0
 11
838.1629143281248
 21
2187.215351049826
 31
0.0
  0
LINE
  5
25F
  8
MAKE2D$VISIBLE$LINES
 10
838.1629143281248
 20
2187.215351049826
 30
0.0
 11
838.5281854447013
 21
2187.214430928069
 31
0.0
  0
LINE
  5
260
  8
MAKE2D$VISIBLE$LINES
 10
838.5281854447013
 20
2187.214430928069
 30
0.0
 11
838.8933439687647
 21
2187.223947354551
 31
0.0
  0
LINE
  5
261
  8
MAKE2D$VISIBLE$LINES
 10
838.8933439687647
 20
2187.223947354551
 30
0.0
 11
839.261487673576
 21
2187.244123551221
 31
0.0
  0
LINE
  5
262
  8
MAKE2D$VISIBLE$LINES
 10
839.261487673576
 20
2187.244123551221
 30
0.0
 11
839.6323728905566
 21
2187.275229649486
 31
0.0
  0
LINE
  5
263
  8
MAKE2D$VISIBLE$LINES
 10
839.6323728905566
 20
2187.275229649486
 30
0.0
 11
840.0057423752081
 21
2187.317526011626
 31
0.0
  0
LINE
  5
264
  8
MAKE2D$VISIBLE$LINES
 10
840.0057423752081
 20
2187.317526011626
 30
0.0
 11
840.3813254740419
 21
2187.371262020883
 31
0.0
  0
LINE
  5
265
  8
MAKE2D$VISIBLE$LINES
 10
840.3813254740419
 20
2187.371262020883
 30
0.0
 11
840.7588383608328
 21
2187.436674857393
 31
0.0
  0
LINE
  5
266
  8
MAKE2D$VISIBLE$LINES
 10
840.7588383608328
 20
2187.436674857393
 30
0.0
 11
841.1379843449115
 21
2187.513988266916
 31
0.0
  0
LINE
  5
267
  8
MAKE2D$VISIBLE$LINES
 10
841.1379843449115
 20
2187.513988266916
 30
0.0
 11
841.5184542537775
 21
2187.603411329822
 31
0.0
  0
LINE
  5
268
  8
MAKE2D$VISIBLE$LINES
 10
841.5184542537775
 20
2187.603411329822
 30
0.0
 11
841.8999268918311
 21
2187.70513723832
 31
0.0
  0
LINE
  5
269
  8
MAKE2D$VISIBLE$LINES
 10
841.8999268918311
 20
2187.70513723832
 30
0.0
 11
842.2820695764755
 21
2187.819342090338
 31
0.0
  0
LINE
  5
26A
  8
MAKE2D$VISIBLE$LINES
 10
842.2820695764755
 20
2187.819342090338
 30
0.0
 11
842.6645387522424
 21
2187.946183708858
 31
0.0
  0
LINE
  5
26B
  8
MAKE2D$VISIBLE$LINES
 10
842.6645387522424
 20
2187.946183708858
 30
0.0
 11
843.0469806829523
 21
2188.085800495824
 31
0.0
  0
LINE
  5
26C
  8
MAKE2D$VISIBLE$LINES
 10
843.0469806829523
 20
2188.085800495824
 30
0.0
 11
843.4290322212241
 21
2188.238310329956
 31
0.0
  0
LINE
  5
26D
  8
MAKE2D$VISIBLE$LINES
 10
843.4290322212241
 20
2188.238310329956
 30
0.0
 11
843.810321653929
 21
2188.403809517947
 31
0.0
  0
LINE
  5
26E
  8
MAKE2D$VISIBLE$LINES
 10
843.810321653929
 20
2188.403809517947
 30
0.0
 11
844.1904696214193
 21
2188.582371808552
 31
0.0
  0
LINE
  5
26F
  8
MAKE2D$VISIBLE$LINES
 10
844.1904696214193
 20
2188.582371808552
 30
0.0
 11
844.5690901075957
 21
2188.774047479013
 31
0.0
  0
LINE
  5
270
  8
MAKE2D$VISIBLE$LINES
 10
844.5690901075957
 20
2188.774047479013
 30
0.0
 11
844.9457914970794
 21
2188.978862503063
 31
0.0
  0
LINE
  5
271
  8
MAKE2D$VISIBLE$LINES
 10
844.9457914970794
 20
2188.978862503063
 30
0.0
 11
845.3201776949833
 21
2189.196817809448
 31
0.0
  0
LINE
  5
272
  8
MAKE2D$VISIBLE$LINES
 10
845.3201776949833
 20
2189.196817809448
 30
0.0
 11
845.6918493039885
 21
2189.427888639513
 31
0.0
  0
LINE
  5
273
  8
MAKE2D$VISIBLE$LINES
 10
845.6918493039885
 20
2189.427888639513
 30
0.0
 11
846.0604048526943
 21
2189.672024011783
 31
0.0
  0
LINE
  5
274
  8
MAKE2D$VISIBLE$LINES
 10
846.0604048526943
 20
2189.672024011783
 30
0.0
 11
846.4254420684905
 21
2189.929146300881
 31
0.0
  0
LINE
  5
275
  8
MAKE2D$VISIBLE$LINES
 10
846.4254420684905
 20
2189.929146300881
 30
0.0
 11
846.7865591875443
 21
2190.199150937281
 31
0.0
  0
LINE
  5
276
  8
MAKE2D$VISIBLE$LINES
 10
846.7865591875443
 20
2190.199150937281
 30
0.0
 11
847.143356293884
 21
2190.481906233539
 31
0.0
  0
LINE
  5
277
  8
MAKE2D$VISIBLE$LINES
 10
847.143356293884
 20
2190.481906233539
 30
0.0
 11
847.49543667904
 21
2190.777253341627
 31
0.0
  0
LINE
  5
278
  8
MAKE2D$VISIBLE$LINES
 10
847.49543667904
 20
2190.777253341627
 30
0.0
 11
847.8424082132515
 21
2191.085006344933
 31
0.0
  0
LINE
  5
279
  8
MAKE2D$VISIBLE$LINES
 10
847.8424082132515
 20
2191.085006344933
 30
0.0
 11
848.1838847189047
 21
2191.404952487309
 31
0.0
  0
LINE
  5
27A
  8
MAKE2D$VISIBLE$LINES
 10
848.1838847189047
 20
2191.404952487309
 30
0.0
 11
848.5194873366104
 21
2191.736852540348
 31
0.0
  0
LINE
  5
27B
  8
MAKE2D$VISIBLE$LINES
 10
848.5194873366104
 20
2191.736852540348
 30
0.0
 11
848.8488458741904
 21
2192.080441308776
 31
0.0
  0
LINE
  5
27C
  8
MAKE2D$VISIBLE$LINES
 10
848.8488458741904
 20
2192.080441308776
 30
0.0
 11
849.1716001288206
 21
2192.435428272569
 31
0.0
  0
LINE
  5
27D
  8
MAKE2D$VISIBLE$LINES
 10
849.1716001288206
 20
2192.435428272569
 30
0.0
 11
849.4874011726629
 21
2192.801498363091
 31
0.0
  0
LINE
  5
27E
  8
MAKE2D$VISIBLE$LINES
 10
849.4874011726629
 20
2192.801498363091
 30
0.0
 11
849.7959125925321
 21
2193.178312869246
 31
0.0
  0
LINE
  5
27F
  8
MAKE2D$VISIBLE$LINES
 10
849.7959125925321
 20
2193.178312869246
 30
0.0
 11
850.0968116744664
 21
2193.565510468383
 31
0.0
  0
LINE
  5
280
  8
MAKE2D$VISIBLE$LINES
 10
850.0968116744664
 20
2193.565510468383
 30
0.0
 11
850.3897905245133
 21
2193.962708375471
 31
0.0
  0
LINE
  5
281
  8
MAKE2D$VISIBLE$LINES
 10
850.3897905245133
 20
2193.962708375471
 30
0.0
 11
850.674557117589
 21
2194.369503602907
 31
0.0
  0
LINE
  5
282
  8
MAKE2D$VISIBLE$LINES
 10
850.674557117589
 20
2194.369503602907
 30
0.0
 11
850.950836266921
 21
2194.785474322269
 31
0.0
  0
LINE
  5
283
  8
MAKE2D$VISIBLE$LINES
 10
850.950836266921
 20
2194.785474322269
 30
0.0
 11
851.2183705073214
 21
2195.210181318362
 31
0.0
  0
LINE
  5
284
  8
MAKE2D$VISIBLE$LINES
 10
851.2183705073214
 20
2195.210181318362
 30
0.0
 11
851.476920886364
 21
2195.643169525057
 31
0.0
  0
LINE
  5
285
  8
MAKE2D$VISIBLE$LINES
 10
851.476920886364
 20
2195.643169525057
 30
0.0
 11
851.7262676584238
 21
2196.083969631726
 31
0.0
  0
LINE
  5
286
  8
MAKE2D$VISIBLE$LINES
 10
851.7262676584238
 20
2196.083969631726
 30
0.0
 11
851.9662108774844
 21
2196.532099748485
 31
0.0
  0
LINE
  5
287
  8
MAKE2D$VISIBLE$LINES
 10
851.9662108774844
 20
2196.532099748485
 30
0.0
 11
852.1965708855986
 21
2196.987067118037
 31
0.0
  0
LINE
  5
288
  8
MAKE2D$VISIBLE$LINES
 10
852.1965708855986
 20
2196.987067118037
 30
0.0
 11
852.4171886948989
 21
2197.448369861648
 31
0.0
  0
LINE
  5
289
  8
MAKE2D$VISIBLE$LINES
 10
852.4171886948989
 20
2197.448369861648
 30
0.0
 11
852.6279262620658
 21
2197.915498746629
 31
0.0
  0
LINE
  5
28A
  8
MAKE2D$VISIBLE$LINES
 10
852.6279262620658
 20
2197.915498746629
 30
0.0
 11
852.8286666551801
 21
2198.387938962763
 31
0.0
  0
LINE
  5
28B
  8
MAKE2D$VISIBLE$LINES
 10
852.8286666551801
 20
2198.387938962763
 30
0.0
 11
853.0193141138636
 21
2198.865171895273
 31
0.0
  0
LINE
  5
28C
  8
MAKE2D$VISIBLE$LINES
 10
853.0193141138636
 20
2198.865171895273
 30
0.0
 11
853.19979400458
 21
2199.346676882249
 31
0.0
  0
LINE
  5
28D
  8
MAKE2D$VISIBLE$LINES
 10
853.19979400458
 20
2199.346676882249
 30
0.0
 11
853.3700526738636
 21
2199.831932944897
 31
0.0
  0
LINE
  5
28E
  8
MAKE2D$VISIBLE$LINES
 10
853.3700526738636
 20
2199.831932944897
 30
0.0
 11
853.5300572030961
 21
2200.320420479562
 31
0.0
  0
LINE
  5
28F
  8
MAKE2D$VISIBLE$LINES
 10
853.5300572030961
 20
2200.320420479562
 30
0.0
 11
853.6797950692269
 21
2200.81162290114
 31
0.0
  0
LINE
  5
290
  8
MAKE2D$VISIBLE$LINES
 10
853.6797950692269
 20
2200.81162290114
 30
0.0
 11
853.8192737165327
 21
2201.305028228282
 31
0.0
  0
LINE
  5
291
  8
MAKE2D$VISIBLE$LINES
 10
853.8192737165327
 20
2201.305028228282
 30
0.0
 11
853.9485200451252
 21
2201.800130601645
 31
0.0
  0
LINE
  5
292
  8
MAKE2D$VISIBLE$LINES
 10
853.9485200451252
 20
2201.800130601645
 30
0.0
 11
854.0675798224354
 21
2202.29643172738
 31
0.0
  0
LINE
  5
293
  8
MAKE2D$VISIBLE$LINES
 10
854.0675798224354
 20
2202.29643172738
 30
0.0
 11
854.1765170243431
 21
2202.793442238987
 31
0.0
  0
LINE
  5
294
  8
MAKE2D$VISIBLE$LINES
 10
854.1765170243431
 20
2202.793442238987
 30
0.0
 11
854.2754131129439
 21
2203.290682971722
 31
0.0
  0
LINE
  5
295
  8
MAKE2D$VISIBLE$LINES
 10
854.2754131129439
 20
2203.290682971722
 30
0.0
 11
854.3643662581948
 21
2203.787686144701
 31
0.0
  0
LINE
  5
296
  8
MAKE2D$VISIBLE$LINES
 10
854.3643662581948
 20
2203.787686144701
 30
0.0
 11
854.443490510825
 21
2204.283996446913
 31
0.0
  0
LINE
  5
297
  8
MAKE2D$VISIBLE$LINES
 10
854.443490510825
 20
2204.283996446913
 30
0.0
 11
854.5129149339566
 21
2204.779172024344
 31
0.0
  0
LINE
  5
298
  8
MAKE2D$VISIBLE$LINES
 10
854.5129149339566
 20
2204.779172024344
 30
0.0
 11
854.5727827008579
 21
2205.272785366399
 31
0.0
  0
LINE
  5
299
  8
MAKE2D$VISIBLE$LINES
 10
854.5727827008579
 20
2205.272785366399
 30
0.0
 11
854.6232501661397
 21
2205.764424090758
 31
0.0
  0
LINE
  5
29A
  8
MAKE2D$VISIBLE$LINES
 10
854.6232501661397
 20
2205.764424090758
 30
0.0
 11
854.6644859175345
 21
2206.253691626699
 31
0.0
  0
LINE
  5
29B
  8
MAKE2D$VISIBLE$LINES
 10
854.6644859175345
 20
2206.253691626699
 30
0.0
 11
854.6966698151549
 21
2206.740207797759
 31
0.0
  0
LINE
  5
29C
  8
MAKE2D$VISIBLE$LINES
 10
854.6966698151549
 20
2206.740207797759
 30
0.0
 11
854.7199920248214
 21
2207.223609305403
 31
0.0
  0
LINE
  5
29D
  8
MAKE2D$VISIBLE$LINES
 10
854.7199920248214
 20
2207.223609305403
 30
0.0
 11
854.7346520517071
 21
2207.70355011604
 31
0.0
  0
LINE
  5
29E
  8
MAKE2D$VISIBLE$LINES
 10
854.7346520517071
 20
2207.70355011604
 30
0.0
 11
854.7388245250926
 21
2208.651753506882
 31
0.0
  0
LINE
  5
29F
  8
MAKE2D$VISIBLE$LINES
 10
854.7388245250926
 20
2208.651753506882
 30
0.0
 11
854.5736509002156
 21
2221.418926458385
 31
0.0
  0
LINE
  5
2A0
  8
MAKE2D$VISIBLE$LINES
 10
854.5736509002156
 20
2221.418926458385
 30
0.0
 11
867.828682900206
 21
2221.626930585659
 31
0.0
  0
LINE
  5
2A1
  8
MAKE2D$VISIBLE$LINES
 10
748.9693816036313
 20
2283.132325480261
 30
0.0
 11
759.3496457720462
 21
2283.37204119683
 31
0.0
  0
LINE
  5
2A2
  8
MAKE2D$VISIBLE$LINES
 10
759.3496457720462
 20
2283.37204119683
 30
0.0
 11
759.5724409899472
 21
2270.662434183618
 31
0.0
  0
LINE
  5
2A3
  8
MAKE2D$VISIBLE$LINES
 10
759.5724409899472
 20
2270.662434183618
 30
0.0
 11
759.6051180642501
 21
2269.719079171381
 31
0.0
  0
LINE
  5
2A4
  8
MAKE2D$VISIBLE$LINES
 10
759.6051180642501
 20
2269.719079171381
 30
0.0
 11
759.6714258259096
 21
2268.761833143174
 31
0.0
  0
LINE
  5
2A5
  8
MAKE2D$VISIBLE$LINES
 10
759.6714258259096
 20
2268.761833143174
 30
0.0
 11
759.7176713972332
 21
2268.278839732869
 31
0.0
  0
LINE
  5
2A6
  8
MAKE2D$VISIBLE$LINES
 10
759.7176713972332
 20
2268.278839732869
 30
0.0
 11
759.7728828428969
 21
2267.79341390299
 31
0.0
  0
LINE
  5
2A7
  8
MAKE2D$VISIBLE$LINES
 10
759.7728828428969
 20
2267.79341390299
 30
0.0
 11
759.837225839162
 21
2267.305937064271
 31
0.0
  0
LINE
  5
2A8
  8
MAKE2D$VISIBLE$LINES
 10
759.837225839162
 20
2267.305937064271
 30
0.0
 11
759.9108546407094
 21
2266.816806467402
 31
0.0
  0
LINE
  5
2A9
  8
MAKE2D$VISIBLE$LINES
 10
759.9108546407094
 20
2266.816806467402
 30
0.0
 11
759.9939111605363
 21
2266.326434605512
 31
0.0
  0
LINE
  5
2AA
  8
MAKE2D$VISIBLE$LINES
 10
759.9939111605363
 20
2266.326434605512
 30
0.0
 11
760.0865240643119
 21
2265.835248518365
 31
0.0
  0
LINE
  5
2AB
  8
MAKE2D$VISIBLE$LINES
 10
760.0865240643119
 20
2265.835248518365
 30
0.0
 11
760.1888078858773
 21
2265.34368899755
 31
0.0
  0
LINE
  5
2AC
  8
MAKE2D$VISIBLE$LINES
 10
760.1888078858773
 20
2265.34368899755
 30
0.0
 11
760.300862170788
 21
2264.852209692781
 31
0.0
  0
LINE
  5
2AD
  8
MAKE2D$VISIBLE$LINES
 10
760.300862170788
 20
2264.852209692781
 30
0.0
 11
760.4227706549501
 21
2264.361276120311
 31
0.0
  0
LINE
  5
2AE
  8
MAKE2D$VISIBLE$LINES
 10
760.4227706549501
 20
2264.361276120311
 30
0.0
 11
760.5546004854868
 21
2263.871364575373
 31
0.0
  0
LINE
  5
2AF
  8
MAKE2D$VISIBLE$LINES
 10
760.5546004854868
 20
2263.871364575373
 30
0.0
 11
760.6964014909765
 21
2263.382960951516
 31
0.0
  0
LINE
  5
2B0
  8
MAKE2D$VISIBLE$LINES
 10
760.6964014909765
 20
2263.382960951516
 30
0.0
 11
760.848205508124
 21
2262.896559470704
 31
0.0
  0
LINE
  5
2B1
  8
MAKE2D$VISIBLE$LINES
 10
760.848205508124
 20
2262.896559470704
 30
0.0
 11
761.010025771772
 21
2262.412661329025
 31
0.0
  0
LINE
  5
2B2
  8
MAKE2D$VISIBLE$LINES
 10
761.010025771772
 20
2262.412661329025
 30
0.0
 11
761.1818563749043
 21
2261.931773263847
 31
0.0
  0
LINE
  5
2B3
  8
MAKE2D$VISIBLE$LINES
 10
761.1818563749043
 20
2261.931773263847
 30
0.0
 11
761.3636718049472
 21
2261.454406049228
 31
0.0
  0
LINE
  5
2B4
  8
MAKE2D$VISIBLE$LINES
 10
761.3636718049472
 20
2261.454406049228
 30
0.0
 11
761.5554265622552
 21
2260.981072927345
 31
0.0
  0
LINE
  5
2B5
  8
MAKE2D$VISIBLE$LINES
 10
761.5554265622552
 20
2260.981072927345
 30
0.0
 11
761.7570548661296
 21
2260.512287984574
 31
0.0
  0
LINE
  5
2B6
  8
MAKE2D$VISIBLE$LINES
 10
761.7570548661296
 20
2260.512287984574
 30
0.0
 11
761.9684704531282
 21
2260.048564481687
 31
0.0
  0
LINE
  5
2B7
  8
MAKE2D$VISIBLE$LINES
 10
761.9684704531282
 20
2260.048564481687
 30
0.0
 11
762.1895664717244
 21
2259.590413148395
 31
0.0
  0
LINE
  5
2B8
  8
MAKE2D$VISIBLE$LINES
 10
762.1895664717244
 20
2259.590413148395
 30
0.0
 11
762.4202154766175
 21
2259.138340453099
 31
0.0
  0
LINE
  5
2B9
  8
MAKE2D$VISIBLE$LINES
 10
762.4202154766175
 20
2259.138340453099
 30
0.0
 11
762.6602695251718
 21
2258.692846859283
 31
0.0
  0
LINE
  5
2BA
  8
MAKE2D$VISIBLE$LINES
 10
762.6602695251718
 20
2258.692846859283
 30
0.0
 11
762.9095603775739
 21
2258.254425080372
 31
0.0
  0
LINE
  5
2BB
  8
MAKE2D$VISIBLE$LINES
 10
762.9095603775739
 20
2258.254425080372
 30
0.0
 11
763.1678998013757
 21
2257.823558345243
 31
0.0
  0
LINE
  5
2BC
  8
MAKE2D$VISIBLE$LINES
 10
763.1678998013757
 20
2257.823558345243
 30
0.0
 11
763.4350799801267
 21
2257.400718686653
 31
0.0
  0
LINE
  5
2BD
  8
MAKE2D$VISIBLE$LINES
 10
763.4350799801267
 20
2257.400718686653
 30
0.0
 11
763.7108740248301
 21
2256.98636526495
 31
0.0
  0
LINE
  5
2BE
  8
MAKE2D$VISIBLE$LINES
 10
763.7108740248301
 20
2256.98636526495
 30
0.0
 11
763.995036585969
 21
2256.580942739235
 31
0.0
  0
LINE
  5
2BF
  8
MAKE2D$VISIBLE$LINES
 10
763.995036585969
 20
2256.580942739235
 30
0.0
 11
764.2873045628857
 21
2256.184879697911
 31
0.0
  0
LINE
  5
2C0
  8
MAKE2D$VISIBLE$LINES
 10
764.2873045628857
 20
2256.184879697911
 30
0.0
 11
764.5873979063446
 21
2255.798587160093
 31
0.0
  0
LINE
  5
2C1
  8
MAKE2D$VISIBLE$LINES
 10
764.5873979063446
 20
2255.798587160093
 30
0.0
 11
764.8950205092152
 21
2255.422457158822
 31
0.0
  0
LINE
  5
2C2
  8
MAKE2D$VISIBLE$LINES
 10
764.8950205092152
 20
2255.422457158822
 30
0.0
 11
765.2098611793517
 21
2255.056861416278
 31
0.0
  0
LINE
  5
2C3
  8
MAKE2D$VISIBLE$LINES
 10
765.2098611793517
 20
2255.056861416278
 30
0.0
 11
765.5315946879673
 21
2254.702150120399
 31
0.0
  0
LINE
  5
2C4
  8
MAKE2D$VISIBLE$LINES
 10
765.5315946879673
 20
2254.702150120399
 30
0.0
 11
765.8598828860947
 21
2254.358650811335
 31
0.0
  0
LINE
  5
2C5
  8
MAKE2D$VISIBLE$LINES
 10
765.8598828860947
 20
2254.358650811335
 30
0.0
 11
766.1943758811127
 21
2254.026667385162
 31
0.0
  0
LINE
  5
2C6
  8
MAKE2D$VISIBLE$LINES
 10
766.1943758811127
 20
2254.026667385162
 30
0.0
 11
766.5347132647966
 21
2253.70647922109
 31
0.0
  0
LINE
  5
2C7
  8
MAKE2D$VISIBLE$LINES
 10
766.5347132647966
 20
2253.70647922109
 30
0.0
 11
766.8805253839461
 21
2253.398340437286
 31
0.0
  0
LINE
  5
2C8
  8
MAKE2D$VISIBLE$LINES
 10
766.8805253839461
 20
2253.398340437286
 30
0.0
 11
767.2314346443374
 21
2253.10247927912
 31
0.0
  0
LINE
  5
2C9
  8
MAKE2D$VISIBLE$LINES
 10
767.2314346443374
 20
2253.10247927912
 30
0.0
 11
767.5870568385672
 21
2252.819097642415
 31
0.0
  0
LINE
  5
2CA
  8
MAKE2D$VISIBLE$LINES
 10
767.5870568385672
 20
2252.819097642415
 30
0.0
 11
767.9470024882748
 21
2252.548370732984
 31
0.0
  0
LINE
  5
2CB
  8
MAKE2D$VISIBLE$LINES
 10
767.9470024882748
 20
2252.548370732984
 30
0.0
 11
768.3108781912812
 21
2252.290446862455
 31
0.0
  0
LINE
  5
2CC
  8
MAKE2D$VISIBLE$LINES
 10
768.3108781912812
 20
2252.290446862455
 30
0.0
 11
768.6782879643223
 21
2252.045447379169
 31
0.0
  0
LINE
  5
2CD
  8
MAKE2D$VISIBLE$LINES
 10
768.6782879643223
 20
2252.045447379169
 30
0.0
 11
769.0488345723239
 21
2251.813466731718
 31
0.0
  0
LINE
  5
2CE
  8
MAKE2D$VISIBLE$LINES
 10
769.0488345723239
 20
2251.813466731718
 30
0.0
 11
769.4221208355098
 21
2251.59457266154
 31
0.0
  0
LINE
  5
2CF
  8
MAKE2D$VISIBLE$LINES
 10
769.4221208355098
 20
2251.59457266154
 30
0.0
 11
769.7977509060851
 21
2251.388806519966
 31
0.0
  0
LINE
  5
2D0
  8
MAKE2D$VISIBLE$LINES
 10
769.7977509060851
 20
2251.388806519966
 30
0.0
 11
770.1753315067615
 21
2251.196183704086
 31
0.0
  0
LINE
  5
2D1
  8
MAKE2D$VISIBLE$LINES
 10
770.1753315067615
 20
2251.196183704086
 30
0.0
 11
770.5544731239854
 21
2251.016694204981
 31
0.0
  0
LINE
  5
2D2
  8
MAKE2D$VISIBLE$LINES
 10
770.5544731239854
 20
2251.016694204981
 30
0.0
 11
770.9347911493862
 21
2250.850303261068
 31
0.0
  0
LINE
  5
2D3
  8
MAKE2D$VISIBLE$LINES
 10
770.9347911493862
 20
2250.850303261068
 30
0.0
 11
771.315906963659
 21
2250.696952108643
 31
0.0
  0
LINE
  5
2D4
  8
MAKE2D$VISIBLE$LINES
 10
771.315906963659
 20
2250.696952108643
 30
0.0
 11
771.6974489578361
 21
2250.556558821213
 31
0.0
  0
LINE
  5
2D5
  8
MAKE2D$VISIBLE$LINES
 10
771.6974489578361
 20
2250.556558821213
 30
0.0
 11
772.0790534876536
 21
2250.429019228735
 31
0.0
  0
LINE
  5
2D6
  8
MAKE2D$VISIBLE$LINES
 10
772.0790534876536
 20
2250.429019228735
 30
0.0
 11
772.4603657574974
 21
2250.314207907643
 31
0.0
  0
LINE
  5
2D7
  8
MAKE2D$VISIBLE$LINES
 10
772.4603657574974
 20
2250.314207907643
 30
0.0
 11
772.8410406311682
 21
2250.2119792323
 31
0.0
  0
LINE
  5
2D8
  8
MAKE2D$VISIBLE$LINES
 10
772.8410406311682
 20
2250.2119792323
 30
0.0
 11
773.2207433674804
 21
2250.122168478484
 31
0.0
  0
LINE
  5
2D9
  8
MAKE2D$VISIBLE$LINES
 10
773.2207433674804
 20
2250.122168478484
 30
0.0
 11
773.5991502794274
 21
2250.044592969544
 31
0.0
  0
LINE
  5
2DA
  8
MAKE2D$VISIBLE$LINES
 10
773.5991502794274
 20
2250.044592969544
 30
0.0
 11
773.9759493163726
 21
2249.979053255986
 31
0.0
  0
LINE
  5
2DB
  8
MAKE2D$VISIBLE$LINES
 10
773.9759493163726
 20
2249.979053255986
 30
0.0
 11
774.3508405693835
 21
2249.92533431949
 31
0.0
  0
LINE
  5
2DC
  8
MAKE2D$VISIBLE$LINES
 10
774.3508405693835
 20
2249.92533431949
 30
0.0
 11
774.7235367004623
 21
2249.883206792644
 31
0.0
  0
LINE
  5
2DD
  8
MAKE2D$VISIBLE$LINES
 10
774.7235367004623
 20
2249.883206792644
 30
0.0
 11
775.0937632970019
 21
2249.8524281861
 31
0.0
  0
LINE
  5
2DE
  8
MAKE2D$VISIBLE$LINES
 10
775.0937632970019
 20
2249.8524281861
 30
0.0
 11
775.4612591533265
 21
2249.832744115248
 31
0.0
  0
LINE
  5
2DF
  8
MAKE2D$VISIBLE$LINES
 10
775.4612591533265
 20
2249.832744115248
 30
0.0
 11
775.8257764816486
 21
2249.823889519038
 31
0.0
  0
LINE
  5
2E0
  8
MAKE2D$VISIBLE$LINES
 10
775.8257764816486
 20
2249.823889519038
 30
0.0
 11
776.1870810551853
 21
2249.825589864098
 31
0.0
  0
LINE
  5
2E1
  8
MAKE2D$VISIBLE$LINES
 10
776.1870810551853
 20
2249.825589864098
 30
0.0
 11
776.5482414479701
 21
2249.837719905216
 31
0.0
  0
LINE
  5
2E2
  8
MAKE2D$VISIBLE$LINES
 10
776.5482414479701
 20
2249.837719905216
 30
0.0
 11
776.9123210657366
 21
2249.860524948964
 31
0.0
  0
LINE
  5
2E3
  8
MAKE2D$VISIBLE$LINES
 10
776.9123210657366
 20
2249.860524948964
 30
0.0
 11
777.2790780367495
 21
2249.894273217098
 31
0.0
  0
LINE
  5
2E4
  8
MAKE2D$VISIBLE$LINES
 10
777.2790780367495
 20
2249.894273217098
 30
0.0
 11
777.6482570916968
 21
2249.939223070154
 31
0.0
  0
LINE
  5
2E5
  8
MAKE2D$VISIBLE$LINES
 10
777.6482570916968
 20
2249.939223070154
 30
0.0
 11
778.0195897326317
 21
2249.995621799448
 31
0.0
  0
LINE
  5
2E6
  8
MAKE2D$VISIBLE$LINES
 10
778.0195897326317
 20
2249.995621799448
 30
0.0
 11
778.3927944705301
 21
2250.063704405417
 31
0.0
  0
LINE
  5
2E7
  8
MAKE2D$VISIBLE$LINES
 10
778.3927944705301
 20
2250.063704405417
 30
0.0
 11
778.7675771341247
 21
2250.143692369295
 31
0.0
  0
LINE
  5
2E8
  8
MAKE2D$VISIBLE$LINES
 10
778.7675771341247
 20
2250.143692369295
 30
0.0
 11
779.1436312522547
 21
2250.235792425573
 31
0.0
  0
LINE
  5
2E9
  8
MAKE2D$VISIBLE$LINES
 10
779.1436312522547
 20
2250.235792425573
 30
0.0
 11
779.5206385114777
 21
2250.34019534325
 31
0.0
  0
LINE
  5
2EA
  8
MAKE2D$VISIBLE$LINES
 10
779.5206385114777
 20
2250.34019534325
 30
0.0
 11
779.8982692901604
 21
2250.457074724282
 31
0.0
  0
LINE
  5
2EB
  8
MAKE2D$VISIBLE$LINES
 10
779.8982692901604
 20
2250.457074724282
 30
0.0
 11
780.2761832696631
 21
2250.58658582804
 31
0.0
  0
LINE
  5
2EC
  8
MAKE2D$VISIBLE$LINES
 10
780.2761832696631
 20
2250.58658582804
 30
0.0
 11
780.6540301226016
 21
2250.728864430877
 31
0.0
  0
LINE
  5
2ED
  8
MAKE2D$VISIBLE$LINES
 10
780.6540301226016
 20
2250.728864430877
 30
0.0
 11
781.0314502774794
 21
2250.884025730143
 31
0.0
  0
LINE
  5
2EE
  8
MAKE2D$VISIBLE$LINES
 10
781.0314502774794
 20
2250.884025730143
 30
0.0
 11
781.4080757582672
 21
2251.052163302088
 31
0.0
  0
LINE
  5
2EF
  8
MAKE2D$VISIBLE$LINES
 10
781.4080757582672
 20
2251.052163302088
 30
0.0
 11
781.783531096758
 21
2251.233348123168
 31
0.0
  0
LINE
  5
2F0
  8
MAKE2D$VISIBLE$LINES
 10
781.783531096758
 20
2251.233348123168
 30
0.0
 11
782.1574343147603
 21
2251.427627664144
 31
0.0
  0
LINE
  5
2F1
  8
MAKE2D$VISIBLE$LINES
 10
782.1574343147603
 20
2251.427627664144
 30
0.0
 11
782.5293979724094
 21
2251.635025066201
 31
0.0
  0
LINE
  5
2F2
  8
MAKE2D$VISIBLE$LINES
 10
782.5293979724094
 20
2251.635025066201
 30
0.0
 11
782.8990302781081
 21
2251.855538407991
 31
0.0
  0
LINE
  5
2F3
  8
MAKE2D$VISIBLE$LINES
 10
782.8990302781081
 20
2251.855538407991
 30
0.0
 11
783.2659362548367
 21
2252.089140072077
 31
0.0
  0
LINE
  5
2F4
  8
MAKE2D$VISIBLE$LINES
 10
783.2659362548367
 20
2252.089140072077
 30
0.0
 11
783.6297189568403
 21
2252.335776218707
 31
0.0
  0
LINE
  5
2F5
  8
MAKE2D$VISIBLE$LINES
 10
783.6297189568403
 20
2252.335776218707
 30
0.0
 11
783.9899807299922
 21
2252.595366374147
 31
0.0
  0
LINE
  5
2F6
  8
MAKE2D$VISIBLE$LINES
 10
783.9899807299922
 20
2252.595366374147
 30
0.0
 11
784.3463245084828
 21
2252.867803140076
 31
0.0
  0
LINE
  5
2F7
  8
MAKE2D$VISIBLE$LINES
 10
784.3463245084828
 20
2252.867803140076
 30
0.0
 11
784.6983551398907
 21
2253.152952029574
 31
0.0
  0
LINE
  5
2F8
  8
MAKE2D$VISIBLE$LINES
 10
784.6983551398907
 20
2253.152952029574
 30
0.0
 11
785.0456807301704
 21
2253.450651434291
 31
0.0
  0
LINE
  5
2F9
  8
MAKE2D$VISIBLE$LINES
 10
785.0456807301704
 20
2253.450651434291
 30
0.0
 11
785.3879139996537
 21
2253.760712726284
 31
0.0
  0
LINE
  5
2FA
  8
MAKE2D$VISIBLE$LINES
 10
785.3879139996537
 20
2253.760712726284
 30
0.0
 11
785.7246736408246
 21
2254.082920496844
 31
0.0
  0
LINE
  5
2FB
  8
MAKE2D$VISIBLE$LINES
 10
785.7246736408246
 20
2254.082920496844
 30
0.0
 11
786.0555856683726
 21
2254.417032933402
 31
0.0
  0
LINE
  5
2FC
  8
MAKE2D$VISIBLE$LINES
 10
786.0555856683726
 20
2254.417032933402
 30
0.0
 11
786.380284751908
 21
2254.762782334359
 31
0.0
  0
LINE
  5
2FD
  8
MAKE2D$VISIBLE$LINES
 10
786.380284751908
 20
2254.762782334359
 30
0.0
 11
786.6984155216869
 21
2255.119875760357
 31
0.0
  0
LINE
  5
2FE
  8
MAKE2D$VISIBLE$LINES
 10
786.6984155216869
 20
2255.119875760357
 30
0.0
 11
787.009633837803
 21
2255.487995819229
 31
0.0
  0
LINE
  5
2FF
  8
MAKE2D$VISIBLE$LINES
 10
787.009633837803
 20
2255.487995819229
 30
0.0
 11
787.3136080134984
 21
2255.866801580554
 31
0.0
  0
LINE
  5
300
  8
MAKE2D$VISIBLE$LINES
 10
787.3136080134984
 20
2255.866801580554
 30
0.0
 11
787.610019983585
 21
2256.255929614493
 31
0.0
  0
LINE
  5
301
  8
MAKE2D$VISIBLE$LINES
 10
787.610019983585
 20
2256.255929614493
 30
0.0
 11
787.8985664093983
 21
2256.654995148363
 31
0.0
  0
LINE
  5
302
  8
MAKE2D$VISIBLE$LINES
 10
787.8985664093983
 20
2256.654995148363
 30
0.0
 11
788.1789597122599
 21
2257.063593333256
 31
0.0
  0
LINE
  5
303
  8
MAKE2D$VISIBLE$LINES
 10
788.1789597122599
 20
2257.063593333256
 30
0.0
 11
788.4509290280616
 21
2257.481300611969
 31
0.0
  0
LINE
  5
304
  8
MAKE2D$VISIBLE$LINES
 10
788.4509290280616
 20
2257.481300611969
 30
0.0
 11
788.7142210763284
 21
2257.907676178554
 31
0.0
  0
LINE
  5
305
  8
MAKE2D$VISIBLE$LINES
 10
788.7142210763284
 20
2257.907676178554
 30
0.0
 11
788.9686009379263
 21
2258.342263518936
 31
0.0
  0
LINE
  5
306
  8
MAKE2D$VISIBLE$LINES
 10
788.9686009379263
 20
2258.342263518936
 30
0.0
 11
789.2138527364693
 21
2258.784592021396
 31
0.0
  0
LINE
  5
307
  8
MAKE2D$VISIBLE$LINES
 10
789.2138527364693
 20
2258.784592021396
 30
0.0
 11
789.4497802194063
 21
2259.234178645083
 31
0.0
  0
LINE
  5
308
  8
MAKE2D$VISIBLE$LINES
 10
789.4497802194063
 20
2259.234178645083
 30
0.0
 11
789.6762072357552
 21
2259.690529634358
 31
0.0
  0
LINE
  5
309
  8
MAKE2D$VISIBLE$LINES
 10
789.6762072357552
 20
2259.690529634358
 30
0.0
 11
789.892978108431
 21
2260.153142266464
 31
0.0
  0
LINE
  5
30A
  8
MAKE2D$VISIBLE$LINES
 10
789.892978108431
 20
2260.153142266464
 30
0.0
 11
790.0999579001412
 21
2260.621506619926
 31
0.0
  0
LINE
  5
30B
  8
MAKE2D$VISIBLE$LINES
 10
790.0999579001412
 20
2260.621506619926
 30
0.0
 11
790.2970325728047
 21
2261.095107351115
 31
0.0
  0
LINE
  5
30C
  8
MAKE2D$VISIBLE$LINES
 10
790.2970325728047
 20
2261.095107351115
 30
0.0
 11
790.4841090414343
 21
2261.573425466572
 31
0.0
  0
LINE
  5
30D
  8
MAKE2D$VISIBLE$LINES
 10
790.4841090414343
 20
2261.573425466572
 30
0.0
 11
790.6611151243692
 21
2262.055940079054
 31
0.0
  0
LINE
  5
30E
  8
MAKE2D$VISIBLE$LINES
 10
790.6611151243692
 20
2262.055940079054
 30
0.0
 11
790.8279993926335
 21
2262.54213013568
 31
0.0
  0
LINE
  5
30F
  8
MAKE2D$VISIBLE$LINES
 10
790.8279993926335
 20
2262.54213013568
 30
0.0
 11
790.9847309220371
 21
2263.031476107159
 31
0.0
  0
LINE
  5
310
  8
MAKE2D$VISIBLE$LINES
 10
790.9847309220371
 20
2263.031476107159
 30
0.0
 11
791.131298952398
 21
2263.523461627766
 31
0.0
  0
LINE
  5
311
  8
MAKE2D$VISIBLE$LINES
 10
791.131298952398
 20
2263.523461627766
 30
0.0
 11
791.2677124589558
 21
2264.017575076491
 31
0.0
  0
LINE
  5
312
  8
MAKE2D$VISIBLE$LINES
 10
791.2677124589558
 20
2264.017575076491
 30
0.0
 11
791.3939996416544
 21
2264.513311090689
 31
0.0
  0
LINE
  5
313
  8
MAKE2D$VISIBLE$LINES
 10
791.3939996416544
 20
2264.513311090689
 30
0.0
 11
791.5102073384764
 21
2265.010172004447
 31
0.0
  0
LINE
  5
314
  8
MAKE2D$VISIBLE$LINES
 10
791.5102073384764
 20
2265.010172004447
 30
0.0
 11
791.6164003694472
 21
2265.507669204863
 31
0.0
  0
LINE
  5
315
  8
MAKE2D$VISIBLE$LINES
 10
791.6164003694472
 20
2265.507669204863
 30
0.0
 11
791.7126608182429
 21
2266.005324400479
 31
0.0
  0
LINE
  5
316
  8
MAKE2D$VISIBLE$LINES
 10
791.7126608182429
 20
2266.005324400479
 30
0.0
 11
791.7990872585815
 21
2266.502670797048
 31
0.0
  0
LINE
  5
317
  8
MAKE2D$VISIBLE$LINES
 10
791.7990872585815
 20
2266.502670797048
 30
0.0
 11
791.8757939327147
 21
2266.999254176935
 31
0.0
  0
LINE
  5
318
  8
MAKE2D$VISIBLE$LINES
 10
791.8757939327147
 20
2266.999254176935
 30
0.0
 11
791.9429098893914
 21
2267.494633879381
 31
0.0
  0
LINE
  5
319
  8
MAKE2D$VISIBLE$LINES
 10
791.9429098893914
 20
2267.494633879381
 30
0.0
 11
792.00057808864
 21
2267.988383679882
 31
0.0
  0
LINE
  5
31A
  8
MAKE2D$VISIBLE$LINES
 10
792.00057808864
 20
2267.988383679882
 30
0.0
 11
792.0489544806072
 21
2268.48009256788
 31
0.0
  0
LINE
  5
31B
  8
MAKE2D$VISIBLE$LINES
 10
792.0489544806072
 20
2268.48009256788
 30
0.0
 11
792.0882070655107
 21
2268.969365422836
 31
0.0
  0
LINE
  5
31C
  8
MAKE2D$VISIBLE$LINES
 10
792.0882070655107
 20
2268.969365422836
 30
0.0
 11
792.1185149415253
 21
2269.455823589622
 31
0.0
  0
LINE
  5
31D
  8
MAKE2D$VISIBLE$LINES
 10
792.1185149415253
 20
2269.455823589622
 30
0.0
 11
792.1400673471168
 21
2269.939105354924
 31
0.0
  0
LINE
  5
31E
  8
MAKE2D$VISIBLE$LINES
 10
792.1400673471168
 20
2269.939105354924
 30
0.0
 11
792.1530627039949
 21
2270.418866327067
 31
0.0
  0
LINE
  5
31F
  8
MAKE2D$VISIBLE$LINES
 10
792.1530627039949
 20
2270.418866327067
 30
0.0
 11
792.154216182545
 21
2271.366536561196
 31
0.0
  0
LINE
  5
320
  8
MAKE2D$VISIBLE$LINES
 10
792.154216182545
 20
2271.366536561196
 30
0.0
 11
791.9508029138901
 21
2284.124913148683
 31
0.0
  0
LINE
  5
321
  8
MAKE2D$VISIBLE$LINES
 10
791.9508029138901
 20
2284.124913148683
 30
0.0
 11
802.4356046789438
 21
2284.367042995035
 31
0.0
  0
LINE
  5
322
  8
MAKE2D$VISIBLE$LINES
 10
787.06832886774
 20
2272.305751960911
 30
0.0
 11
788.0535069789703
 21
2272.025794008872
 31
0.0
  0
LINE
  5
323
  8
MAKE2D$VISIBLE$LINES
 10
788.0535069789703
 20
2272.025794008872
 30
0.0
 11
788.2922688607871
 21
2257.234950375525
 31
0.0
  0
LINE
  5
324
  8
MAKE2D$VISIBLE$LINES
 10
784.916612720938
 20
2253.338075275239
 30
0.0
 11
784.6081214155057
 21
2272.25228600403
 31
0.0
  0
LINE
  5
325
  8
MAKE2D$VISIBLE$LINES
 10
784.6081214155057
 20
2272.25228600403
 30
0.0
 11
787.06832886774
 21
2272.305751960911
 31
0.0
  0
LINE
  5
326
  8
MAKE2D$VISIBLE$LINES
 10
787.06832886774
 20
2272.305751960911
 30
0.0
 11
787.3340556805085
 21
2255.893001698316
 31
0.0
  0
LINE
  5
327
  8
MAKE2D$VISIBLE$LINES
 10
803.3944553280289
 20
2233.326241701211
 30
0.0
 11
803.2227269717743
 21
2233.365847749969
 31
0.0
  0
LINE
  5
328
  8
MAKE2D$VISIBLE$LINES
 10
803.2227269717743
 20
2233.365847749969
 30
0.0
 11
805.841646509763
 21
2233.410821039881
 31
0.0
  0
LINE
  5
329
  8
MAKE2D$VISIBLE$LINES
 10
805.841646509763
 20
2233.410821039881
 30
0.0
 11
806.0127258498294
 21
2233.371190915476
 31
0.0
  0
LINE
  5
32A
  8
MAKE2D$VISIBLE$LINES
 10
747.4838814420871
 20
2232.366395747795
 30
0.0
 11
747.298395687749
 21
2232.405489431397
 31
0.0
  0
LINE
  5
32B
  8
MAKE2D$VISIBLE$LINES
 10
747.298395687749
 20
2232.405489431397
 30
0.0
 11
749.883425883611
 21
2232.449880757951
 31
0.0
  0
LINE
  5
32C
  8
MAKE2D$VISIBLE$LINES
 10
749.883425883611
 20
2232.449880757951
 30
0.0
 11
750.0682800019699
 21
2232.41076346444
 31
0.0
  0
LINE
  5
32D
  8
MAKE2D$VISIBLE$LINES
 10
747.298395687749
 20
2232.405489431397
 30
0.0
 11
746.3782420899695
 21
2283.072487228058
 31
0.0
  0
LINE
  5
32E
  8
MAKE2D$VISIBLE$LINES
 10
746.3782420899695
 20
2283.072487228058
 30
0.0
 11
748.9693816036313
 21
2283.132325480261
 31
0.0
  0
LINE
  5
32F
  8
MAKE2D$VISIBLE$LINES
 10
748.9693816036313
 20
2283.132325480261
 30
0.0
 11
749.8834258836109
 21
2232.449880757951
 31
0.0
  0
LINE
  5
330
  8
MAKE2D$VISIBLE$LINES
 10
749.8834258836109
 20
2232.449880757951
 30
0.0
 11
803.2227269717743
 21
2233.365847749969
 31
0.0
  0
LINE
  5
331
  8
MAKE2D$VISIBLE$LINES
 10
803.2227269717743
 20
2233.365847749969
 30
0.0
 11
802.4356046789438
 21
2284.367042995035
 31
0.0
  0
LINE
  5
332
  8
MAKE2D$VISIBLE$LINES
 10
802.4356046789438
 20
2284.367042995035
 30
0.0
 11
805.060798381403
 21
2284.427667674649
 31
0.0
  0
LINE
  5
333
  8
MAKE2D$VISIBLE$LINES
 10
805.060798381403
 20
2284.427667674649
 30
0.0
 11
805.841646509763
 21
2233.410821039881
 31
0.0
  0
LINE
  5
334
  8
MAKE2D$VISIBLE$LINES
 10
926.8983644350333
 20
2287.241312778247
 30
0.0
 11
927.3836681498713
 21
2235.497996493894
 31
0.0
  0
LINE
  5
335
  8
MAKE2D$VISIBLE$LINES
 10
927.3836681498713
 20
2235.497996493894
 30
0.0
 11
927.524158507648
 21
2235.457240991944
 31
0.0
  0
LINE
  5
336
  8
MAKE2D$VISIBLE$LINES
 10
872.6554453197009
 20
2234.515281203983
 30
0.0
 11
872.5010288085609
 21
2234.555526588104
 31
0.0
  0
LINE
  5
337
  8
MAKE2D$VISIBLE$LINES
 10
872.5010288085609
 20
2234.555526588104
 30
0.0
 11
871.8812128879522
 21
2285.970779033373
 31
0.0
  0
LINE
  5
338
  8
MAKE2D$VISIBLE$LINES
 10
929.5999628323974
 20
2287.303701902955
 30
0.0
 11
916.1086459389129
 21
2286.992141364215
 31
0.0
  0
LINE
  5
339
  8
MAKE2D$VISIBLE$LINES
 10
916.1086459389129
 20
2286.992141364215
 30
0.0
 11
916.2368427289933
 21
2274.048001025639
 31
0.0
  0
LINE
  5
33A
  8
MAKE2D$VISIBLE$LINES
 10
916.2368427289933
 20
2274.048001025639
 30
0.0
 11
916.2296318528557
 21
2273.086536538586
 31
0.0
  0
LINE
  5
33B
  8
MAKE2D$VISIBLE$LINES
 10
916.2296318528557
 20
2273.086536538586
 30
0.0
 11
916.2132111525527
 21
2272.599788843739
 31
0.0
  0
LINE
  5
33C
  8
MAKE2D$VISIBLE$LINES
 10
916.2132111525527
 20
2272.599788843739
 30
0.0
 11
916.1879636843514
 21
2272.109466831742
 31
0.0
  0
LINE
  5
33D
  8
MAKE2D$VISIBLE$LINES
 10
916.1879636843514
 20
2272.109466831742
 30
0.0
 11
916.1536874918825
 21
2271.615919873609
 31
0.0
  0
LINE
  5
33E
  8
MAKE2D$VISIBLE$LINES
 10
916.1536874918825
 20
2271.615919873609
 30
0.0
 11
916.1101901788145
 21
2271.119514916794
 31
0.0
  0
LINE
  5
33F
  8
MAKE2D$VISIBLE$LINES
 10
916.1101901788145
 20
2271.119514916794
 30
0.0
 11
916.0572898911608
 21
2270.620636099968
 31
0.0
  0
LINE
  5
340
  8
MAKE2D$VISIBLE$LINES
 10
916.0572898911608
 20
2270.620636099968
 30
0.0
 11
915.9948162996034
 21
2270.119684269802
 31
0.0
  0
LINE
  5
341
  8
MAKE2D$VISIBLE$LINES
 10
915.9948162996034
 20
2270.119684269802
 30
0.0
 11
915.9226115754594
 21
2269.617076397314
 31
0.0
  0
LINE
  5
342
  8
MAKE2D$VISIBLE$LINES
 10
915.9226115754594
 20
2269.617076397314
 30
0.0
 11
915.8405313535861
 21
2269.113244892057
 31
0.0
  0
LINE
  5
343
  8
MAKE2D$VISIBLE$LINES
 10
915.8405313535861
 20
2269.113244892057
 30
0.0
 11
915.748445675196
 21
2268.608636813207
 31
0.0
  0
LINE
  5
344
  8
MAKE2D$VISIBLE$LINES
 10
915.748445675196
 20
2268.608636813207
 30
0.0
 11
915.6462399033163
 21
2268.103712977464
 31
0.0
  0
LINE
  5
345
  8
MAKE2D$VISIBLE$LINES
 10
915.6462399033163
 20
2268.103712977464
 30
0.0
 11
915.5338156034591
 21
2267.598946964585
 31
0.0
  0
LINE
  5
346
  8
MAKE2D$VISIBLE$LINES
 10
915.5338156034591
 20
2267.598946964585
 30
0.0
 11
915.4110913819466
 21
2267.094824022348
 31
0.0
  0
LINE
  5
347
  8
MAKE2D$VISIBLE$LINES
 10
915.4110913819466
 20
2267.094824022348
 30
0.0
 11
915.2780036743288
 21
2266.591839873693
 31
0.0
  0
LINE
  5
348
  8
MAKE2D$VISIBLE$LINES
 10
915.2780036743288
 20
2266.591839873693
 30
0.0
 11
915.1345074763844
 21
2266.090499429883
 31
0.0
  0
LINE
  5
349
  8
MAKE2D$VISIBLE$LINES
 10
915.1345074763844
 20
2266.090499429883
 30
0.0
 11
914.9805770103532
 21
2265.591315414494
 31
0.0
  0
LINE
  5
34A
  8
MAKE2D$VISIBLE$LINES
 10
914.9805770103532
 20
2265.591315414494
 30
0.0
 11
914.8162063192977
 21
2265.09480690412
 31
0.0
  0
LINE
  5
34B
  8
MAKE2D$VISIBLE$LINES
 10
914.8162063192977
 20
2265.09480690412
 30
0.0
 11
914.6414097828361
 21
2264.601497792693
 31
0.0
  0
LINE
  5
34C
  8
MAKE2D$VISIBLE$LINES
 10
914.6414097828361
 20
2264.601497792693
 30
0.0
 11
914.4562225479249
 21
2264.1119151873
 31
0.0
  0
LINE
  5
34D
  8
MAKE2D$VISIBLE$LINES
 10
914.4562225479249
 20
2264.1119151873
 30
0.0
 11
914.2607008689127
 21
2263.62658774431
 31
0.0
  0
LINE
  5
34E
  8
MAKE2D$VISIBLE$LINES
 10
914.2607008689127
 20
2263.62658774431
 30
0.0
 11
914.0549223517106
 21
2263.146043955515
 31
0.0
  0
LINE
  5
34F
  8
MAKE2D$VISIBLE$LINES
 10
914.0549223517106
 20
2263.146043955515
 30
0.0
 11
913.838986097637
 21
2262.670810394783
 31
0.0
  0
LINE
  5
350
  8
MAKE2D$VISIBLE$LINES
 10
913.838986097637
 20
2262.670810394783
 30
0.0
 11
913.6130127432901
 21
2262.201409936389
 31
0.0
  0
LINE
  5
351
  8
MAKE2D$VISIBLE$LINES
 10
913.6130127432901
 20
2262.201409936389
 30
0.0
 11
913.377144393664
 21
2261.738359956816
 31
0.0
  0
LINE
  5
352
  8
MAKE2D$VISIBLE$LINES
 10
913.377144393664
 20
2261.738359956816
 30
0.0
 11
913.1315444466514
 21
2261.28217053226
 31
0.0
  0
LINE
  5
353
  8
MAKE2D$VISIBLE$LINES
 10
913.1315444466514
 20
2261.28217053226
 30
0.0
 11
912.876397308041
 21
2260.833342644395
 31
0.0
  0
LINE
  5
354
  8
MAKE2D$VISIBLE$LINES
 10
912.876397308041
 20
2260.833342644395
 30
0.0
 11
912.6119079971367
 21
2260.39236640716
 31
0.0
  0
LINE
  5
355
  8
MAKE2D$VISIBLE$LINES
 10
912.6119079971367
 20
2260.39236640716
 30
0.0
 11
912.3383016441425
 21
2259.959719327371
 31
0.0
  0
LINE
  5
356
  8
MAKE2D$VISIBLE$LINES
 10
912.3383016441425
 20
2259.959719327371
 30
0.0
 11
912.0558228814983
 21
2259.535864611791
 31
0.0
  0
LINE
  5
357
  8
MAKE2D$VISIBLE$LINES
 10
912.0558228814983
 20
2259.535864611791
 30
0.0
 11
911.7647351323742
 21
2259.121249533103
 31
0.0
  0
LINE
  5
358
  8
MAKE2D$VISIBLE$LINES
 10
911.7647351323742
 20
2259.121249533103
 30
0.0
 11
911.4653198005318
 21
2258.716303866735
 31
0.0
  0
LINE
  5
359
  8
MAKE2D$VISIBLE$LINES
 10
911.4653198005318
 20
2258.716303866735
 30
0.0
 11
911.1578753667148
 21
2258.321438409938
 31
0.0
  0
LINE
  5
35A
  8
MAKE2D$VISIBLE$LINES
 10
911.1578753667148
 20
2258.321438409938
 30
0.0
 11
910.8427163976401
 21
2257.937043593813
 31
0.0
  0
LINE
  5
35B
  8
MAKE2D$VISIBLE$LINES
 10
910.8427163976401
 20
2257.937043593813
 30
0.0
 11
910.5201724744893
 21
2257.563488198117
 31
0.0
  0
LINE
  5
35C
  8
MAKE2D$VISIBLE$LINES
 10
910.5201724744893
 20
2257.563488198117
 30
0.0
 11
910.1905870485543
 21
2257.201118177718
 31
0.0
  0
LINE
  5
35D
  8
MAKE2D$VISIBLE$LINES
 10
910.1905870485543
 20
2257.201118177718
 30
0.0
 11
909.8543162323482
 21
2256.850255608493
 31
0.0
  0
LINE
  5
35E
  8
MAKE2D$VISIBLE$LINES
 10
909.8543162323482
 20
2256.850255608493
 30
0.0
 11
909.5117275350412
 21
2256.511197759319
 31
0.0
  0
LINE
  5
35F
  8
MAKE2D$VISIBLE$LINES
 10
909.5117275350412
 20
2256.511197759319
 30
0.0
 11
909.1631985515398
 21
2256.184216295553
 31
0.0
  0
LINE
  5
360
  8
MAKE2D$VISIBLE$LINES
 10
909.1631985515398
 20
2256.184216295553
 30
0.0
 11
908.8091156148339
 21
2255.869556618128
 31
0.0
  0
LINE
  5
361
  8
MAKE2D$VISIBLE$LINES
 10
908.8091156148339
 20
2255.869556618128
 30
0.0
 11
908.4498724214699
 21
2255.567437341092
 31
0.0
  0
LINE
  5
362
  8
MAKE2D$VISIBLE$LINES
 10
908.4498724214699
 20
2255.567437341092
 30
0.0
 11
908.0858686400703
 21
2255.278049909056
 31
0.0
  0
LINE
  5
363
  8
MAKE2D$VISIBLE$LINES
 10
908.0858686400703
 20
2255.278049909056
 30
0.0
 11
907.7175085128134
 21
2255.001558354751
 31
0.0
  0
LINE
  5
364
  8
MAKE2D$VISIBLE$LINES
 10
907.7175085128134
 20
2255.001558354751
 30
0.0
 11
907.3451994596195
 21
2254.738099195552
 31
0.0
  0
LINE
  5
365
  8
MAKE2D$VISIBLE$LINES
 10
907.3451994596195
 20
2254.738099195552
 30
0.0
 11
906.9693506945471
 21
2254.48778146665
 31
0.0
  0
LINE
  5
366
  8
MAKE2D$VISIBLE$LINES
 10
906.9693506945471
 20
2254.48778146665
 30
0.0
 11
906.5903718635301
 21
2254.250686887282
 31
0.0
  0
LINE
  5
367
  8
MAKE2D$VISIBLE$LINES
 10
906.5903718635301
 20
2254.250686887282
 30
0.0
 11
906.2086717121404
 21
2254.026870155445
 31
0.0
  0
LINE
  5
368
  8
MAKE2D$VISIBLE$LINES
 10
906.2086717121404
 20
2254.026870155445
 30
0.0
 11
905.824656791505
 21
2253.816359365385
 31
0.0
  0
LINE
  5
369
  8
MAKE2D$VISIBLE$LINES
 10
905.824656791505
 20
2253.816359365385
 30
0.0
 11
905.4387302099111
 21
2253.619156541355
 31
0.0
  0
LINE
  5
36A
  8
MAKE2D$VISIBLE$LINES
 10
905.4387302099111
 20
2253.619156541355
 30
0.0
 11
905.0512904369303
 21
2253.435238280237
 31
0.0
  0
LINE
  5
36B
  8
MAKE2D$VISIBLE$LINES
 10
905.0512904369303
 20
2253.435238280237
 30
0.0
 11
904.6627301661916
 21
2253.264556495034
 31
0.0
  0
LINE
  5
36C
  8
MAKE2D$VISIBLE$LINES
 10
904.6627301661916
 20
2253.264556495034
 30
0.0
 11
904.2734352421456
 21
2253.107039250599
 31
0.0
  0
LINE
  5
36D
  8
MAKE2D$VISIBLE$LINES
 10
904.2734352421456
 20
2253.107039250599
 30
0.0
 11
903.8837836553918
 21
2252.962591682589
 31
0.0
  0
LINE
  5
36E
  8
MAKE2D$VISIBLE$LINES
 10
903.8837836553918
 20
2252.962591682589
 30
0.0
 11
903.4941446103281
 21
2252.83109699027
 31
0.0
  0
LINE
  5
36F
  8
MAKE2D$VISIBLE$LINES
 10
903.4941446103281
 20
2252.83109699027
 30
0.0
 11
903.1048776680868
 21
2252.712417493649
 31
0.0
  0
LINE
  5
370
  8
MAKE2D$VISIBLE$LINES
 10
903.1048776680868
 20
2252.712417493649
 30
0.0
 11
902.7163319669304
 21
2252.606395745289
 31
0.0
  0
LINE
  5
371
  8
MAKE2D$VISIBLE$LINES
 10
902.7163319669304
 20
2252.606395745289
 30
0.0
 11
902.32884552151
 21
2252.512855687221
 31
0.0
  0
LINE
  5
372
  8
MAKE2D$VISIBLE$LINES
 10
902.32884552151
 20
2252.512855687221
 30
0.0
 11
901.9427446016473
 21
2252.431603843474
 31
0.0
  0
LINE
  5
373
  8
MAKE2D$VISIBLE$LINES
 10
901.9427446016473
 20
2252.431603843474
 30
0.0
 11
901.5583431906073
 21
2252.362430539009
 31
0.0
  0
LINE
  5
374
  8
MAKE2D$VISIBLE$LINES
 10
901.5583431906073
 20
2252.362430539009
 30
0.0
 11
901.1759425221622
 21
2252.305111136092
 31
0.0
  0
LINE
  5
375
  8
MAKE2D$VISIBLE$LINES
 10
901.1759425221622
 20
2252.305111136092
 30
0.0
 11
900.7958306951487
 21
2252.259407279604
 31
0.0
  0
LINE
  5
376
  8
MAKE2D$VISIBLE$LINES
 10
900.7958306951487
 20
2252.259407279604
 30
0.0
 11
900.418282363662
 21
2252.225068143153
 31
0.0
  0
LINE
  5
377
  8
MAKE2D$VISIBLE$LINES
 10
900.418282363662
 20
2252.225068143153
 30
0.0
 11
900.0435585005398
 21
2252.201831668417
 31
0.0
  0
LINE
  5
378
  8
MAKE2D$VISIBLE$LINES
 10
900.0435585005398
 20
2252.201831668417
 30
0.0
 11
899.6719062313515
 21
2252.189425790647
 31
0.0
  0
LINE
  5
379
  8
MAKE2D$VISIBLE$LINES
 10
899.6719062313515
 20
2252.189425790647
 30
0.0
 11
899.3001721512588
 21
2252.187600778022
 31
0.0
  0
LINE
  5
37A
  8
MAKE2D$VISIBLE$LINES
 10
899.3001721512588
 20
2252.187600778022
 30
0.0
 11
898.925200080758
 21
2252.196482825169
 31
0.0
  0
LINE
  5
37B
  8
MAKE2D$VISIBLE$LINES
 10
898.925200080758
 20
2252.196482825169
 30
0.0
 11
898.547232744771
 21
2252.216350490656
 31
0.0
  0
LINE
  5
37C
  8
MAKE2D$VISIBLE$LINES
 10
898.547232744771
 20
2252.216350490656
 30
0.0
 11
898.1665267586152
 21
2252.247472726744
 31
0.0
  0
LINE
  5
37D
  8
MAKE2D$VISIBLE$LINES
 10
898.1665267586152
 20
2252.247472726744
 30
0.0
 11
897.7833524730421
 21
2252.290107657885
 31
0.0
  0
LINE
  5
37E
  8
MAKE2D$VISIBLE$LINES
 10
897.7833524730421
 20
2252.290107657885
 30
0.0
 11
897.3979937493957
 21
2252.344501344294
 31
0.0
  0
LINE
  5
37F
  8
MAKE2D$VISIBLE$LINES
 10
897.3979937493957
 20
2252.344501344294
 30
0.0
 11
897.010747662109
 21
2252.410886537534
 31
0.0
  0
LINE
  5
380
  8
MAKE2D$VISIBLE$LINES
 10
897.010747662109
 20
2252.410886537534
 30
0.0
 11
896.6219241261861
 21
2252.489481435613
 31
0.0
  0
LINE
  5
381
  8
MAKE2D$VISIBLE$LINES
 10
896.6219241261861
 20
2252.489481435613
 30
0.0
 11
896.2318454478153
 21
2252.580488445587
 31
0.0
  0
LINE
  5
382
  8
MAKE2D$VISIBLE$LINES
 10
896.2318454478153
 20
2252.580488445587
 30
0.0
 11
895.8408457967912
 21
2252.684092962103
 31
0.0
  0
LINE
  5
383
  8
MAKE2D$VISIBLE$LINES
 10
895.8408457967912
 20
2252.684092962103
 30
0.0
 11
895.449270600034
 21
2252.800462170701
 31
0.0
  0
LINE
  5
384
  8
MAKE2D$VISIBLE$LINES
 10
895.449270600034
 20
2252.800462170701
 30
0.0
 11
895.057475856136
 21
2252.929743885018
 31
0.0
  0
LINE
  5
385
  8
MAKE2D$VISIBLE$LINES
 10
895.057475856136
 20
2252.929743885018
 30
0.0
 11
894.6658273715597
 21
2253.072065427269
 31
0.0
  0
LINE
  5
386
  8
MAKE2D$VISIBLE$LINES
 10
894.6658273715597
 20
2253.072065427269
 30
0.0
 11
894.2746999198417
 21
2253.227532561474
 31
0.0
  0
LINE
  5
387
  8
MAKE2D$VISIBLE$LINES
 10
894.2746999198417
 20
2253.227532561474
 30
0.0
 11
893.8844763259157
 21
2253.396228489015
 31
0.0
  0
LINE
  5
388
  8
MAKE2D$VISIBLE$LINES
 10
893.8844763259157
 20
2253.396228489015
 30
0.0
 11
893.4955464784431
 21
2253.578212915954
 31
0.0
  0
LINE
  5
389
  8
MAKE2D$VISIBLE$LINES
 10
893.4955464784431
 20
2253.578212915954
 30
0.0
 11
893.1083062738359
 21
2253.773521201407
 31
0.0
  0
LINE
  5
38A
  8
MAKE2D$VISIBLE$LINES
 10
893.1083062738359
 20
2253.773521201407
 30
0.0
 11
892.7231564964394
 21
2253.98216359597
 31
0.0
  0
LINE
  5
38B
  8
MAKE2D$VISIBLE$LINES
 10
892.7231564964394
 20
2253.98216359597
 30
0.0
 11
892.3405016401239
 21
2254.20412457873
 31
0.0
  0
LINE
  5
38C
  8
MAKE2D$VISIBLE$LINES
 10
892.3405016401239
 20
2254.20412457873
 30
0.0
 11
891.9607486772812
 21
2254.439362300887
 31
0.0
  0
LINE
  5
38D
  8
MAKE2D$VISIBLE$LINES
 10
891.9607486772812
 20
2254.439362300887
 30
0.0
 11
891.5843057819505
 21
2254.687808143345
 31
0.0
  0
LINE
  5
38E
  8
MAKE2D$VISIBLE$LINES
 10
891.5843057819505
 20
2254.687808143345
 30
0.0
 11
891.2115810144481
 21
2254.949366394824
 31
0.0
  0
LINE
  5
38F
  8
MAKE2D$VISIBLE$LINES
 10
891.2115810144481
 20
2254.949366394824
 30
0.0
 11
890.8429809755003
 21
2255.223914056205
 31
0.0
  0
LINE
  5
390
  8
MAKE2D$VISIBLE$LINES
 10
890.8429809755003
 20
2255.223914056205
 30
0.0
 11
890.4789094384003
 21
2255.511300775776
 31
0.0
  0
LINE
  5
391
  8
MAKE2D$VISIBLE$LINES
 10
890.4789094384003
 20
2255.511300775776
 30
0.0
 11
890.1197659681692
 21
2255.811348919033
 31
0.0
  0
LINE
  5
392
  8
MAKE2D$VISIBLE$LINES
 10
890.1197659681692
 20
2255.811348919033
 30
0.0
 11
889.7659445370509
 21
2256.123853775469
 31
0.0
  0
LINE
  5
393
  8
MAKE2D$VISIBLE$LINES
 10
889.7659445370509
 20
2256.123853775469
 30
0.0
 11
889.4178321459352
 21
2256.448583903633
 31
0.0
  0
LINE
  5
394
  8
MAKE2D$VISIBLE$LINES
 10
889.4178321459352
 20
2256.448583903633
 30
0.0
 11
889.0758074614471
 21
2256.785281614418
 31
0.0
  0
LINE
  5
395
  8
MAKE2D$VISIBLE$LINES
 10
889.0758074614471
 20
2256.785281614418
 30
0.0
 11
888.7402394784729
 21
2257.133663591304
 31
0.0
  0
LINE
  5
396
  8
MAKE2D$VISIBLE$LINES
 10
888.7402394784729
 20
2257.133663591304
 30
0.0
 11
888.4114862178147
 21
2257.493421644936
 31
0.0
  0
LINE
  5
397
  8
MAKE2D$VISIBLE$LINES
 10
888.4114862178147
 20
2257.493421644936
 30
0.0
 11
888.0898934684669
 21
2257.864223598157
 31
0.0
  0
LINE
  5
398
  8
MAKE2D$VISIBLE$LINES
 10
888.0898934684669
 20
2257.864223598157
 30
0.0
 11
887.7757935836781
 21
2258.245714296332
 31
0.0
  0
LINE
  5
399
  8
MAKE2D$VISIBLE$LINES
 10
887.7757935836781
 20
2258.245714296332
 30
0.0
 11
887.4695043395569
 21
2258.63751673663
 31
0.0
  0
LINE
  5
39A
  8
MAKE2D$VISIBLE$LINES
 10
887.4695043395569
 20
2258.63751673663
 30
0.0
 11
887.1713278644111
 21
2259.039233308729
 31
0.0
  0
LINE
  5
39B
  8
MAKE2D$VISIBLE$LINES
 10
887.1713278644111
 20
2259.039233308729
 30
0.0
 11
886.8815496463977
 21
2259.450447138387
 31
0.0
  0
LINE
  5
39C
  8
MAKE2D$VISIBLE$LINES
 10
886.8815496463977
 20
2259.450447138387
 30
0.0
 11
886.6004376263121
 21
2259.870723524382
 31
0.0
  0
LINE
  5
39D
  8
MAKE2D$VISIBLE$LINES
 10
886.6004376263121
 20
2259.870723524382
 30
0.0
 11
886.3282413815426
 21
2260.299611458422
 31
0.0
  0
LINE
  5
39E
  8
MAKE2D$VISIBLE$LINES
 10
886.3282413815426
 20
2260.299611458422
 30
0.0
 11
886.065191406335
 21
2260.736645216974
 31
0.0
  0
LINE
  5
39F
  8
MAKE2D$VISIBLE$LINES
 10
886.065191406335
 20
2260.736645216974
 30
0.0
 11
885.8114984925799
 21
2261.181346013351
 31
0.0
  0
LINE
  5
3A0
  8
MAKE2D$VISIBLE$LINES
 10
885.8114984925799
 20
2261.181346013351
 30
0.0
 11
885.5673532143516
 21
2261.633223697955
 31
0.0
  0
LINE
  5
3A1
  8
MAKE2D$VISIBLE$LINES
 10
885.5673532143516
 20
2261.633223697955
 30
0.0
 11
885.3329255184467
 21
2262.091778494336
 31
0.0
  0
LINE
  5
3A2
  8
MAKE2D$VISIBLE$LINES
 10
885.3329255184467
 20
2262.091778494336
 30
0.0
 11
885.1083644221403
 21
2262.556502758539
 31
0.0
  0
LINE
  5
3A3
  8
MAKE2D$VISIBLE$LINES
 10
885.1083644221403
 20
2262.556502758539
 30
0.0
 11
884.8937978183867
 21
2263.026882749258
 31
0.0
  0
LINE
  5
3A4
  8
MAKE2D$VISIBLE$LINES
 10
884.8937978183867
 20
2263.026882749258
 30
0.0
 11
884.6893323877041
 21
2263.502400396483
 31
0.0
  0
LINE
  5
3A5
  8
MAKE2D$VISIBLE$LINES
 10
884.6893323877041
 20
2263.502400396483
 30
0.0
 11
884.495053615028
 21
2263.982535056624
 31
0.0
  0
LINE
  5
3A6
  8
MAKE2D$VISIBLE$LINES
 10
884.495053615028
 20
2263.982535056624
 30
0.0
 11
884.3110259089148
 21
2264.466765242509
 31
0.0
  0
LINE
  5
3A7
  8
MAKE2D$VISIBLE$LINES
 10
884.3110259089148
 20
2264.466765242509
 30
0.0
 11
884.1372928196328
 21
2264.954570317238
 31
0.0
  0
LINE
  5
3A8
  8
MAKE2D$VISIBLE$LINES
 10
884.1372928196328
 20
2264.954570317238
 30
0.0
 11
883.9738773518925
 21
2265.445432141544
 31
0.0
  0
LINE
  5
3A9
  8
MAKE2D$VISIBLE$LINES
 10
883.9738773518925
 20
2265.445432141544
 30
0.0
 11
883.8207823672732
 21
2265.938836665017
 31
0.0
  0
LINE
  5
3AA
  8
MAKE2D$VISIBLE$LINES
 10
883.8207823672732
 20
2265.938836665017
 30
0.0
 11
883.6779910707784
 21
2266.434275452461
 31
0.0
  0
LINE
  5
3AB
  8
MAKE2D$VISIBLE$LINES
 10
883.6779910707784
 20
2266.434275452461
 30
0.0
 11
883.5454675754236
 21
2266.931247137501
 31
0.0
  0
LINE
  5
3AC
  8
MAKE2D$VISIBLE$LINES
 10
883.5454675754236
 20
2266.931247137501
 30
0.0
 11
883.4231575383232
 21
2267.429258796528
 31
0.0
  0
LINE
  5
3AD
  8
MAKE2D$VISIBLE$LINES
 10
883.4231575383232
 20
2267.429258796528
 30
0.0
 11
883.3109888613956
 21
2267.927827237064
 31
0.0
  0
LINE
  5
3AE
  8
MAKE2D$VISIBLE$LINES
 10
883.3109888613956
 20
2267.927827237064
 30
0.0
 11
883.2088724495558
 21
2268.426480195627
 31
0.0
  0
LINE
  5
3AF
  8
MAKE2D$VISIBLE$LINES
 10
883.2088724495558
 20
2268.426480195627
 30
0.0
 11
883.1167030191049
 21
2268.924757441174
 31
0.0
  0
LINE
  5
3B0
  8
MAKE2D$VISIBLE$LINES
 10
883.1167030191049
 20
2268.924757441174
 30
0.0
 11
883.0343599489471
 21
2269.422211781204
 31
0.0
  0
LINE
  5
3B1
  8
MAKE2D$VISIBLE$LINES
 10
883.0343599489471
 20
2269.422211781204
 30
0.0
 11
882.9617081672926
 21
2269.918409968585
 31
0.0
  0
LINE
  5
3B2
  8
MAKE2D$VISIBLE$LINES
 10
882.9617081672926
 20
2269.918409968585
 30
0.0
 11
882.8985990665755
 21
2270.412933508075
 31
0.0
  0
LINE
  5
3B3
  8
MAKE2D$VISIBLE$LINES
 10
882.8985990665755
 20
2270.412933508075
 30
0.0
 11
882.8448714394976
 21
2270.905379362434
 31
0.0
  0
LINE
  5
3B4
  8
MAKE2D$VISIBLE$LINES
 10
882.8448714394976
 20
2270.905379362434
 30
0.0
 11
882.8003524293231
 21
2271.395360558833
 31
0.0
  0
LINE
  5
3B5
  8
MAKE2D$VISIBLE$LINES
 10
882.8003524293231
 20
2271.395360558833
 30
0.0
 11
882.7648584878458
 21
2271.882506697055
 31
0.0
  0
LINE
  5
3B6
  8
MAKE2D$VISIBLE$LINES
 10
882.7648584878458
 20
2271.882506697055
 30
0.0
 11
882.7381963347766
 21
2272.366464361679
 31
0.0
  0
LINE
  5
3B7
  8
MAKE2D$VISIBLE$LINES
 10
882.7381963347766
 20
2272.366464361679
 30
0.0
 11
882.7105513320362
 21
2273.323487356742
 31
0.0
  0
LINE
  5
3B8
  8
MAKE2D$VISIBLE$LINES
 10
882.7105513320362
 20
2273.323487356742
 30
0.0
 11
882.5618123811821
 21
2286.217430517321
 31
0.0
  0
LINE
  5
3B9
  8
MAKE2D$VISIBLE$LINES
 10
882.5618123811821
 20
2286.217430517321
 30
0.0
 11
869.2151611275389
 21
2285.909210801796
 31
0.0
  0
LINE
  5
3BA
  8
MAKE2D$VISIBLE$LINES
 10
869.2151611275389
 20
2285.909210801796
 30
0.0
 11
869.8414511526787
 21
2234.509855098307
 31
0.0
  0
LINE
  5
3BB
  8
MAKE2D$VISIBLE$LINES
 10
930.0786165929563
 20
2235.544275387106
 30
0.0
 11
929.5999628323974
 21
2287.303701902955
 31
0.0
  0
LINE
  5
3BC
  8
MAKE2D$VISIBLE$LINES
 10
929.5999628323974
 20
2287.303701902955
 30
0.0
 11
930.7573967322998
 21
2286.850109433462
 31
0.0
  0
LINE
  5
3BD
  8
MAKE2D$VISIBLE$LINES
 10
904.719984073529
 20
2253.288853328237
 30
0.0
 11
904.4972534196767
 21
2274.552304223174
 31
0.0
  0
LINE
  5
3BE
  8
MAKE2D$VISIBLE$LINES
 10
904.4972534196767
 20
2274.552304223174
 30
0.0
 11
903.6757594227295
 21
2274.8398991721
 31
0.0
  0
LINE
  5
3BF
  8
MAKE2D$VISIBLE$LINES
 10
903.6757594227295
 20
2274.8398991721
 30
0.0
 11
901.1483982395939
 21
2274.784973810453
 31
0.0
  0
LINE
  5
3C0
  8
MAKE2D$VISIBLE$LINES
 10
901.1483982395939
 20
2274.784973810453
 30
0.0
 11
882.6192324045419
 21
2281.239779230828
 31
0.0
  0
LINE
  5
3C1
  8
MAKE2D$VISIBLE$LINES
 10
869.996537763732
 20
2234.469634352578
 30
0.0
 11
869.8414511526787
 21
2234.509855098307
 31
0.0
  0
LINE
  5
3C2
  8
MAKE2D$VISIBLE$LINES
 10
869.8414511526787
 20
2234.509855098307
 30
0.0
 11
930.0786165929563
 21
2235.544275387106
 31
0.0
  0
LINE
  5
3C3
  8
MAKE2D$VISIBLE$LINES
 10
930.0786165929563
 20
2235.544275387106
 30
0.0
 11
930.2184183043543
 21
2235.503494753686
 31
0.0
  0
LINE
  5
3C4
  8
MAKE2D$VISIBLE$LINES
 10
845.1316772989885
 20
2273.516543647913
 30
0.0
 11
846.0356969240829
 21
2273.232949611977
 31
0.0
  0
LINE
  5
3C5
  8
MAKE2D$VISIBLE$LINES
 10
846.0356969240829
 20
2273.232949611977
 30
0.0
 11
846.2878656403182
 21
2254.301654803588
 31
0.0
  0
LINE
  5
3C6
  8
MAKE2D$VISIBLE$LINES
 10
842.638820792966
 20
2273.462382851948
 30
0.0
 11
845.1316772989885
 21
2273.516543647913
 31
0.0
  0
LINE
  5
3C7
  8
MAKE2D$VISIBLE$LINES
 10
845.1316772989885
 20
2273.516543647913
 30
0.0
 11
845.3976120395968
 21
2253.617220373994
 31
0.0
  0
LINE
  5
3C8
  8
MAKE2D$VISIBLE$LINES
 10
820.7485081479136
 20
2280.29905154358
 30
0.0
 11
842.638820792966
 21
2273.462382851948
 31
0.0
  0
LINE
  5
3C9
  8
MAKE2D$VISIBLE$LINES
 10
842.638820792966
 20
2273.462382851948
 30
0.0
 11
842.9258333777295
 21
2252.179086704776
 31
0.0
  0
LINE
  5
3CA
  8
MAKE2D$VISIBLE$LINES
 10
869.2257154838389
 20
2285.043019274039
 30
0.0
 11
867.0399410674615
 21
2285.801178522122
 31
0.0
  0
LINE
  5
3CB
  8
MAKE2D$VISIBLE$LINES
 10
867.0399410674615
 20
2285.801178522122
 30
0.0
 11
867.671328619103
 21
2234.429716275671
 31
0.0
  0
LINE
  5
3CC
  8
MAKE2D$VISIBLE$LINES
 10
867.671328619103
 20
2234.429716275671
 30
0.0
 11
808.3050181308391
 21
2233.410543891435
 31
0.0
  0
LINE
  5
3CD
  8
MAKE2D$VISIBLE$LINES
 10
808.3050181308391
 20
2233.410543891435
 30
0.0
 11
807.5302985574689
 21
2284.427294074043
 31
0.0
  0
LINE
  5
3CE
  8
MAKE2D$VISIBLE$LINES
 10
807.5302985574689
 20
2284.427294074043
 30
0.0
 11
820.6840429162268
 21
2284.730971327784
 31
0.0
  0
LINE
  5
3CF
  8
MAKE2D$VISIBLE$LINES
 10
820.6840429162268
 20
2284.730971327784
 30
0.0
 11
820.8701931292501
 21
2271.933333070516
 31
0.0
  0
LINE
  5
3D0
  8
MAKE2D$VISIBLE$LINES
 10
820.8701931292501
 20
2271.933333070516
 30
0.0
 11
820.9003760292949
 21
2270.98345075082
 31
0.0
  0
LINE
  5
3D1
  8
MAKE2D$VISIBLE$LINES
 10
820.9003760292949
 20
2270.98345075082
 30
0.0
 11
820.928139094045
 21
2270.503101842388
 31
0.0
  0
LINE
  5
3D2
  8
MAKE2D$VISIBLE$LINES
 10
820.928139094045
 20
2270.503101842388
 30
0.0
 11
820.9646166563991
 21
2270.019586737616
 31
0.0
  0
LINE
  5
3D3
  8
MAKE2D$VISIBLE$LINES
 10
820.9646166563991
 20
2270.019586737616
 30
0.0
 11
821.0099981346738
 21
2269.533256191505
 31
0.0
  0
LINE
  5
3D4
  8
MAKE2D$VISIBLE$LINES
 10
821.0099981346738
 20
2269.533256191505
 30
0.0
 11
821.0644633027474
 21
2269.04447781947
 31
0.0
  0
LINE
  5
3D5
  8
MAKE2D$VISIBLE$LINES
 10
821.0644633027474
 20
2269.04447781947
 30
0.0
 11
821.1281813456944
 21
2268.553635688364
 31
0.0
  0
LINE
  5
3D6
  8
MAKE2D$VISIBLE$LINES
 10
821.1281813456944
 20
2268.553635688364
 30
0.0
 11
821.2013099171173
 21
2268.061129812206
 31
0.0
  0
LINE
  5
3D7
  8
MAKE2D$VISIBLE$LINES
 10
821.2013099171173
 20
2268.061129812206
 30
0.0
 11
821.2839942043406
 21
2267.567375550417
 31
0.0
  0
LINE
  5
3D8
  8
MAKE2D$VISIBLE$LINES
 10
821.2839942043406
 20
2267.567375550417
 30
0.0
 11
821.3763660079592
 21
2267.072802907094
 31
0.0
  0
LINE
  5
3D9
  8
MAKE2D$VISIBLE$LINES
 10
821.3763660079592
 20
2267.072802907094
 30
0.0
 11
821.4785428425156
 21
2266.577855730608
 31
0.0
  0
LINE
  5
3DA
  8
MAKE2D$VISIBLE$LINES
 10
821.4785428425156
 20
2266.577855730608
 30
0.0
 11
821.5906270652997
 21
2266.082990813633
 31
0.0
  0
LINE
  5
3DB
  8
MAKE2D$VISIBLE$LINES
 10
821.5906270652997
 20
2266.082990813633
 30
0.0
 11
821.7127050404267
 21
2265.588676894637
 31
0.0
  0
LINE
  5
3DC
  8
MAKE2D$VISIBLE$LINES
 10
821.7127050404267
 20
2265.588676894637
 30
0.0
 11
821.8448463454308
 21
2265.095393562727
 31
0.0
  0
LINE
  5
3DD
  8
MAKE2D$VISIBLE$LINES
 10
821.8448463454308
 20
2265.095393562727
 30
0.0
 11
821.9871030276272
 21
2264.603630068774
 31
0.0
  0
LINE
  5
3DE
  8
MAKE2D$VISIBLE$LINES
 10
821.9871030276272
 20
2264.603630068774
 30
0.0
 11
822.1395089174148
 21
2264.113884046701
 31
0.0
  0
LINE
  5
3DF
  8
MAKE2D$VISIBLE$LINES
 10
822.1395089174148
 20
2264.113884046701
 30
0.0
 11
822.3020790055343
 21
2263.626660149795
 31
0.0
  0
LINE
  5
3E0
  8
MAKE2D$VISIBLE$LINES
 10
822.3020790055343
 20
2263.626660149795
 30
0.0
 11
822.4748088910491
 21
2263.142468607956
 31
0.0
  0
LINE
  5
3E1
  8
MAKE2D$VISIBLE$LINES
 10
822.4748088910491
 20
2263.142468607956
 30
0.0
 11
822.6576743064619
 21
2262.66182371271
 31
0.0
  0
LINE
  5
3E2
  8
MAKE2D$VISIBLE$LINES
 10
822.6576743064619
 20
2262.66182371271
 30
0.0
 11
822.8506307259572
 21
2262.185242237817
 31
0.0
  0
LINE
  5
3E3
  8
MAKE2D$VISIBLE$LINES
 10
822.8506307259572
 20
2262.185242237817
 30
0.0
 11
823.0536130622255
 21
2261.713241804156
 31
0.0
  0
LINE
  5
3E4
  8
MAKE2D$VISIBLE$LINES
 10
823.0536130622255
 20
2261.713241804156
 30
0.0
 11
823.2665354567164
 21
2261.246339198443
 31
0.0
  0
LINE
  5
3E5
  8
MAKE2D$VISIBLE$LINES
 10
823.2665354567164
 20
2261.246339198443
 30
0.0
 11
823.4892911674739
 21
2260.785048656042
 31
0.0
  0
LINE
  5
3E6
  8
MAKE2D$VISIBLE$LINES
 10
823.4892911674739
 20
2260.785048656042
 30
0.0
 11
823.7217525579335
 21
2260.329880118844
 31
0.0
  0
LINE
  5
3E7
  8
MAKE2D$VISIBLE$LINES
 10
823.7217525579335
 20
2260.329880118844
 30
0.0
 11
823.9637711892252
 21
2259.8813374797
 31
0.0
  0
LINE
  5
3E8
  8
MAKE2D$VISIBLE$LINES
 10
823.9637711892252
 20
2259.8813374797
 30
0.0
 11
824.2151780176382
 21
2259.439916825331
 31
0.0
  0
LINE
  5
3E9
  8
MAKE2D$VISIBLE$LINES
 10
824.2151780176382
 20
2259.439916825331
 30
0.0
 11
824.4757836979559
 21
2259.006104689968
 31
0.0
  0
LINE
  5
3EA
  8
MAKE2D$VISIBLE$LINES
 10
824.4757836979559
 20
2259.006104689968
 30
0.0
 11
824.7453789924047
 21
2258.580376332086
 31
0.0
  0
LINE
  5
3EB
  8
MAKE2D$VISIBLE$LINES
 10
824.7453789924047
 20
2258.580376332086
 30
0.0
 11
825.0237352839689
 21
2258.163194046671
 31
0.0
  0
LINE
  5
3EC
  8
MAKE2D$VISIBLE$LINES
 10
825.0237352839689
 20
2258.163194046671
 30
0.0
 11
825.3106051918254
 21
2257.755005525283
 31
0.0
  0
LINE
  5
3ED
  8
MAKE2D$VISIBLE$LINES
 10
825.3106051918254
 20
2257.755005525283
 30
0.0
 11
825.605723285675
 21
2257.356242275912
 31
0.0
  0
LINE
  5
3EE
  8
MAKE2D$VISIBLE$LINES
 10
825.605723285675
 20
2257.356242275912
 30
0.0
 11
825.9088068947798
 21
2256.967318114208
 31
0.0
  0
LINE
  5
3EF
  8
MAKE2D$VISIBLE$LINES
 10
825.9088068947798
 20
2256.967318114208
 30
0.0
 11
826.2195570066037
 21
2256.588627737066
 31
0.0
  0
LINE
  5
3F0
  8
MAKE2D$VISIBLE$LINES
 10
826.2195570066037
 20
2256.588627737066
 30
0.0
 11
826.537659249087
 21
2256.220545388874
 31
0.0
  0
LINE
  5
3F1
  8
MAKE2D$VISIBLE$LINES
 10
826.537659249087
 20
2256.220545388874
 30
0.0
 11
826.8627849497856
 21
2255.863423629844
 31
0.0
  0
LINE
  5
3F2
  8
MAKE2D$VISIBLE$LINES
 10
826.8627849497856
 20
2255.863423629844
 30
0.0
 11
827.1945922643924
 21
2255.517592214966
 31
0.0
  0
LINE
  5
3F3
  8
MAKE2D$VISIBLE$LINES
 10
827.1945922643924
 20
2255.517592214966
 30
0.0
 11
827.5327273665317
 21
2255.183357091005
 31
0.0
  0
LINE
  5
3F4
  8
MAKE2D$VISIBLE$LINES
 10
827.5327273665317
 20
2255.183357091005
 30
0.0
 11
827.8768256901831
 21
2254.860999517865
 31
0.0
  0
LINE
  5
3F5
  8
MAKE2D$VISIBLE$LINES
 10
827.8768256901831
 20
2254.860999517865
 30
0.0
 11
828.2265132156855
 21
2254.550775319445
 31
0.0
  0
LINE
  5
3F6
  8
MAKE2D$VISIBLE$LINES
 10
828.2265132156855
 20
2254.550775319445
 30
0.0
 11
828.581407789946
 21
2254.252914267828
 31
0.0
  0
LINE
  5
3F7
  8
MAKE2D$VISIBLE$LINES
 10
828.581407789946
 20
2254.252914267828
 30
0.0
 11
828.9411204712987
 21
2253.967619603408
 31
0.0
  0
LINE
  5
3F8
  8
MAKE2D$VISIBLE$LINES
 10
828.9411204712987
 20
2253.967619603408
 30
0.0
 11
829.3052568893776
 21
2253.695067692234
 31
0.0
  0
LINE
  5
3F9
  8
MAKE2D$VISIBLE$LINES
 10
829.3052568893776
 20
2253.695067692234
 30
0.0
 11
829.6734186103982
 21
2253.435407820576
 31
0.0
  0
LINE
  5
3FA
  8
MAKE2D$VISIBLE$LINES
 10
829.6734186103982
 20
2253.435407820576
 30
0.0
 11
830.0452044984079
 21
2253.1887621255
 31
0.0
  0
LINE
  5
3FB
  8
MAKE2D$VISIBLE$LINES
 10
830.0452044984079
 20
2253.1887621255
 30
0.0
 11
830.420212063303
 21
2252.955225658978
 31
0.0
  0
LINE
  5
3FC
  8
MAKE2D$VISIBLE$LINES
 10
830.420212063303
 20
2252.955225658978
 30
0.0
 11
830.7980387867808
 21
2252.734866581947
 31
0.0
  0
LINE
  5
3FD
  8
MAKE2D$VISIBLE$LINES
 10
830.7980387867808
 20
2252.734866581947
 30
0.0
 11
831.178283417839
 21
2252.527726483665
 31
0.0
  0
LINE
  5
3FE
  8
MAKE2D$VISIBLE$LINES
 10
831.178283417839
 20
2252.527726483665
 30
0.0
 11
831.5605472299565
 21
2252.333820820699
 31
0.0
  0
LINE
  5
3FF
  8
MAKE2D$VISIBLE$LINES
 10
831.5605472299565
 20
2252.333820820699
 30
0.0
 11
831.9444352327056
 21
2252.153139469054
 31
0.0
  0
LINE
  5
400
  8
MAKE2D$VISIBLE$LINES
 10
831.9444352327056
 20
2252.153139469054
 30
0.0
 11
832.3295573311947
 21
2251.985647382116
 31
0.0
  0
LINE
  5
401
  8
MAKE2D$VISIBLE$LINES
 10
832.3295573311947
 20
2251.985647382116
 30
0.0
 11
832.7155294274481
 21
2251.831285346463
 31
0.0
  0
LINE
  5
402
  8
MAKE2D$VISIBLE$LINES
 10
832.7155294274481
 20
2251.831285346463
 30
0.0
 11
833.1019744585853
 21
2251.689970827069
 31
0.0
  0
LINE
  5
403
  8
MAKE2D$VISIBLE$LINES
 10
833.1019744585853
 20
2251.689970827069
 30
0.0
 11
833.4885233674186
 21
2251.561598892966
 31
0.0
  0
LINE
  5
404
  8
MAKE2D$VISIBLE$LINES
 10
833.4885233674186
 20
2251.561598892966
 30
0.0
 11
833.8748160018653
 21
2251.44604321415
 31
0.0
  0
LINE
  5
405
  8
MAKE2D$VISIBLE$LINES
 10
833.8748160018653
 20
2251.44604321415
 30
0.0
 11
834.260501940361
 21
2251.34315712035
 31
0.0
  0
LINE
  5
406
  8
MAKE2D$VISIBLE$LINES
 10
834.260501940361
 20
2251.34315712035
 30
0.0
 11
834.645241241217
 21
2251.252774712173
 31
0.0
  0
LINE
  5
407
  8
MAKE2D$VISIBLE$LINES
 10
834.645241241217
 20
2251.252774712173
 30
0.0
 11
835.0287051146198
 21
2251.174712015207
 31
0.0
  0
LINE
  5
408
  8
MAKE2D$VISIBLE$LINES
 10
835.0287051146198
 20
2251.174712015207
 30
0.0
 11
835.4105765166834
 21
2251.108768167776
 31
0.0
  0
LINE
  5
409
  8
MAKE2D$VISIBLE$LINES
 10
835.4105765166834
 20
2251.108768167776
 30
0.0
 11
835.7905506656529
 21
2251.054726633286
 31
0.0
  0
LINE
  5
40A
  8
MAKE2D$VISIBLE$LINES
 10
835.7905506656529
 20
2251.054726633286
 30
0.0
 11
836.1683354809923
 21
2251.012356428398
 31
0.0
  0
LINE
  5
40B
  8
MAKE2D$VISIBLE$LINES
 10
836.1683354809923
 20
2251.012356428398
 30
0.0
 11
836.5436519466783
 21
2250.981413358655
 31
0.0
  0
LINE
  5
40C
  8
MAKE2D$VISIBLE$LINES
 10
836.5436519466783
 20
2250.981413358655
 30
0.0
 11
836.9162344005606
 21
2250.96164125363
 31
0.0
  0
LINE
  5
40D
  8
MAKE2D$VISIBLE$LINES
 10
836.9162344005606
 20
2250.96164125363
 30
0.0
 11
837.2858307521268
 21
2250.952773194157
 31
0.0
  0
LINE
  5
40E
  8
MAKE2D$VISIBLE$LINES
 10
837.2858307521268
 20
2250.952773194157
 30
0.0
 11
837.6522026314356
 21
2250.954532724749
 31
0.0
  0
LINE
  5
40F
  8
MAKE2D$VISIBLE$LINES
 10
837.6522026314356
 20
2250.954532724749
 30
0.0
 11
838.0184612126347
 21
2250.966794144919
 31
0.0
  0
LINE
  5
410
  8
MAKE2D$VISIBLE$LINES
 10
838.0184612126347
 20
2250.966794144919
 30
0.0
 11
838.3877135978261
 21
2250.989804871104
 31
0.0
  0
LINE
  5
411
  8
MAKE2D$VISIBLE$LINES
 10
838.3877135978261
 20
2250.989804871104
 30
0.0
 11
838.7597153762488
 21
2251.023834960522
 31
0.0
  0
LINE
  5
412
  8
MAKE2D$VISIBLE$LINES
 10
838.7597153762488
 20
2251.023834960522
 30
0.0
 11
839.1342085205706
 21
2251.069144539831
 31
0.0
  0
LINE
  5
413
  8
MAKE2D$VISIBLE$LINES
 10
839.1342085205706
 20
2251.069144539831
 30
0.0
 11
839.5109215543451
 21
2251.125982588769
 31
0.0
  0
LINE
  5
414
  8
MAKE2D$VISIBLE$LINES
 10
839.5109215543451
 20
2251.125982588769
 30
0.0
 11
839.8895697890026
 21
2251.194585710054
 31
0.0
  0
LINE
  5
415
  8
MAKE2D$VISIBLE$LINES
 10
839.8895697890026
 20
2251.194585710054
 30
0.0
 11
840.2698556330926
 21
2251.275176892551
 31
0.0
  0
LINE
  5
416
  8
MAKE2D$VISIBLE$LINES
 10
840.2698556330926
 20
2251.275176892551
 30
0.0
 11
840.651468976077
 21
2251.367964275265
 31
0.0
  0
LINE
  5
417
  8
MAKE2D$VISIBLE$LINES
 10
840.651468976077
 20
2251.367964275265
 30
0.0
 11
841.0340876484669
 21
2251.473139920155
 31
0.0
  0
LINE
  5
418
  8
MAKE2D$VISIBLE$LINES
 10
841.0340876484669
 20
2251.473139920155
 30
0.0
 11
841.417377959564
 21
2251.590878602297
 31
0.0
  0
LINE
  5
419
  8
MAKE2D$VISIBLE$LINES
 10
841.417377959564
 20
2251.590878602297
 30
0.0
 11
841.8009953134607
 21
2251.721336626219
 31
0.0
  0
LINE
  5
41A
  8
MAKE2D$VISIBLE$LINES
 10
841.8009953134607
 20
2251.721336626219
 30
0.0
 11
842.1845849033089
 21
2251.864650677598
 31
0.0
  0
LINE
  5
41B
  8
MAKE2D$VISIBLE$LINES
 10
842.1845849033089
 20
2251.864650677598
 30
0.0
 11
842.567782483172
 21
2252.020936719721
 31
0.0
  0
LINE
  5
41C
  8
MAKE2D$VISIBLE$LINES
 10
842.567782483172
 20
2252.020936719721
 30
0.0
 11
842.9502152160476
 21
2252.190288944203
 31
0.0
  0
LINE
  5
41D
  8
MAKE2D$VISIBLE$LINES
 10
842.9502152160476
 20
2252.190288944203
 30
0.0
 11
843.3315025958888
 21
2252.372778785553
 31
0.0
  0
LINE
  5
41E
  8
MAKE2D$VISIBLE$LINES
 10
843.3315025958888
 20
2252.372778785553
 30
0.0
 11
843.7112574406746
 21
2252.568454009042
 31
0.0
  0
LINE
  5
41F
  8
MAKE2D$VISIBLE$LINES
 10
843.7112574406746
 20
2252.568454009042
 30
0.0
 11
844.0890869527888
 21
2252.777337881156
 31
0.0
  0
LINE
  5
420
  8
MAKE2D$VISIBLE$LINES
 10
844.0890869527888
 20
2252.777337881156
 30
0.0
 11
844.4645938421841
 21
2252.999428431618
 31
0.0
  0
LINE
  5
421
  8
MAKE2D$VISIBLE$LINES
 10
844.4645938421841
 20
2252.999428431618
 30
0.0
 11
844.8373775070236
 21
2253.234697815496
 31
0.0
  0
LINE
  5
422
  8
MAKE2D$VISIBLE$LINES
 10
844.8373775070236
 20
2253.234697815496
 30
0.0
 11
845.2070352657489
 21
2253.483091783378
 31
0.0
  0
LINE
  5
423
  8
MAKE2D$VISIBLE$LINES
 10
845.2070352657489
 20
2253.483091783378
 30
0.0
 11
845.5731636338044
 21
2253.744529266928
 31
0.0
  0
LINE
  5
424
  8
MAKE2D$VISIBLE$LINES
 10
845.5731636338044
 20
2253.744529266928
 30
0.0
 11
845.9353596375859
 21
2254.018902086319
 31
0.0
  0
LINE
  5
425
  8
MAKE2D$VISIBLE$LINES
 10
845.9353596375859
 20
2254.018902086319
 30
0.0
 11
846.293222157572
 21
2254.306074785156
 31
0.0
  0
LINE
  5
426
  8
MAKE2D$VISIBLE$LINES
 10
846.293222157572
 20
2254.306074785156
 30
0.0
 11
846.6463532920736
 21
2254.605884597491
 31
0.0
  0
LINE
  5
427
  8
MAKE2D$VISIBLE$LINES
 10
846.6463532920736
 20
2254.605884597491
 30
0.0
 11
846.9943597325824
 21
2254.91814155043
 31
0.0
  0
LINE
  5
428
  8
MAKE2D$VISIBLE$LINES
 10
846.9943597325824
 20
2254.91814155043
 30
0.0
 11
847.3368541413558
 21
2255.242628704701
 31
0.0
  0
LINE
  5
429
  8
MAKE2D$VISIBLE$LINES
 10
847.3368541413558
 20
2255.242628704701
 30
0.0
 11
847.6734565216161
 21
2255.579102534243
 31
0.0
  0
LINE
  5
42A
  8
MAKE2D$VISIBLE$LINES
 10
847.6734565216161
 20
2255.579102534243
 30
0.0
 11
848.0037955706063
 21
2255.927293444692
 31
0.0
  0
LINE
  5
42B
  8
MAKE2D$VISIBLE$LINES
 10
848.0037955706063
 20
2255.927293444692
 30
0.0
 11
848.3275100057188
 21
2256.286906429244
 31
0.0
  0
LINE
  5
42C
  8
MAKE2D$VISIBLE$LINES
 10
848.3275100057188
 20
2256.286906429244
 30
0.0
 11
848.6442498540013
 21
2256.657621859133
 31
0.0
  0
LINE
  5
42D
  8
MAKE2D$VISIBLE$LINES
 10
848.6442498540013
 20
2256.657621859133
 30
0.0
 11
848.9536776955551
 21
2257.039096404613
 31
0.0
  0
LINE
  5
42E
  8
MAKE2D$VISIBLE$LINES
 10
848.9536776955551
 20
2257.039096404613
 30
0.0
 11
849.2554698516713
 21
2257.430964081083
 31
0.0
  0
LINE
  5
42F
  8
MAKE2D$VISIBLE$LINES
 10
849.2554698516713
 20
2257.430964081083
 30
0.0
 11
849.5493175089848
 21
2257.832837413765
 31
0.0
  0
LINE
  5
430
  8
MAKE2D$VISIBLE$LINES
 10
849.5493175089848
 20
2257.832837413765
 30
0.0
 11
849.8349277714842
 21
2258.244308713192
 31
0.0
  0
LINE
  5
431
  8
MAKE2D$VISIBLE$LINES
 10
849.8349277714842
 20
2258.244308713192
 30
0.0
 11
850.1120246328633
 21
2258.66495145272
 31
0.0
  0
LINE
  5
432
  8
MAKE2D$VISIBLE$LINES
 10
850.1120246328633
 20
2258.66495145272
 30
0.0
 11
850.3803498624385
 21
2259.09432173827
 31
0.0
  0
LINE
  5
433
  8
MAKE2D$VISIBLE$LINES
 10
850.3803498624385
 20
2259.09432173827
 30
0.0
 11
850.6396637986928
 21
2259.531959859728
 31
0.0
  0
LINE
  5
434
  8
MAKE2D$VISIBLE$LINES
 10
850.6396637986928
 20
2259.531959859728
 30
0.0
 11
850.8897460453859
 21
2259.977391912672
 31
0.0
  0
LINE
  5
435
  8
MAKE2D$VISIBLE$LINES
 10
850.8897460453859
 20
2259.977391912672
 30
0.0
 11
851.1303960661222
 21
2260.430131478538
 31
0.0
  0
LINE
  5
436
  8
MAKE2D$VISIBLE$LINES
 10
851.1303960661222
 20
2260.430131478538
 30
0.0
 11
851.3614336742595
 21
2260.889681350933
 31
0.0
  0
LINE
  5
437
  8
MAKE2D$VISIBLE$LINES
 10
851.3614336742595
 20
2260.889681350933
 30
0.0
 11
851.5826994160394
 21
2261.355535295497
 31
0.0
  0
LINE
  5
438
  8
MAKE2D$VISIBLE$LINES
 10
851.5826994160394
 20
2261.355535295497
 30
0.0
 11
851.7940548458536
 21
2261.827179830646
 31
0.0
  0
LINE
  5
439
  8
MAKE2D$VISIBLE$LINES
 10
851.7940548458536
 20
2261.827179830646
 30
0.0
 11
851.9953826935625
 21
2262.304096016511
 31
0.0
  0
LINE
  5
43A
  8
MAKE2D$VISIBLE$LINES
 10
851.9953826935625
 20
2262.304096016511
 30
0.0
 11
852.186586924785
 21
2262.785761239631
 31
0.0
  0
LINE
  5
43B
  8
MAKE2D$VISIBLE$LINES
 10
852.186586924785
 20
2262.785761239631
 30
0.0
 11
852.3675926960249
 21
2263.271650981224
 31
0.0
  0
LINE
  5
43C
  8
MAKE2D$VISIBLE$LINES
 10
852.3675926960249
 20
2263.271650981224
 30
0.0
 11
852.5383462074191
 21
2263.761240557378
 31
0.0
  0
LINE
  5
43D
  8
MAKE2D$VISIBLE$LINES
 10
852.5383462074191
 20
2263.761240557378
 30
0.0
 11
852.6988144567337
 21
2264.254006820034
 31
0.0
  0
LINE
  5
43E
  8
MAKE2D$VISIBLE$LINES
 10
852.6988144567337
 20
2264.254006820034
 30
0.0
 11
852.8489848990213
 21
2264.749429808378
 31
0.0
  0
LINE
  5
43F
  8
MAKE2D$VISIBLE$LINES
 10
852.8489848990213
 20
2264.749429808378
 30
0.0
 11
852.9888650170462
 21
2265.246994340989
 31
0.0
  0
LINE
  5
440
  8
MAKE2D$VISIBLE$LINES
 10
852.9888650170462
 20
2265.246994340989
 30
0.0
 11
853.118481808207
 21
2265.74619154001
 31
0.0
  0
LINE
  5
441
  8
MAKE2D$VISIBLE$LINES
 10
853.118481808207
 20
2265.74619154001
 30
0.0
 11
853.2378811942035
 21
2266.246520279508
 31
0.0
  0
LINE
  5
442
  8
MAKE2D$VISIBLE$LINES
 10
853.2378811942035
 20
2266.246520279508
 30
0.0
 11
853.3471273601364
 21
2266.747488551178
 31
0.0
  0
LINE
  5
443
  8
MAKE2D$VISIBLE$LINES
 10
853.3471273601364
 20
2266.747488551178
 30
0.0
 11
853.4463020300525
 21
2267.248614741562
 31
0.0
  0
LINE
  5
444
  8
MAKE2D$VISIBLE$LINES
 10
853.4463020300525
 20
2267.248614741562
 30
0.0
 11
853.5355036862022
 21
2267.749428815983
 31
0.0
  0
LINE
  5
445
  8
MAKE2D$VISIBLE$LINES
 10
853.5355036862022
 20
2267.749428815983
 30
0.0
 11
853.6148467394138
 21
2268.249473405409
 31
0.0
  0
LINE
  5
446
  8
MAKE2D$VISIBLE$LINES
 10
853.6148467394138
 20
2268.249473405409
 30
0.0
 11
853.6844606580537
 21
2268.748304793501
 31
0.0
  0
LINE
  5
447
  8
MAKE2D$VISIBLE$LINES
 10
853.6844606580537
 20
2268.748304793501
 30
0.0
 11
853.7444890630206
 21
2269.245493802066
 31
0.0
  0
LINE
  5
448
  8
MAKE2D$VISIBLE$LINES
 10
853.7444890630206
 20
2269.245493802066
 30
0.0
 11
853.7950887961018
 21
2269.740626574106
 31
0.0
  0
LINE
  5
449
  8
MAKE2D$VISIBLE$LINES
 10
853.7950887961018
 20
2269.740626574106
 30
0.0
 11
853.8364289688571
 21
2270.233305254545
 31
0.0
  0
LINE
  5
44A
  8
MAKE2D$VISIBLE$LINES
 10
853.8364289688571
 20
2270.233305254545
 30
0.0
 11
853.8686899989435
 21
2270.723148569559
 31
0.0
  0
LINE
  5
44B
  8
MAKE2D$VISIBLE$LINES
 10
853.8686899989435
 20
2270.723148569559
 30
0.0
 11
853.8920626404965
 21
2271.209792306239
 31
0.0
  0
LINE
  5
44C
  8
MAKE2D$VISIBLE$LINES
 10
853.8920626404965
 20
2271.209792306239
 30
0.0
 11
853.9067470148291
 21
2271.692889694995
 31
0.0
  0
LINE
  5
44D
  8
MAKE2D$VISIBLE$LINES
 10
853.9067470148291
 20
2271.692889694995
 30
0.0
 11
853.9108925159625
 21
2272.647147205673
 31
0.0
  0
LINE
  5
44E
  8
MAKE2D$VISIBLE$LINES
 10
853.9108925159625
 20
2272.647147205673
 30
0.0
 11
853.7446850133479
 21
2285.494234222752
 31
0.0
  0
LINE
  5
44F
  8
MAKE2D$VISIBLE$LINES
 10
853.7446850133479
 20
2285.494234222752
 30
0.0
 11
867.0399410674615
 21
2285.801178522122
 31
0.0
  0
LINE
  5
450
  8
MAKE2D$VISIBLE$LINES
 10
938.6200037495101
 20
2162.710195942282
 30
0.0
 11
939.6376734614138
 21
2162.554758043404
 31
0.0
  0
LINE
  5
451
  8
MAKE2D$VISIBLE$LINES
 10
939.6376734614138
 20
2162.554758043404
 30
0.0
 11
939.5624508404627
 21
2171.090148179835
 31
0.0
  0
LINE
  5
452
  8
MAKE2D$VISIBLE$LINES
 10
939.5624508404627
 20
2171.090148179835
 30
0.0
 11
938.5442037164954
 21
2171.26285281553
 31
0.0
  0
LINE
  5
453
  8
MAKE2D$VISIBLE$LINES
 10
740.2181294953473
 20
2223.82835667485
 30
0.0
 11
740.0624171007587
 21
2232.238987602586
 31
0.0
  0
LINE
  5
454
  8
MAKE2D$VISIBLE$LINES
 10
740.0624171007587
 20
2232.238987602586
 30
0.0
 11
743.2875590952348
 21
2232.294355295626
 31
0.0
  0
LINE
  5
455
  8
MAKE2D$VISIBLE$LINES
 10
965.1886116335131
 20
2219.445054249979
 30
0.0
 11
966.1041925523156
 21
2219.189157962407
 31
0.0
  0
LINE
  5
456
  8
MAKE2D$VISIBLE$LINES
 10
966.1041925523156
 20
2219.189157962407
 30
0.0
 11
966.0432622940431
 21
2227.315979373991
 31
0.0
  0
LINE
  5
457
  8
MAKE2D$VISIBLE$LINES
 10
966.0432622940431
 20
2227.315979373991
 30
0.0
 11
965.1272010787204
 21
2227.587526950059
 31
0.0
  0
LINE
  5
458
  8
MAKE2D$VISIBLE$LINES
 10
938.0499531192838
 20
2227.030055008363
 30
0.0
 11
939.0719683347438
 21
2226.744411332193
 31
0.0
  0
LINE
  5
459
  8
MAKE2D$VISIBLE$LINES
 10
939.0719683347438
 20
2226.744411332193
 30
0.0
 11
938.9962724205288
 21
2235.333505296106
 31
0.0
  0
LINE
  5
45A
  8
MAKE2D$VISIBLE$LINES
 10
938.9962724205288
 20
2235.333505296106
 30
0.0
 11
937.9736751944797
 21
2235.636633289501
 31
0.0
  0
LINE
  5
45B
  8
MAKE2D$VISIBLE$LINES
 10
965.6476408261153
 20
2158.582020494299
 30
0.0
 11
966.559634570422
 21
2158.442723441683
 31
0.0
  0
LINE
  5
45C
  8
MAKE2D$VISIBLE$LINES
 10
966.559634570422
 20
2158.442723441683
 30
0.0
 11
966.4990650055402
 21
2166.521435902885
 31
0.0
  0
LINE
  5
45D
  8
MAKE2D$VISIBLE$LINES
 10
966.4990650055402
 20
2166.521435902885
 30
0.0
 11
965.5865945003065
 21
2166.676199793182
 31
0.0
  0
LINE
  5
45E
  8
MAKE2D$VISIBLE$LINES
 10
779.2246031410024
 20
2276.159143238983
 30
0.0
 11
774.3252085586537
 21
2276.050373834295
 31
0.0
  0
LINE
  5
45F
  8
MAKE2D$VISIBLE$LINES
 10
774.3252085586537
 20
2276.050373834295
 30
0.0
 11
773.0670806383403
 21
2276.408127475823
 31
0.0
  0
LINE
  5
460
  8
MAKE2D$VISIBLE$LINES
 10
773.0670806383403
 20
2276.408127475823
 30
0.0
 11
779.2182105605709
 21
2276.544962422716
 31
0.0
  0
LINE
  5
461
  8
MAKE2D$VISIBLE$LINES
 10
773.0670806383403
 20
2276.408127475823
 30
0.0
 11
772.9319555844479
 21
2284.418753420593
 31
0.0
  0
LINE
  5
462
  8
MAKE2D$VISIBLE$LINES
 10
772.9319555844479
 20
2284.418753420593
 30
0.0
 11
779.0853876936407
 21
2284.56138249905
 31
0.0
  0
LINE
  5
463
  8
MAKE2D$VISIBLE$LINES
 10
779.0853876936407
 20
2284.56138249905
 30
0.0
 11
782.1654122972261
 21
2284.632773726423
 31
0.0
  0
LINE
  5
464
  8
MAKE2D$VISIBLE$LINES
 10
782.1654122972261
 20
2284.632773726423
 30
0.0
 11
930.7461224764171
 21
2288.076694028654
 31
0.0
  0
LINE
  5
465
  8
MAKE2D$VISIBLE$LINES
 10
742.2884713629096
 20
2286.72138807159
 30
0.0
 11
737.2176100649945
 21
2286.602065975539
 31
0.0
  0
LINE
  5
466
  8
MAKE2D$VISIBLE$LINES
 10
737.2176100649945
 20
2286.602065975539
 30
0.0
 11
735.8162224722466
 21
2287.000556070546
 31
0.0
  0
LINE
  5
467
  8
MAKE2D$VISIBLE$LINES
 10
735.8162224722466
 20
2287.000556070546
 30
0.0
 11
742.2805486065097
 21
2287.152993933809
 31
0.0
  0
LINE
  5
468
  8
MAKE2D$VISIBLE$LINES
 10
931.3110153579711
 20
2226.619076483296
 30
0.0
 11
748.0455722012645
 21
2223.659446822521
 31
0.0
  0
LINE
  5
469
  8
MAKE2D$VISIBLE$LINES
 10
748.0455722012645
 20
2223.659446822521
 30
0.0
 11
746.6683158055507
 21
2223.932746102102
 31
0.0
  0
LINE
  5
46A
  8
MAKE2D$VISIBLE$LINES
 10
746.6683158055507
 20
2223.932746102102
 30
0.0
 11
743.4420071239288
 21
2223.880531716468
 31
0.0
  0
LINE
  5
46B
  8
MAKE2D$VISIBLE$LINES
 10
743.4420071239288
 20
2223.880531716468
 30
0.0
 11
744.4428387551777
 21
2169.358497029561
 31
0.0
  0
LINE
  5
46C
  8
MAKE2D$VISIBLE$LINES
 10
744.4428387551777
 20
2169.358497029561
 30
0.0
 11
747.6609404796736
 21
2169.390070278107
 31
0.0
  0
LINE
  5
46D
  8
MAKE2D$VISIBLE$LINES
 10
747.6609404796736
 20
2169.390070278107
 30
0.0
 11
746.6683158055507
 21
2223.932746102102
 31
0.0
  0
LINE
  5
46E
  8
MAKE2D$VISIBLE$LINES
 10
746.6683158055507
 20
2223.932746102102
 30
0.0
 11
931.3082406846628
 21
2226.92094753985
 31
0.0
  0
LINE
  5
46F
  8
MAKE2D$VISIBLE$LINES
 10
930.7178251497369
 20
2291.155306518656
 30
0.0
 11
746.9001585065823
 21
2286.829905371509
 31
0.0
  0
LINE
  5
470
  8
MAKE2D$VISIBLE$LINES
 10
746.9001585065823
 20
2286.829905371509
 30
0.0
 11
745.5163789123618
 21
2287.229299344066
 31
0.0
  0
LINE
  5
471
  8
MAKE2D$VISIBLE$LINES
 10
745.5163789123618
 20
2287.229299344066
 30
0.0
 11
742.2805486065097
 21
2287.152993933809
 31
0.0
  0
LINE
  5
472
  8
MAKE2D$VISIBLE$LINES
 10
742.2805486065097
 20
2287.152993933809
 30
0.0
 11
743.2875590952349
 21
2232.294355295626
 31
0.0
  0
LINE
  5
473
  8
MAKE2D$VISIBLE$LINES
 10
743.2875590952349
 20
2232.294355295626
 30
0.0
 11
746.5151340946518
 21
2232.349764757329
 31
0.0
  0
LINE
  5
474
  8
MAKE2D$VISIBLE$LINES
 10
746.5151340946518
 20
2232.349764757329
 30
0.0
 11
745.5163789123618
 21
2287.229299344066
 31
0.0
  0
LINE
  5
475
  8
MAKE2D$VISIBLE$LINES
 10
745.5163789123618
 20
2287.229299344066
 30
0.0
 11
930.7137697614372
 21
2291.596513181452
 31
0.0
  0
LINE
  5
476
  8
MAKE2D$VISIBLE$LINES
 10
781.2564988387967
 20
2153.525670243881
 30
0.0
 11
781.19819801635
 21
2157.044370708117
 31
0.0
  0
LINE
  5
477
  8
MAKE2D$VISIBLE$LINES
 10
781.19819801635
 20
2157.044370708117
 30
0.0
 11
784.2598676311565
 21
2157.069894101177
 31
0.0
  0
LINE
  5
478
  8
MAKE2D$VISIBLE$LINES
 10
784.2598676311565
 20
2157.069894101177
 30
0.0
 11
784.323230226509
 21
2153.210792886282
 31
0.0
  0
LINE
  5
479
  8
MAKE2D$VISIBLE$LINES
 10
780.2633096202205
 20
2213.468827438129
 30
0.0
 11
780.2110905517707
 21
2216.620468404501
 31
0.0
  0
LINE
  5
47A
  8
MAKE2D$VISIBLE$LINES
 10
780.2110905517707
 20
2216.620468404501
 30
0.0
 11
783.281336797845
 21
2216.667350717758
 31
0.0
  0
LINE
  5
47B
  8
MAKE2D$VISIBLE$LINES
 10
783.281336797845
 20
2216.667350717758
 30
0.0
 11
783.3436003960608
 21
2212.875183964164
 31
0.0
  0
LINE
  5
47C
  8
MAKE2D$VISIBLE$LINES
 10
792.0732573768943
 20
2276.44439082392
 30
0.0
 11
783.539253659924
 21
2276.254930985916
 31
0.0
  0
LINE
  5
47D
  8
MAKE2D$VISIBLE$LINES
 10
783.539253659924
 20
2276.254930985916
 30
0.0
 11
782.3047898978291
 21
2276.611228613066
 31
0.0
  0
LINE
  5
47E
  8
MAKE2D$VISIBLE$LINES
 10
782.3047898978291
 20
2276.611228613066
 30
0.0
 11
792.0670967823787
 21
2276.830792292355
 31
0.0
  0
LINE
  5
47F
  8
MAKE2D$VISIBLE$LINES
 10
779.2642754099581
 20
2273.764754526477
 30
0.0
 11
779.2182105605709
 21
2276.544962422716
 31
0.0
  0
LINE
  5
480
  8
MAKE2D$VISIBLE$LINES
 10
779.2182105605709
 20
2276.544962422716
 30
0.0
 11
782.297081542991
 21
2276.613453440252
 31
0.0
  0
LINE
  5
481
  8
MAKE2D$VISIBLE$LINES
 10
782.297081542991
 20
2276.613453440252
 30
0.0
 11
782.3582321728295
 21
2272.88907206686
 31
0.0
  0
LINE
  5
482
  8
MAKE2D$VISIBLE$LINES
 10
966.1041925523156
 20
2219.189157962407
 30
0.0
 11
962.9084399796918
 21
2219.140457415956
 31
0.0
  0
LINE
  5
483
  8
MAKE2D$VISIBLE$LINES
 10
962.9084399796918
 20
2219.140457415956
 30
0.0
 11
961.9870829592057
 21
2219.396167268877
 31
0.0
  0
LINE
  5
484
  8
MAKE2D$VISIBLE$LINES
 10
961.9870829592057
 20
2219.396167268877
 30
0.0
 11
958.7878885779991
 21
2219.347315932167
 31
0.0
  0
LINE
  5
485
  8
MAKE2D$VISIBLE$LINES
 10
958.7878885779991
 20
2219.347315932167
 30
0.0
 11
959.2020483910087
 21
2166.617088672449
 31
0.0
  0
LINE
  5
486
  8
MAKE2D$VISIBLE$LINES
 10
959.2020483910087
 20
2166.617088672449
 30
0.0
 11
962.393160244989
 21
2166.646633481875
 31
0.0
  0
LINE
  5
487
  8
MAKE2D$VISIBLE$LINES
 10
967.9430230523793
 20
2280.348801745207
 30
0.0
 11
962.4409253151227
 21
2280.226651980506
 31
0.0
  0
LINE
  5
488
  8
MAKE2D$VISIBLE$LINES
 10
962.4409253151227
 20
2280.226651980506
 30
0.0
 11
961.5159206115082
 21
2280.600265722914
 31
0.0
  0
LINE
  5
489
  8
MAKE2D$VISIBLE$LINES
 10
961.5159206115082
 20
2280.600265722914
 30
0.0
 11
958.3073492295675
 21
2280.528889455431
 31
0.0
  0
LINE
  5
48A
  8
MAKE2D$VISIBLE$LINES
 10
958.3073492295675
 20
2280.528889455431
 30
0.0
 11
958.7239819857713
 21
2227.483810651625
 31
0.0
  0
LINE
  5
48B
  8
MAKE2D$VISIBLE$LINES
 10
958.7239819857713
 20
2227.483810651625
 30
0.0
 11
961.9244234668927
 21
2227.535649881075
 31
0.0
  0
LINE
  5
48C
  8
MAKE2D$VISIBLE$LINES
 10
939.0719683347438
 20
2226.744411332193
 30
0.0
 11
935.7062184601081
 21
2226.690056441341
 31
0.0
  0
LINE
  5
48D
  8
MAKE2D$VISIBLE$LINES
 10
935.7062184601081
 20
2226.690056441341
 30
0.0
 11
934.6777980448385
 21
2226.975480253481
 31
0.0
  0
LINE
  5
48E
  8
MAKE2D$VISIBLE$LINES
 10
934.6777980448385
 20
2226.975480253481
 30
0.0
 11
931.3082406846628
 21
2226.92094753985
 31
0.0
  0
LINE
  5
48F
  8
MAKE2D$VISIBLE$LINES
 10
931.3082406846628
 20
2226.92094753985
 30
0.0
 11
931.8204331116032
 21
2171.196884956636
 31
0.0
  0
LINE
  5
490
  8
MAKE2D$VISIBLE$LINES
 10
931.8204331116032
 20
2171.196884956636
 30
0.0
 11
935.1810265353672
 21
2171.22985621128
 31
0.0
  0
LINE
  5
491
  8
MAKE2D$VISIBLE$LINES
 10
935.1810265353672
 20
2171.22985621128
 30
0.0
 11
934.6777980448385
 21
2226.975480253481
 31
0.0
  0
LINE
  5
492
  8
MAKE2D$VISIBLE$LINES
 10
934.6777980448385
 20
2226.975480253481
 30
0.0
 11
938.0499531192838
 21
2227.030055008363
 31
0.0
  0
LINE
  5
493
  8
MAKE2D$VISIBLE$LINES
 10
938.0499531192838
 20
2227.030055008363
 30
0.0
 11
937.9736751944797
 21
2235.636633289501
 31
0.0
  0
LINE
  5
494
  8
MAKE2D$VISIBLE$LINES
 10
937.9736751944797
 20
2235.636633289501
 30
0.0
 11
934.6001346515275
 21
2235.578717961258
 31
0.0
  0
LINE
  5
495
  8
MAKE2D$VISIBLE$LINES
 10
940.8653366688111
 20
2291.394086929521
 30
0.0
 11
935.1265698311474
 21
2291.259048393149
 31
0.0
  0
LINE
  5
496
  8
MAKE2D$VISIBLE$LINES
 10
935.1265698311474
 20
2291.259048393149
 30
0.0
 11
934.0937297016307
 21
2291.676217370334
 31
0.0
  0
LINE
  5
497
  8
MAKE2D$VISIBLE$LINES
 10
934.0937297016307
 20
2291.676217370334
 30
0.0
 11
930.7137697614372
 21
2291.596513181452
 31
0.0
  0
LINE
  5
498
  8
MAKE2D$VISIBLE$LINES
 10
930.7137697614372
 20
2291.596513181452
 30
0.0
 11
931.2291939800942
 21
2235.520847266365
 31
0.0
  0
LINE
  5
499
  8
MAKE2D$VISIBLE$LINES
 10
931.2291939800942
 20
2235.520847266365
 30
0.0
 11
934.6001346515276
 21
2235.578717961258
 31
0.0
  0
LINE
  5
49A
  8
MAKE2D$VISIBLE$LINES
 10
934.6001346515276
 20
2235.578717961258
 30
0.0
 11
934.0937297016305
 21
2291.676217370334
 31
0.0
  0
LINE
  5
49B
  8
MAKE2D$VISIBLE$LINES
 10
934.0937297016305
 20
2291.676217370334
 30
0.0
 11
940.8614944936003
 21
2291.835810742098
 31
0.0
  0
LINE
  5
49C
  8
MAKE2D$VISIBLE$LINES
 10
971.9804403634096
 20
2166.735397015395
 30
0.0
 11
972.8813910655701
 21
2166.580407828273
 31
0.0
  0
LINE
  5
49D
  8
MAKE2D$VISIBLE$LINES
 10
972.8813910655701
 20
2166.580407828273
 30
0.0
 11
969.6890686061942
 21
2166.550911152591
 31
0.0
  0
LINE
  5
49E
  8
MAKE2D$VISIBLE$LINES
 10
969.6890686061942
 20
2166.550911152591
 30
0.0
 11
968.7823536931519
 21
2166.70578762985
 31
0.0
  0
LINE
  5
49F
  8
MAKE2D$VISIBLE$LINES
 10
971.5986820881976
 20
2219.542935301519
 30
0.0
 11
971.9804403634096
 21
2166.735397015395
 31
0.0
  0
LINE
  5
4A0
  8
MAKE2D$VISIBLE$LINES
 10
971.9804403634096
 20
2166.735397015395
 30
0.0
 11
968.7823536931519
 21
2166.70578762985
 31
0.0
  0
LINE
  5
4A1
  8
MAKE2D$VISIBLE$LINES
 10
968.7823536931519
 20
2166.70578762985
 30
0.0
 11
968.39247715668
 21
2219.493976914498
 31
0.0
  0
LINE
  5
4A2
  8
MAKE2D$VISIBLE$LINES
 10
968.39247715668
 20
2219.493976914498
 30
0.0
 11
971.5986820881976
 21
2219.542935301519
 31
0.0
  0
LINE
  5
4A3
  8
MAKE2D$VISIBLE$LINES
 10
971.5986820881976
 20
2219.542935301519
 30
0.0
 11
972.5026847774647
 21
2219.286665532452
 31
0.0
  0
LINE
  5
4A4
  8
MAKE2D$VISIBLE$LINES
 10
972.5026847774647
 20
2219.286665532452
 30
0.0
 11
972.4442488910566
 21
2227.419450714342
 31
0.0
  0
LINE
  5
4A5
  8
MAKE2D$VISIBLE$LINES
 10
971.5397749333819
 20
2227.691394772476
 30
0.0
 11
972.4442488910566
 21
2227.419450714342
 31
0.0
  0
LINE
  5
4A6
  8
MAKE2D$VISIBLE$LINES
 10
972.4442488910566
 20
2227.419450714342
 30
0.0
 11
969.2425893141528
 21
2227.367696191387
 31
0.0
  0
LINE
  5
4A7
  8
MAKE2D$VISIBLE$LINES
 10
969.2425893141528
 20
2227.367696191387
 30
0.0
 11
968.3323173800416
 21
2227.639441900024
 31
0.0
  0
LINE
  5
4A8
  8
MAKE2D$VISIBLE$LINES
 10
945.2783212789849
 20
2171.32892218988
 30
0.0
 11
946.2837956679232
 21
2171.155951950954
 31
0.0
  0
LINE
  5
4A9
  8
MAKE2D$VISIBLE$LINES
 10
946.2837956679232
 20
2171.155951950954
 30
0.0
 11
942.9218334487131
 21
2171.123037437852
 31
0.0
  0
LINE
  5
4AA
  8
MAKE2D$VISIBLE$LINES
 10
942.9218334487131
 20
2171.123037437852
 30
0.0
 11
941.909967635876
 21
2171.295874798634
 31
0.0
  0
LINE
  5
4AB
  8
MAKE2D$VISIBLE$LINES
 10
944.8020684362882
 20
2227.1393308365
 30
0.0
 11
945.2783212789849
 21
2171.32892218988
 31
0.0
  0
LINE
  5
4AC
  8
MAKE2D$VISIBLE$LINES
 10
945.2783212789849
 20
2171.32892218988
 30
0.0
 11
941.909967635876
 21
2171.295874798634
 31
0.0
  0
LINE
  5
4AD
  8
MAKE2D$VISIBLE$LINES
 10
941.909967635876
 20
2171.295874798634
 30
0.0
 11
941.4247089131657
 21
2227.084671853132
 31
0.0
  0
LINE
  5
4AE
  8
MAKE2D$VISIBLE$LINES
 10
941.4247089131657
 20
2227.084671853132
 30
0.0
 11
944.8020684362882
 21
2227.1393308365
 31
0.0
  0
LINE
  5
4AF
  8
MAKE2D$VISIBLE$LINES
 10
944.8020684362882
 20
2227.1393308365
 30
0.0
 11
945.8112427033552
 21
2226.85324666945
 31
0.0
  0
LINE
  5
4B0
  8
MAKE2D$VISIBLE$LINES
 10
945.8112427033552
 20
2226.85324666945
 30
0.0
 11
945.738313670118
 21
2235.449002409674
 31
0.0
  0
LINE
  5
4B1
  8
MAKE2D$VISIBLE$LINES
 10
944.7285679352864
 20
2235.752598052736
 30
0.0
 11
945.738313670118
 21
2235.449002409674
 31
0.0
  0
LINE
  5
4B2
  8
MAKE2D$VISIBLE$LINES
 10
945.738313670118
 20
2235.449002409674
 30
0.0
 11
942.3659952020715
 21
2235.39123161969
 31
0.0
  0
LINE
  5
4B3
  8
MAKE2D$VISIBLE$LINES
 10
942.3659952020715
 20
2235.39123161969
 30
0.0
 11
941.3498186178757
 21
2235.694593302748
 31
0.0
  0
LINE
  5
4B4
  8
MAKE2D$VISIBLE$LINES
 10
806.8549431043034
 20
2233.385649697911
 30
0.0
 11
806.0810729721027
 21
2284.110250229138
 31
0.0
  0
LINE
  5
4B5
  8
MAKE2D$VISIBLE$LINES
 10
806.0810729721027
 20
2284.110250229138
 30
0.0
 11
807.5420151119805
 21
2283.655736781183
 31
0.0
  0
LINE
  5
4B6
  8
MAKE2D$VISIBLE$LINES
 10
807.8222743229956
 20
2169.980321584268
 30
0.0
 11
807.0518199574781
 21
2220.481030026493
 31
0.0
  0
LINE
  5
4B7
  8
MAKE2D$VISIBLE$LINES
 10
807.0518199574781
 20
2220.481030026493
 30
0.0
 11
808.5060379681784
 21
2220.173007139014
 31
0.0
  0
LINE
  5
4B8
  8
MAKE2D$VISIBLE$LINES
 10
780.2154663231596
 20
2216.356372150433
 30
0.0
 11
778.3903384562994
 21
2216.328558756737
 31
0.0
  0
LINE
  5
4B9
  8
MAKE2D$VISIBLE$LINES
 10
778.3903384562994
 20
2216.328558756737
 30
0.0
 11
777.143036525147
 21
2216.573619566188
 31
0.0
  0
LINE
  5
4BA
  8
MAKE2D$VISIBLE$LINES
 10
777.143036525147
 20
2216.573619566188
 30
0.0
 11
780.2110905517707
 21
2216.620468404501
 31
0.0
  0
LINE
  5
4BB
  8
MAKE2D$VISIBLE$LINES
 10
781.2005802644672
 20
2156.900591989319
 30
0.0
 11
779.3805375946324
 21
2156.885449782987
 31
0.0
  0
LINE
  5
4BC
  8
MAKE2D$VISIBLE$LINES
 10
779.3805375946324
 20
2156.885449782987
 30
0.0
 11
778.1387081444695
 21
2157.01886548633
 31
0.0
  0
LINE
  5
4BD
  8
MAKE2D$VISIBLE$LINES
 10
778.1387081444695
 20
2157.01886548633
 30
0.0
 11
781.1981980163499
 21
2157.044370708117
 31
0.0
  0
LINE
  5
4BE
  8
MAKE2D$VISIBLE$LINES
 10
744.5992911489011
 20
2160.835482197606
 30
0.0
 11
742.7643124923497
 21
2160.819306743091
 31
0.0
  0
LINE
  5
4BF
  8
MAKE2D$VISIBLE$LINES
 10
742.7643124923497
 20
2160.819306743091
 30
0.0
 11
741.3819142441274
 21
2160.967824427675
 31
0.0
  0
LINE
  5
4C0
  8
MAKE2D$VISIBLE$LINES
 10
741.3819142441274
 20
2160.967824427675
 30
0.0
 11
744.5963405682278
 21
2160.996220184686
 31
0.0
  0
LINE
  5
4C1
  8
MAKE2D$VISIBLE$LINES
 10
743.4474285620762
 20
2223.585189493563
 30
0.0
 11
741.6070651516155
 21
2223.555468701457
 31
0.0
  0
LINE
  5
4C2
  8
MAKE2D$VISIBLE$LINES
 10
741.6070651516155
 20
2223.555468701457
 30
0.0
 11
740.2181294953473
 21
2223.82835667485
 31
0.0
  0
LINE
  5
4C3
  8
MAKE2D$VISIBLE$LINES
 10
740.2181294953473
 20
2223.82835667485
 30
0.0
 11
743.4420071239288
 21
2223.880531716468
 31
0.0
  0
LINE
  5
4C4
  8
MAKE2D$VISIBLE$LINES
 10
805.060798381403
 20
2284.427667674649
 30
0.0
 11
806.0810729721027
 21
2284.110250229138
 31
0.0
  0
LINE
  5
4C5
  8
MAKE2D$VISIBLE$LINES
 10
806.0362534887211
 20
2220.696140631526
 30
0.0
 11
807.0518199574781
 21
2220.481030026493
 31
0.0
  0
LINE
  5
4C6
  8
MAKE2D$VISIBLE$LINES
 10
807.0056804992871
 20
2157.358460325488
 30
0.0
 11
808.0165774494376
 21
2157.244401097581
 31
0.0
  0
LINE
  5
4C7
  8
MAKE2D$VISIBLE$LINES
 10
788.9999041417343
 20
2153.001033497725
 30
0.0
 11
789.97649485642
 21
2152.900359128916
 31
0.0
  0
LINE
  5
4C8
  8
MAKE2D$VISIBLE$LINES
 10
777.143036525147
 20
2216.573619566188
 30
0.0
 11
777.0167493854624
 21
2224.127314380229
 31
0.0
  0
LINE
  5
4C9
  8
MAKE2D$VISIBLE$LINES
 10
778.1387081444695
 20
2157.01886548633
 30
0.0
 11
778.0699669316884
 21
2161.130528350745
 31
0.0
  0
LINE
  5
4CA
  8
MAKE2D$VISIBLE$LINES
 10
747.6609404796736
 20
2169.390070278107
 30
0.0
 11
809.268028232088
 21
2169.994506079171
 31
0.0
  0
LINE
  5
4CB
  8
MAKE2D$VISIBLE$LINES
 10
746.5151340946518
 20
2232.349764757329
 30
0.0
 11
808.305018130839
 21
2233.410543891435
 31
0.0
  0
LINE
  5
4CC
  8
MAKE2D$VISIBLE$LINES
 10
942.4376946049786
 20
2227.101065952638
 30
0.0
 11
942.3659952020715
 21
2235.39123161969
 31
0.0
  0
LINE
  5
4CD
  8
MAKE2D$VISIBLE$LINES
 10
942.9942596416805
 20
2162.748837458651
 30
0.0
 11
942.9218334487131
 21
2171.123037437852
 31
0.0
  0
LINE
  5
4CE
  8
MAKE2D$VISIBLE$LINES
 10
969.3002915325576
 20
2219.507839137442
 30
0.0
 11
969.2425893141528
 21
2227.367696191387
 31
0.0
  0
LINE
  5
4CF
  8
MAKE2D$VISIBLE$LINES
 10
969.747320377855
 20
2158.616197184075
 30
0.0
 11
969.6890686061942
 21
2166.550911152591
 31
0.0
  0
LINE
  5
4D0
  8
MAKE2D$VISIBLE$LINES
 10
936.662156529918
 20
2291.295182180448
 30
0.0
 11
937.1577829474512
 21
2235.622626442239
 31
0.0
  0
LINE
  5
4D1
  8
MAKE2D$VISIBLE$LINES
 10
937.2370852973233
 20
2226.714779044991
 30
0.0
 11
937.730818599007
 21
2171.254872580343
 31
0.0
  0
LINE
  5
4D2
  8
MAKE2D$VISIBLE$LINES
 10
963.8173492079989
 20
2280.257209390184
 30
0.0
 11
964.2170340980994
 21
2227.572784498084
 31
0.0
  0
LINE
  5
4D3
  8
MAKE2D$VISIBLE$LINES
 10
964.2808464031294
 20
2219.161371720626
 30
0.0
 11
964.6790834235412
 21
2166.667797630597
 31
0.0
  0
LINE
  5
4D4
  8
MAKE2D$VISIBLE$LINES
 10
785.3844278222687
 20
2276.295894923767
 30
0.0
 11
785.4499158701691
 21
2272.270580130396
 31
0.0
  0
LINE
  5
4D5
  8
MAKE2D$VISIBLE$LINES
 10
786.3580640066241
 20
2216.449980105731
 30
0.0
 11
786.4230441305435
 21
2212.455885572855
 31
0.0
  0
LINE
  5
4D6
  8
MAKE2D$VISIBLE$LINES
 10
787.3260468793101
 20
2156.951554025322
 30
0.0
 11
787.3905238645613
 21
2152.988385616964
 31
0.0
  0
LINE
  5
4D7
  8
MAKE2D$VISIBLE$LINES
 10
748.9539687366257
 20
2286.878233441858
 30
0.0
 11
749.0214939817254
 21
2283.133528932877
 31
0.0
  0
LINE
  5
4D8
  8
MAKE2D$VISIBLE$LINES
 10
750.093345947244
 20
2223.692517170242
 30
0.0
 11
750.1631921191062
 21
2219.819102504039
 31
0.0
  0
LINE
  5
4D9
  8
MAKE2D$VISIBLE$LINES
 10
751.2257430048896
 20
2160.893894796195
 30
0.0
 11
751.2979847030163
 21
2156.887632955718
 31
0.0
  0
LINE
  5
4DA
  8
MAKE2D$VISIBLE$LINES
 10
936.6895827752745
 20
2288.214456215711
 30
0.0
 11
940.8921462508983
 21
2288.311866529995
 31
0.0
  0
LINE
  5
4DB
  8
MAKE2D$VISIBLE$LINES
 10
829.2080503249642
 20
2277.65701129111
 30
0.0
 11
853.8389893165893
 21
2278.204938789222
 31
0.0
  0
LINE
  5
4DC
  8
MAKE2D$VISIBLE$LINES
 10
889.080590318677
 20
2278.988905745297
 30
0.0
 11
916.1819379019664
 21
2279.591788712195
 31
0.0
  0
LINE
  5
4DD
  8
MAKE2D$VISIBLE$LINES
 10
947.5007089786541
 20
2280.28849036396
 30
0.0
 11
958.3073492295674
 21
2280.528889455431
 31
0.0
  0
LINE
  5
4DE
  8
MAKE2D$VISIBLE$LINES
 10
958.3104433314909
 20
2280.134952881999
 30
0.0
 11
948.4510208214853
 21
2279.91606797715
 31
0.0
  0
LINE
  5
4DF
  8
MAKE2D$VISIBLE$LINES
 10
916.185820476725
 20
2279.19976179388
 30
0.0
 11
890.1354695008088
 21
2278.62142887541
 31
0.0
  0
LINE
  5
4E0
  8
MAKE2D$VISIBLE$LINES
 10
853.8440245543031
 20
2277.81573772404
 30
0.0
 11
830.3685545016674
 21
2277.294568657237
 31
0.0
  0
LINE
  5
4E1
  8
MAKE2D$VISIBLE$LINES
 10
846.0356969240829
 20
2273.232949611977
 30
0.0
 11
853.9011065089569
 21
2273.403561215716
 31
0.0
  0
LINE
  5
4E2
  8
MAKE2D$VISIBLE$LINES
 10
865.0154710740076
 20
2234.384121785392
 30
0.0
 11
864.3776277534137
 21
2285.739714350876
 31
0.0
  0
LINE
  5
4E3
  8
MAKE2D$VISIBLE$LINES
 10
868.5926649223338
 20
2234.44553333604
 30
0.0
 11
867.9677197737655
 21
2285.479368548921
 31
0.0
  0
LINE
  5
4E4
  8
MAKE2D$VISIBLE$LINES
 10
810.9262741269679
 20
2233.455544358894
 30
0.0
 11
810.1578402118529
 21
2284.487955480554
 31
0.0
  0
LINE
  5
4E5
  8
MAKE2D$VISIBLE$LINES
 10
939.017394612715
 20
2232.936803518503
 30
0.0
 11
942.3957460001819
 21
2231.951326959447
 31
0.0
  0
LINE
  5
4E6
  8
MAKE2D$VISIBLE$LINES
 10
947.2829084974476
 20
2230.525725081792
 30
0.0
 11
957.7643046977258
 21
2227.468266257387
 31
0.0
  0
LINE
  5
4E7
  8
MAKE2D$VISIBLE$LINES
 10
936.7225404295681
 20
2284.512399901411
 30
0.0
 11
940.9395693579619
 21
2282.859767672726
 31
0.0
  0
LINE
  5
4E8
  8
MAKE2D$VISIBLE$LINES
 10
946.8622479565873
 20
2280.538699997253
 30
0.0
 11
958.3426094868206
 21
2276.039604595258
 31
0.0
  0
LINE
  5
4E9
  8
MAKE2D$VISIBLE$LINES
 10
916.2293271246215
 20
2274.806858073909
 30
0.0
 11
904.4972534196766
 21
2274.552304223174
 31
0.0
  0
LINE
  5
4EA
  8
MAKE2D$VISIBLE$LINES
 10
901.3872089705792
 20
2252.335367183577
 30
0.0
 11
901.1483982395939
 21
2274.784973810453
 31
0.0
  0
LINE
  5
4EB
  8
MAKE2D$VISIBLE$LINES
 10
903.9057095276922
 20
2252.97037336714
 30
0.0
 11
903.6757594227295
 21
2274.8398991721
 31
0.0
  0
LINE
  5
4EC
  8
MAKE2D$VISIBLE$LINES
 10
930.9072985750031
 20
2235.515321120226
 30
0.0
 11
930.4334760558444
 21
2286.977052302136
 31
0.0
  0
LINE
  5
4ED
  8
MAKE2D$VISIBLE$LINES
 10
759.4196005283152
 20
2279.381392068275
 30
0.0
 11
784.6081214155056
 21
2272.25228600403
 31
0.0
  0
LINE
  5
4EE
  8
MAKE2D$VISIBLE$LINES
 10
788.0535069789702
 20
2272.025794008872
 30
0.0
 11
792.1422908719826
 21
2272.114509415114
 31
0.0
  0
LINE
  5
4EF
  8
MAKE2D$VISIBLE$LINES
 10
821.6561724330872
 20
2217.898053003992
 30
0.0
 11
843.4506188235379
 21
2213.263845179473
 31
0.0
  0
LINE
  5
4F0
  8
MAKE2D$VISIBLE$LINES
 10
847.1380157195651
 20
2190.477553139089
 30
0.0
 11
846.8365694435176
 21
2213.108307682895
 31
0.0
  0
LINE
  5
4F1
  8
MAKE2D$VISIBLE$LINES
 10
865.808308949113
 20
2170.549230723921
 30
0.0
 11
865.174434412726
 21
2221.58527888386
 31
0.0
  0
LINE
  5
4F2
  8
MAKE2D$VISIBLE$LINES
 10
869.3746915357763
 20
2170.58422100498
 30
0.0
 11
868.7523082333548
 21
2221.408852523102
 31
0.0
  0
LINE
  5
4F3
  8
MAKE2D$VISIBLE$LINES
 10
811.8814692616295
 20
2170.02014691661
 30
0.0
 11
811.1177869921738
 21
2220.736996829913
 31
0.0
  0
LINE
  5
4F4
  8
MAKE2D$VISIBLE$LINES
 10
939.5744857097893
 20
2169.724570405089
 30
0.0
 11
942.9387849986782
 21
2169.163032054218
 31
0.0
  0
LINE
  5
4F5
  8
MAKE2D$VISIBLE$LINES
 10
947.8058646899483
 20
2168.350663216397
 30
0.0
 11
958.2451673243712
 21
2166.608229418981
 31
0.0
  0
LINE
  5
4F6
  8
MAKE2D$VISIBLE$LINES
 10
937.290155187534
 20
2220.753562448093
 30
0.0
 11
941.4895196283829
 21
2219.633569903714
 31
0.0
  0
LINE
  5
4F7
  8
MAKE2D$VISIBLE$LINES
 10
947.3877540256481
 20
2218.060479822349
 30
0.0
 11
958.8219479954361
 21
2215.010920257436
 31
0.0
  0
LINE
  5
4F8
  8
MAKE2D$VISIBLE$LINES
 10
902.0704784390101
 20
2188.104037531224
 30
0.0
 11
901.7932999816481
 21
2214.160435028736
 31
0.0
  0
LINE
  5
4F9
  8
MAKE2D$VISIBLE$LINES
 10
904.5813137624148
 20
2188.716676907234
 30
0.0
 11
904.3133904104861
 21
2214.197668358399
 31
0.0
  0
LINE
  5
4FA
  8
MAKE2D$VISIBLE$LINES
 10
931.499525353387
 20
2171.193736485494
 30
0.0
 11
931.0278362702105
 21
2222.423755782518
 31
0.0
  0
LINE
  5
4FB
  8
MAKE2D$VISIBLE$LINES
 10
751.0716231203903
 20
2169.440823068085
 30
0.0
 11
751.20364891247
 21
2169.424828288699
 31
0.0
  0
LINE
  5
4FC
  8
MAKE2D$VISIBLE$LINES
 10
760.5082861841596
 20
2217.276078633558
 30
0.0
 11
785.5836046604077
 21
2212.443483189864
 31
0.0
  0
LINE
  5
4FD
  8
MAKE2D$VISIBLE$LINES
 10
789.0177958822162
 20
2212.289933842432
 30
0.0
 11
793.0951455093751
 21
2212.350078228368
 31
0.0
  0
LINE
  5
4FE
  8
MAKE2D$VISIBLE$LINES
 10
822.5583432025498
 20
2155.874728078076
 30
0.0
 11
844.2576748937563
 21
2153.416945560119
 31
0.0
  0
LINE
  5
4FF
  8
MAKE2D$VISIBLE$LINES
 10
937.8542607268531
 20
2157.3889072079
 30
0.0
 11
942.036097935877
 21
2156.795036953396
 31
0.0
  0
LINE
  5
500
  8
MAKE2D$VISIBLE$LINES
 10
947.9100756495326
 20
2155.960862769802
 30
0.0
 11
959.2984483986386
 21
2154.343579388156
 31
0.0
  0
LINE
  5
501
  8
MAKE2D$VISIBLE$LINES
 10
761.5904135534173
 20
2155.544890118361
 30
0.0
 11
786.5534262605242
 21
2152.981806990475
 31
0.0
  0
LINE
  5
502
  8
MAKE2D$VISIBLE$LINES
 10
939.0682578280322
 20
2227.165436577102
 30
0.0
 11
942.4366660072315
 21
2227.219996451267
 31
0.0
  0
LINE
  5
503
  8
MAKE2D$VISIBLE$LINES
 10
947.3100491347207
 20
2227.298933194099
 30
0.0
 11
958.7520371471536
 21
2227.48426507579
 31
0.0
  0
LINE
  5
504
  8
MAKE2D$VISIBLE$LINES
 10
824.4851154048004
 20
2217.296527761287
 30
0.0
 11
854.6210304773947
 21
2217.756699779252
 31
0.0
  0
LINE
  5
505
  8
MAKE2D$VISIBLE$LINES
 10
884.6910986662806
 20
2218.215866322745
 30
0.0
 11
916.7849420965566
 21
2218.705935685497
 31
0.0
  0
LINE
  5
506
  8
MAKE2D$VISIBLE$LINES
 10
947.3783957942804
 20
2219.17309426657
 30
0.0
 11
958.7878885779991
 21
2219.347315932167
 31
0.0
  0
LINE
  5
507
  8
MAKE2D$VISIBLE$LINES
 10
958.790006257907
 20
2219.07769599491
 30
0.0
 11
947.3806606064048
 21
2218.903827287856
 31
0.0
  0
LINE
  5
508
  8
MAKE2D$VISIBLE$LINES
 10
916.7875995026619
 20
2218.437615101686
 30
0.0
 11
885.7505601689481
 21
2217.964637065558
 31
0.0
  0
LINE
  5
509
  8
MAKE2D$VISIBLE$LINES
 10
854.6244769627164
 20
2217.490302076678
 30
0.0
 11
825.6503497274928
 21
2217.048761063345
 31
0.0
  0
LINE
  5
50A
  8
MAKE2D$VISIBLE$LINES
 10
939.6034711817193
 20
2166.435635857513
 30
0.0
 11
942.9621045792852
 21
2166.466731659918
 31
0.0
  0
LINE
  5
50B
  8
MAKE2D$VISIBLE$LINES
 10
947.8213320874429
 20
2166.511720666026
 30
0.0
 11
959.2300217986419
 21
2166.617347663369
 31
0.0
  0
LINE
  5
50C
  8
MAKE2D$VISIBLE$LINES
 10
807.8223058648657
 20
2157.266320707623
 30
0.0
 11
809.461105805399
 21
2157.27998244788
 31
0.0
  0
LINE
  5
50D
  8
MAKE2D$VISIBLE$LINES
 10
822.536317357218
 20
2157.38898302788
 30
0.0
 11
855.3984856590589
 21
2157.662936178906
 31
0.0
  0
LINE
  5
50E
  8
MAKE2D$VISIBLE$LINES
 10
869.2008769775526
 20
2157.777998841804
 30
0.0
 11
870.7762521916953
 21
2157.791131846297
 31
0.0
  0
LINE
  5
50F
  8
MAKE2D$VISIBLE$LINES
 10
884.0420069029809
 20
2157.901720875923
 30
0.0
 11
917.3843849210765
 21
2158.17967726142
 31
0.0
  0
LINE
  5
510
  8
MAKE2D$VISIBLE$LINES
 10
931.4596680043346
 20
2158.29701486729
 30
0.0
 11
931.9389666306295
 21
2158.301010506524
 31
0.0
  0
LINE
  5
511
  8
MAKE2D$VISIBLE$LINES
 10
937.8457023327447
 20
2158.350251592596
 30
0.0
 11
942.0222676198857
 21
2158.385069234888
 31
0.0
  0
LINE
  5
512
  8
MAKE2D$VISIBLE$LINES
 10
947.889274198558
 20
2158.433979121921
 30
0.0
 11
959.265576225318
 21
2158.528816862348
 31
0.0
  0
LINE
  5
513
  8
MAKE2D$VISIBLE$LINES
 10
959.2667289889603
 20
2158.382048665808
 30
0.0
 11
947.8905070634472
 21
2158.287401928932
 31
0.0
  0
LINE
  5
514
  8
MAKE2D$VISIBLE$LINES
 10
942.0235417119127
 20
2158.238590545899
 30
0.0
 11
937.8470057389306
 21
2158.203843025687
 31
0.0
  0
LINE
  5
515
  8
MAKE2D$VISIBLE$LINES
 10
917.3858315269059
 20
2158.033612224593
 30
0.0
 11
884.0436853886702
 21
2157.756215620248
 31
0.0
  0
LINE
  5
516
  8
MAKE2D$VISIBLE$LINES
 10
870.7780224280352
 20
2157.645849303562
 30
0.0
 11
870.2844251812933
 21
2157.641742723272
 31
0.0
  0
LINE
  5
517
  8
MAKE2D$VISIBLE$LINES
 10
855.4003618928825
 20
2157.517911803752
 30
0.0
 11
822.5384188090886
 21
2157.244510344055
 31
0.0
  0
LINE
  5
518
  8
MAKE2D$VISIBLE$LINES
 10
809.4632963754026
 20
2157.135729267112
 30
0.0
 11
809.0129345867522
 21
2157.1319823928
 31
0.0
  0
LINE
  5
519
  8
MAKE2D$VISIBLE$LINES
 10
868.4561406385409
 20
2170.575208972961
 30
0.0
 11
931.8204331116032
 21
2171.196884956636
 31
0.0
  0
LINE
  5
51A
  8
MAKE2D$VISIBLE$LINES
 10
867.6713286191028
 20
2234.429716275671
 30
0.0
 11
931.2291939800941
 21
2235.520847266364
 31
0.0
  0
LINE
  5
51B
  8
MAKE2D$VISIBLE$LINES
 10
772.931955584448
 20
2284.418753420593
 30
0.0
 11
763.475503548189
 21
2287.219938700549
 31
0.0
  0
LINE
  5
51C
  8
MAKE2D$VISIBLE$LINES
 10
780.0888533404134
 20
2153.645558516984
 30
0.0
 11
780.0348967091957
 21
2156.890893853928
 31
0.0
  0
LINE
  5
51D
  8
MAKE2D$VISIBLE$LINES
 10
779.0904794822313
 20
2213.694859007186
 30
0.0
 11
779.0465255905019
 21
2216.33855848964
 31
0.0
  0
LINE
  5
51E
  8
MAKE2D$VISIBLE$LINES
 10
778.086219720395
 20
2274.09817958145
 30
0.0
 11
778.0523870085822
 21
2276.133119360166
 31
0.0
  0
ENDSEC
  0
EOF
