  0
SECTION
  2
HEADER
  9
$ACADVER
  1
AC1018
  9
$ACADMAINTVER
 70
     0
  9
$DWGCODEPAGE
  3
ANSI_1252
  9
$INSBASE
 10
0.0
 20
0.0
 30
0.0
  9
$EXTMIN
 10
48.19183645744133
 20
87.0822569406358
 30
0.0
  9
$EXTMAX
 10
238.0738332138436
 20
132.4493717173609
 30
0.0
  9
$LIMMIN
 10
0.0
 20
0.0
  9
$LIMMAX
 10
12.0
 20
9.0
  9
$ORTHOMODE
 70
     0
  9
$REGENMODE
 70
     1
  9
$FILLMODE
 70
     1
  9
$QTEXTMODE
 70
     0
  9
$MIRRTEXT
 70
     1
  9
$LTSCALE
 40
1.0
  9
$ATTMODE
 70
     1
  9
$TEXTSIZE
 40
0.2
  9
$TRACEWID
 40
0.05
  9
$TEXTSTYLE
  7
Standard
  9
$CLAYER
  8
Default
  9
$CELTYPE
  6
ByLayer
  9
$CECOLOR
 62
   256
  9
$CELTSCALE
 40
1.0
  9
$DISPSILH
 70
     0
  9
$DIMSCALE
 40
1.0
  9
$DIMASZ
 40
0.18
  9
$DIMEXO
 40
0.0625
  9
$DIMDLI
 40
0.38
  9
$DIMRND
 40
0.0
  9
$DIMDLE
 40
0.0
  9
$DIMEXE
 40
0.18
  9
$DIMTP
 40
0.0
  9
$DIMTM
 40
0.0
  9
$DIMTXT
 40
0.18
  9
$DIMCEN
 40
0.09
  9
$DIMTSZ
 40
0.0
  9
$DIMTOL
 70
     0
  9
$DIMLIM
 70
     0
  9
$DIMTIH
 70
     1
  9
$DIMTOH
 70
     1
  9
$DIMSE1
 70
     0
  9
$DIMSE2
 70
     0
  9
$DIMTAD
 70
     0
  9
$DIMZIN
 70
     0
  9
$DIMBLK
  1

  9
$DIMASO
 70
     1
  9
$DIMSHO
 70
     1
  9
$DIMPOST
  1

  9
$DIMAPOST
  1

  9
$DIMALT
 70
     0
  9
$DIMALTD
 70
     2
  9
$DIMALTF
 40
25.4
  9
$DIMLFAC
 40
1.0
  9
$DIMTOFL
 70
     0
  9
$DIMTVP
 40
0.0
  9
$DIMTIX
 70
     0
  9
$DIMSOXD
 70
     0
  9
$DIMSAH
 70
     0
  9
$DIMBLK1
  1

  9
$DIMBLK2
  1

  9
$DIMSTYLE
  2
Standard
  9
$DIMCLRD
 70
     0
  9
$DIMCLRE
 70
     0
  9
$DIMCLRT
 70
     0
  9
$DIMTFAC
 40
1.0
  9
$DIMGAP
 40
0.09
  9
$DIMJUST
 70
     0
  9
$DIMSD1
 70
     0
  9
$DIMSD2
 70
     0
  9
$DIMTOLJ
 70
     1
  9
$DIMTZIN
 70
     0
  9
$DIMALTZ
 70
     0
  9
$DIMALTTZ
 70
     0
  9
$DIMUPT
 70
     0
  9
$DIMDEC
 70
     4
  9
$DIMTDEC
 70
     4
  9
$DIMALTU
 70
     2
  9
$DIMALTTD
 70
     2
  9
$DIMTXSTY
  7
Standard
  9
$DIMAUNIT
 70
     0
  9
$DIMADEC
 70
     0
  9
$DIMALTRND
 40
0.0
  9
$DIMAZIN
 70
     0
  9
$DIMDSEP
 70
    46
  9
$DIMATFIT
 70
     3
  9
$DIMFRAC
 70
     0
  9
$DIMLDRBLK
  1

  9
$DIMLUNIT
 70
     2
  9
$DIMLWD
 70
    -2
  9
$DIMLWE
 70
    -2
  9
$DIMTMOVE
 70
     2
  9
$LUNITS
 70
     2
  9
$LUPREC
 70
     2
  9
$SKETCHINC
 40
0.1
  9
$FILLETRAD
 40
0.5
  9
$AUNITS
 70
     0
  9
$AUPREC
 70
     0
  9
$MENU
  1
.
  9
$ELEVATION
 40
0.0
  9
$PELEVATION
 40
0.0
  9
$THICKNESS
 40
0.0
  9
$LIMCHECK
 70
     0
  9
$CHAMFERA
 40
0.5
  9
$CHAMFERB
 40
0.5
  9
$CHAMFERC
 40
1.0
  9
$CHAMFERD
 40
0.0
  9
$SKPOLY
 70
     0
  9
$TDCREATE
 40
2456268.490687882
  9
$TDUCREATE
 40
2456268.449021215
  9
$TDUPDATE
 40
2456268.490687894
  9
$TDUUPDATE
 40
2456268.449021227
  9
$TDINDWG
 40
0.0000000116
  9
$TDUSRTIMER
 40
0.0000000116
  9
$USRTIMER
 70
     1
  9
$ANGBASE
 50
0.0
  9
$ANGDIR
 70
     0
  9
$PDMODE
 70
     0
  9
$PDSIZE
 40
0.0
  9
$PLINEWID
 40
0.0
  9
$SPLFRAME
 70
     0
  9
$SPLINETYPE
 70
     6
  9
$SPLINESEGS
 70
     8
  9
$HANDSEED
  5
189
  9
$SURFTAB1
 70
     6
  9
$SURFTAB2
 70
     6
  9
$SURFTYPE
 70
     6
  9
$SURFU
 70
     6
  9
$SURFV
 70
     6
  9
$UCSBASE
  2

  9
$UCSNAME
  2

  9
$UCSORG
 10
0.0
 20
0.0
 30
0.0
  9
$UCSXDIR
 10
1.0
 20
0.0
 30
0.0
  9
$UCSYDIR
 10
0.0
 20
1.0
 30
0.0
  9
$UCSORTHOREF
  2

  9
$UCSORTHOVIEW
 70
     0
  9
$UCSORGTOP
 10
0.0
 20
0.0
 30
0.0
  9
$UCSORGBOTTOM
 10
0.0
 20
0.0
 30
0.0
  9
$UCSORGLEFT
 10
0.0
 20
0.0
 30
0.0
  9
$UCSORGRIGHT
 10
0.0
 20
0.0
 30
0.0
  9
$UCSORGFRONT
 10
0.0
 20
0.0
 30
0.0
  9
$UCSORGBACK
 10
0.0
 20
0.0
 30
0.0
  9
$PUCSBASE
  2

  9
$PUCSNAME
  2

  9
$PUCSORG
 10
0.0
 20
0.0
 30
0.0
  9
$PUCSXDIR
 10
1.0
 20
0.0
 30
0.0
  9
$PUCSYDIR
 10
0.0
 20
1.0
 30
0.0
  9
$PUCSORTHOREF
  2

  9
$PUCSORTHOVIEW
 70
     0
  9
$PUCSORGTOP
 10
0.0
 20
0.0
 30
0.0
  9
$PUCSORGBOTTOM
 10
0.0
 20
0.0
 30
0.0
  9
$PUCSORGLEFT
 10
0.0
 20
0.0
 30
0.0
  9
$PUCSORGRIGHT
 10
0.0
 20
0.0
 30
0.0
  9
$PUCSORGFRONT
 10
0.0
 20
0.0
 30
0.0
  9
$PUCSORGBACK
 10
0.0
 20
0.0
 30
0.0
  9
$USERI1
 70
     0
  9
$USERI2
 70
     0
  9
$USERI3
 70
     0
  9
$USERI4
 70
     0
  9
$USERI5
 70
     0
  9
$USERR1
 40
0.0
  9
$USERR2
 40
0.0
  9
$USERR3
 40
0.0
  9
$USERR4
 40
0.0
  9
$USERR5
 40
0.0
  9
$WORLDVIEW
 70
     1
  9
$SHADEDGE
 70
     3
  9
$SHADEDIF
 70
    70
  9
$TILEMODE
 70
     1
  9
$MAXACTVP
 70
    64
  9
$PINSBASE
 10
0.0
 20
0.0
 30
0.0
  9
$PLIMCHECK
 70
     0
  9
$PEXTMIN
 10
1.000000000000000E+20
 20
1.000000000000000E+20
 30
1.000000000000000E+20
  9
$PEXTMAX
 10
-1.000000000000000E+20
 20
-1.000000000000000E+20
 30
-1.000000000000000E+20
  9
$PLIMMIN
 10
0.0
 20
0.0
  9
$PLIMMAX
 10
12.0
 20
9.0
  9
$UNITMODE
 70
     0
  9
$VISRETAIN
 70
     1
  9
$PLINEGEN
 70
     0
  9
$PSLTSCALE
 70
     1
  9
$TREEDEPTH
 70
  3020
  9
$CMLSTYLE
  2
Standard
  9
$CMLJUST
 70
     0
  9
$CMLSCALE
 40
1.0
  9
$PROXYGRAPHICS
 70
     1
  9
$MEASUREMENT
 70
     0
  9
$CELWEIGHT
370
    -1
  9
$ENDCAPS
280
     0
  9
$JOINSTYLE
280
     0
  9
$LWDISPLAY
290
     0
  9
$INSUNITS
 70
     4
  9
$HYPERLINKBASE
  1

  9
$STYLESHEET
  1

  9
$XEDIT
290
     1
  9
$CEPSNTYPE
380
     0
  9
$PSTYLEMODE
290
     1
  9
$FINGERPRINTGUID
  2
{FA6E1F1D-570F-4797-B768-DEB6EB719931}
  9
$VERSIONGUID
  2
{FAEB1C32-E019-11D5-929B-00C0DF256EC4}
  9
$EXTNAMES
290
     1
  9
$PSVPSCALE
 40
0.0
  9
$OLESTARTUP
290
     0
  9
$SORTENTS
280
   127
  9
$INDEXCTL
280
     0
  9
$HIDETEXT
280
     1
  9
$XCLIPFRAME
290
     0
  9
$HALOGAP
280
     0
  9
$OBSCOLOR
 70
   257
  9
$OBSLTYPE
280
     0
  9
$INTERSECTIONDISPLAY
280
     0
  9
$INTERSECTIONCOLOR
 70
   257
  9
$DIMASSOC
280
     2
  9
$PROJECTNAME
  1

  0
ENDSEC
  0
SECTION
  2
CLASSES
  0
CLASS
  1
ACDBDICTIONARYWDFLT
  2
AcDbDictionaryWithDefault
  3
ObjectDBX Classes
 90
        0
 91
        4
280
     0
281
     0
  0
CLASS
  1
VISUALSTYLE
  2
AcDbVisualStyle
  3
ObjectDBX Classes
 90
     4095
 91
        4
280
     0
281
     0
  0
ENDSEC
  0
SECTION
  2
TABLES
  0
TABLE
  2
VPORT
  5
8
330
0
100
AcDbSymbolTable
 70
     1
  0
VPORT
  5
29
330
8
100
AcDbSymbolTableRecord
100
AcDbViewportTableRecord
  2
*Active
 70
     0
 10
0.0
 20
0.0
 11
1.0
 21
1.0
 12
143.1328348356425
 22
109.7658143289984
 13
0.0
 23
0.0
 14
0.5
 24
0.5
 15
0.5
 25
0.5
 16
0.0
 26
0.0
 36
1.0
 17
0.0
 27
0.0
 37
0.0
 40
46.27445707225962
 41
4.185454545454546
 42
50.0
 43
0.0
 44
0.0
 50
0.0
 51
0.0
 71
     0
 72
   100
 73
     1
 74
     3
 75
     0
 76
     0
 77
     0
 78
     0
281
     0
 65
     1
110
0.0
120
0.0
130
0.0
111
1.0
121
0.0
131
0.0
112
0.0
122
1.0
132
0.0
 79
     0
146
0.0
  0
ENDTAB
  0
TABLE
  2
LTYPE
  5
5
330
0
100
AcDbSymbolTable
 70
     1
  0
LTYPE
  5
14
330
5
100
AcDbSymbolTableRecord
100
AcDbLinetypeTableRecord
  2
ByBlock
 70
     0
  3

 72
    65
 73
     0
 40
0.0
  0
LTYPE
  5
15
330
5
100
AcDbSymbolTableRecord
100
AcDbLinetypeTableRecord
  2
ByLayer
 70
     0
  3

 72
    65
 73
     0
 40
0.0
  0
LTYPE
  5
16
330
5
100
AcDbSymbolTableRecord
100
AcDbLinetypeTableRecord
  2
Continuous
 70
     0
  3
Solid line
 72
    65
 73
     0
 40
0.0
  0
ENDTAB
  0
TABLE
  2
LAYER
  5
2
330
0
100
AcDbSymbolTable
 70
     2
  0
LAYER
  5
10
330
2
100
AcDbSymbolTableRecord
100
AcDbLayerTableRecord
  2
0
 70
     0
 62
     7
  6
Continuous
370
    -3
390
F
  0
LAYER
  5
3B
330
2
100
AcDbSymbolTableRecord
100
AcDbLayerTableRecord
  2
Default
 70
     0
 62
     7
  6
Continuous
370
    -3
390
F
  0
ENDTAB
  0
TABLE
  2
STYLE
  5
3
330
0
100
AcDbSymbolTable
 70
     1
  0
STYLE
  5
11
330
3
100
AcDbSymbolTableRecord
100
AcDbTextStyleTableRecord
  2
Standard
 70
     0
 40
0.0
 41
1.0
 50
0.0
 71
     0
 42
0.2
  3
txt
  4

  0
ENDTAB
  0
TABLE
  2
VIEW
  5
6
330
0
100
AcDbSymbolTable
 70
     0
  0
ENDTAB
  0
TABLE
  2
UCS
  5
7
330
0
100
AcDbSymbolTable
 70
     0
  0
ENDTAB
  0
TABLE
  2
APPID
  5
9
330
0
100
AcDbSymbolTable
 70
     1
  0
APPID
  5
12
330
9
100
AcDbSymbolTableRecord
100
AcDbRegAppTableRecord
  2
ACAD
 70
     0
  0
ENDTAB
  0
TABLE
  2
DIMSTYLE
  5
A
330
0
100
AcDbSymbolTable
 70
     1
100
AcDbDimStyleTable
  0
DIMSTYLE
105
27
330
A
100
AcDbSymbolTableRecord
100
AcDbDimStyleTableRecord
  2
Standard
 70
     0
340
11
  0
ENDTAB
  0
TABLE
  2
BLOCK_RECORD
  5
1
330
0
100
AcDbSymbolTable
 70
     1
  0
BLOCK_RECORD
  5
1F
330
1
100
AcDbSymbolTableRecord
100
AcDbBlockTableRecord
  2
*Model_Space
340
22
  0
BLOCK_RECORD
  5
1B
330
1
100
AcDbSymbolTableRecord
100
AcDbBlockTableRecord
  2
*Paper_Space
340
1E
  0
BLOCK_RECORD
  5
23
330
1
100
AcDbSymbolTableRecord
100
AcDbBlockTableRecord
  2
*Paper_Space0
340
26
  0
ENDTAB
  0
ENDSEC
  0
SECTION
  2
BLOCKS
  0
BLOCK
  5
20
330
1F
100
AcDbEntity
  8
0
100
AcDbBlockBegin
  2
*Model_Space
 70
     0
 10
0.0
 20
0.0
 30
0.0
  3
*Model_Space
  1

  0
ENDBLK
  5
21
330
1F
100
AcDbEntity
  8
0
100
AcDbBlockEnd
  0
BLOCK
  5
1C
330
1B
100
AcDbEntity
 67
     1
  8
0
100
AcDbBlockBegin
  2
*Paper_Space
 70
     0
 10
0.0
 20
0.0
 30
0.0
  3
*Paper_Space
  1

  0
ENDBLK
  5
1D
330
1B
100
AcDbEntity
 67
     1
  8
0
100
AcDbBlockEnd
  0
BLOCK
  5
24
330
23
100
AcDbEntity
  8
0
100
AcDbBlockBegin
  2
*Paper_Space0
 70
     0
 10
0.0
 20
0.0
 30
0.0
  3
*Paper_Space0
  1

  0
ENDBLK
  5
25
330
23
100
AcDbEntity
  8
0
100
AcDbBlockEnd
  0
ENDSEC
  0
SECTION
  2
ENTITIES
  0
LINE
  5
3C
330
1F
100
AcDbEntity
  8
Default
100
AcDbLine
 10
238.0738332138436
 20
88.23705622586154
 30
0.0
 11
238.0738332138436
 21
87.24722826709662
 31
0.0
  0
LINE
  5
3D
330
1F
100
AcDbEntity
  8
Default
100
AcDbLine
 10
237.5789192344611
 20
88.23705622586154
 30
0.0
 11
238.0738332138436
 21
88.23705622586154
 31
0.0
  0
LINE
  5
3E
330
1F
100
AcDbEntity
  8
Default
100
AcDbLine
 10
237.5789192344611
 20
87.24722826709662
 30
0.0
 11
237.5789192344611
 21
88.23705622586154
 31
0.0
  0
LINE
  5
3F
330
1F
100
AcDbEntity
  8
Default
100
AcDbLine
 10
238.0738332138436
 20
87.24722826709662
 30
0.0
 11
237.5789192344611
 21
87.24722826709662
 31
0.0
  0
LINE
  5
40
330
1F
100
AcDbEntity
  8
Default
100
AcDbLine
 10
238.0738332138436
 20
104.4042462190218
 30
0.0
 11
238.0738332138436
 21
92.85625336676445
 31
0.0
  0
LINE
  5
41
330
1F
100
AcDbEntity
  8
Default
100
AcDbLine
 10
237.5789192344611
 20
104.4042462190218
 30
0.0
 11
238.0738332138436
 21
104.4042462190218
 31
0.0
  0
LINE
  5
42
330
1F
100
AcDbEntity
  8
Default
100
AcDbLine
 10
237.5789192344611
 20
92.85625336676445
 30
0.0
 11
237.5789192344611
 21
104.4042462190218
 31
0.0
  0
LINE
  5
43
330
1F
100
AcDbEntity
  8
Default
100
AcDbLine
 10
238.0738332138436
 20
92.85625336676445
 30
0.0
 11
237.5789192344611
 21
92.85625336676445
 31
0.0
  0
LINE
  5
44
330
1F
100
AcDbEntity
  8
Default
100
AcDbLine
 10
231.9698941347933
 20
104.7341888719434
 30
0.0
 11
231.9698941347933
 21
104.4042462190218
 31
0.0
  0
LINE
  5
45
330
1F
100
AcDbEntity
  8
Default
100
AcDbLine
 10
222.4015572000658
 20
104.7341888719434
 30
0.0
 11
231.9698941347933
 21
104.7341888719434
 31
0.0
  0
LINE
  5
46
330
1F
100
AcDbEntity
  8
Default
100
AcDbLine
 10
222.4015572000658
 20
104.4042462190218
 30
0.0
 11
222.4015572000658
 21
104.7341888719434
 31
0.0
  0
LINE
  5
47
330
1F
100
AcDbEntity
  8
Default
100
AcDbLine
 10
227.0207543409687
 20
104.4042462190218
 30
0.0
 11
222.4015572000658
 21
104.4042462190218
 31
0.0
  0
LINE
  5
48
330
1F
100
AcDbEntity
  8
Default
100
AcDbLine
 10
227.0207543409687
 20
87.24722826709662
 30
0.0
 11
227.0207543409687
 21
104.4042462190218
 31
0.0
  0
LINE
  5
49
330
1F
100
AcDbEntity
  8
Default
100
AcDbLine
 10
227.5156683203512
 20
87.24722826709662
 30
0.0
 11
227.0207543409687
 21
87.24722826709662
 31
0.0
  0
LINE
  5
4A
330
1F
100
AcDbEntity
  8
Default
100
AcDbLine
 10
227.5156683203512
 20
104.4042462190218
 30
0.0
 11
227.5156683203512
 21
87.24722826709662
 31
0.0
  0
LINE
  5
4B
330
1F
100
AcDbEntity
  8
Default
100
AcDbLine
 10
231.9698941347933
 20
104.4042462190218
 30
0.0
 11
227.5156683203512
 21
104.4042462190218
 31
0.0
  0
LINE
  5
4C
330
1F
100
AcDbEntity
  8
Default
100
AcDbLine
 10
214.8128761828681
 20
95.99070856952001
 30
0.0
 11
216.4625894474763
 21
99.62007775165802
 31
0.0
  0
LINE
  5
4D
330
1F
100
AcDbEntity
  8
Default
100
AcDbLine
 10
211.6784209801126
 20
95.16585193721592
 30
0.0
 11
214.8128761828681
 21
95.99070856952001
 31
0.0
  0
LINE
  5
4E
330
1F
100
AcDbEntity
  8
Default
100
AcDbLine
 10
207.3891664921313
 20
95.16585193721592
 30
0.0
 11
211.6784209801126
 21
95.16585193721592
 31
0.0
  0
LINE
  5
4F
330
1F
100
AcDbEntity
  8
Default
100
AcDbLine
 10
207.3891664921313
 20
104.2392748925609
 30
0.0
 11
207.3891664921313
 21
95.16585193721592
 31
0.0
  0
LINE
  5
50
330
1F
100
AcDbEntity
  8
Default
100
AcDbLine
 10
211.6784209801126
 20
104.2392748925609
 30
0.0
 11
207.3891664921313
 21
104.2392748925609
 31
0.0
  0
LINE
  5
51
330
1F
100
AcDbEntity
  8
Default
100
AcDbLine
 10
214.8128761828681
 20
103.4144182602568
 30
0.0
 11
211.6784209801126
 21
104.239274892561
 31
0.0
  0
LINE
  5
52
330
1F
100
AcDbEntity
  8
Default
100
AcDbLine
 10
216.4625894474763
 20
99.62007775165802
 30
0.0
 11
214.8128761828681
 21
103.4144182602568
 31
0.0
  0
LINE
  5
53
330
1F
100
AcDbEntity
  8
Default
100
AcDbLine
 10
216.3801037842459
 20
102.1358904801855
 30
0.0
 11
216.792532100398
 21
99.78504907811883
 31
0.0
  0
LINE
  5
54
330
1F
100
AcDbEntity
  8
Default
100
AcDbLine
 10
214.977847509329
 20
103.7443609131785
 30
0.0
 11
216.3801037842459
 21
102.1358904801855
 31
0.0
  0
LINE
  5
55
330
1F
100
AcDbEntity
  8
Default
100
AcDbLine
 10
211.6784209801126
 20
104.7341888719434
 30
0.0
 11
214.977847509329
 21
103.7443609131785
 31
0.0
  0
LINE
  5
56
330
1F
100
AcDbEntity
  8
Default
100
AcDbLine
 10
206.8942525127489
 20
104.7341888719434
 30
0.0
 11
211.6784209801126
 21
104.7341888719434
 31
0.0
  0
LINE
  5
57
330
1F
100
AcDbEntity
  8
Default
100
AcDbLine
 10
206.8942525127489
 20
87.24722826709662
 30
0.0
 11
206.8942525127489
 21
104.7341888719434
 31
0.0
  0
LINE
  5
58
330
1F
100
AcDbEntity
  8
Default
100
AcDbLine
 10
207.3891664921313
 20
87.24722826709662
 30
0.0
 11
206.8942525127489
 21
87.24722826709662
 31
0.0
  0
LINE
  5
59
330
1F
100
AcDbEntity
  8
Default
100
AcDbLine
 10
207.3891664921313
 20
94.67093795783346
 30
0.0
 11
207.3891664921313
 21
87.24722826709662
 31
0.0
  0
LINE
  5
5A
330
1F
100
AcDbEntity
  8
Default
100
AcDbLine
 10
211.6784209801126
 20
94.67093795783346
 30
0.0
 11
207.3891664921313
 21
94.67093795783346
 31
0.0
  0
LINE
  5
5B
330
1F
100
AcDbEntity
  8
Default
100
AcDbLine
 10
212.8332202653384
 20
94.83590928429427
 30
0.0
 11
211.6784209801126
 21
94.67093795783344
 31
0.0
  0
LINE
  5
5C
330
1F
100
AcDbEntity
  8
Default
100
AcDbLine
 10
216.4625894474763
 20
87.24722826709662
 30
0.0
 11
212.8332202653384
 21
94.83590928429427
 31
0.0
  0
LINE
  5
5D
330
1F
100
AcDbEntity
  8
Default
100
AcDbLine
 10
216.792532100398
 20
87.41219959355743
 30
0.0
 11
216.4625894474763
 21
87.24722826709662
 31
0.0
  0
LINE
  5
5E
330
1F
100
AcDbEntity
  8
Default
100
AcDbLine
 10
213.16316291826
 20
95.00088061075509
 30
0.0
 11
216.792532100398
 21
87.41219959355743
 31
0.0
  0
LINE
  5
5F
330
1F
100
AcDbEntity
  8
Default
100
AcDbLine
 10
215.9058112206711
 20
96.52686538051768
 30
0.0
 11
213.16316291826
 21
95.00088061075509
 31
0.0
  0
LINE
  5
60
330
1F
100
AcDbEntity
  8
Default
100
AcDbLine
 10
216.792532100398
 20
99.78504907811883
 30
0.0
 11
215.9058112206711
 21
96.52686538051768
 31
0.0
  0
LINE
  5
61
330
1F
100
AcDbEntity
  8
Default
100
AcDbLine
 10
199.8004854749337
 20
88.73197020524398
 30
0.0
 11
201.1202560866202
 21
92.03139673446036
 31
0.0
  0
LINE
  5
62
330
1F
100
AcDbEntity
  8
Default
100
AcDbLine
 10
196.5010589457173
 20
87.41219959355743
 30
0.0
 11
199.8004854749337
 21
88.73197020524397
 31
0.0
  0
LINE
  5
63
330
1F
100
AcDbEntity
  8
Default
100
AcDbLine
 10
193.3666037429617
 20
88.73197020524398
 30
0.0
 11
196.5010589457173
 21
87.41219959355745
 31
0.0
  0
LINE
  5
64
330
1F
100
AcDbEntity
  8
Default
100
AcDbLine
 10
192.0468331312752
 20
92.03139673446036
 30
0.0
 11
193.3666037429617
 21
88.73197020524398
 31
0.0
  0
LINE
  5
65
330
1F
100
AcDbEntity
  8
Default
100
AcDbLine
 10
192.0468331312752
 20
99.62007775165802
 30
0.0
 11
192.0468331312752
 21
92.03139673446036
 31
0.0
  0
LINE
  5
66
330
1F
100
AcDbEntity
  8
Default
100
AcDbLine
 10
193.3666037429617
 20
102.9195042808744
 30
0.0
 11
192.0468331312752
 21
99.62007775165802
 31
0.0
  0
LINE
  5
67
330
1F
100
AcDbEntity
  8
Default
100
AcDbLine
 10
196.5010589457173
 20
104.2392748925609
 30
0.0
 11
193.3666037429617
 21
102.9195042808744
 31
0.0
  0
LINE
  5
68
330
1F
100
AcDbEntity
  8
Default
100
AcDbLine
 10
199.8004854749337
 20
102.9195042808744
 30
0.0
 11
196.5010589457173
 21
104.239274892561
 31
0.0
  0
LINE
  5
69
330
1F
100
AcDbEntity
  8
Default
100
AcDbLine
 10
201.1202560866202
 20
99.62007775165802
 30
0.0
 11
199.8004854749337
 21
102.9195042808744
 31
0.0
  0
LINE
  5
6A
330
1F
100
AcDbEntity
  8
Default
100
AcDbLine
 10
201.1202560866202
 20
92.03139673446036
 30
0.0
 11
201.1202560866202
 21
99.62007775165802
 31
0.0
  0
LINE
  5
6B
330
1F
100
AcDbEntity
  8
Default
100
AcDbLine
 10
201.4501987395419
 20
99.78504907811883
 30
0.0
 11
201.4501987395419
 21
92.03139673446036
 31
0.0
  0
LINE
  5
6C
330
1F
100
AcDbEntity
  8
Default
100
AcDbLine
 10
200.1304281278553
 20
103.249446933796
 30
0.0
 11
201.4501987395419
 21
99.78504907811883
 31
0.0
  0
LINE
  5
6D
330
1F
100
AcDbEntity
  8
Default
100
AcDbLine
 10
196.5010589457173
 20
104.7341888719434
 30
0.0
 11
200.1304281278553
 21
103.249446933796
 31
0.0
  0
LINE
  5
6E
330
1F
100
AcDbEntity
  8
Default
100
AcDbLine
 10
193.0366610900401
 20
103.249446933796
 30
0.0
 11
196.5010589457173
 21
104.7341888719434
 31
0.0
  0
LINE
  5
6F
330
1F
100
AcDbEntity
  8
Default
100
AcDbLine
 10
191.5519191518927
 20
99.78504907811883
 30
0.0
 11
193.0366610900401
 21
103.249446933796
 31
0.0
  0
LINE
  5
70
330
1F
100
AcDbEntity
  8
Default
100
AcDbLine
 10
191.5519191518927
 20
92.03139673446036
 30
0.0
 11
191.5519191518927
 21
99.78504907811883
 31
0.0
  0
LINE
  5
71
330
1F
100
AcDbEntity
  8
Default
100
AcDbLine
 10
193.0366610900401
 20
88.56699887878317
 30
0.0
 11
191.5519191518927
 21
92.03139673446036
 31
0.0
  0
LINE
  5
72
330
1F
100
AcDbEntity
  8
Default
100
AcDbLine
 10
196.5010589457173
 20
87.0822569406358
 30
0.0
 11
193.0366610900401
 21
88.56699887878317
 31
0.0
  0
LINE
  5
73
330
1F
100
AcDbEntity
  8
Default
100
AcDbLine
 10
200.1304281278553
 20
88.56699887878317
 30
0.0
 11
196.5010589457173
 21
87.0822569406358
 31
0.0
  0
LINE
  5
74
330
1F
100
AcDbEntity
  8
Default
100
AcDbLine
 10
201.4501987395419
 20
92.03139673446036
 30
0.0
 11
200.1304281278553
 21
88.56699887878317
 31
0.0
  0
LINE
  5
75
330
1F
100
AcDbEntity
  8
Default
100
AcDbLine
 10
184.1282094611559
 20
95.99070856952001
 30
0.0
 11
185.7779227257641
 21
99.62007775165802
 31
0.0
  0
LINE
  5
76
330
1F
100
AcDbEntity
  8
Default
100
AcDbLine
 10
180.9937542584003
 20
95.16585193721592
 30
0.0
 11
184.1282094611559
 21
95.99070856952001
 31
0.0
  0
LINE
  5
77
330
1F
100
AcDbEntity
  8
Default
100
AcDbLine
 10
176.704499770419
 20
95.16585193721592
 30
0.0
 11
180.9937542584003
 21
95.16585193721592
 31
0.0
  0
LINE
  5
78
330
1F
100
AcDbEntity
  8
Default
100
AcDbLine
 10
176.704499770419
 20
104.2392748925609
 30
0.0
 11
176.704499770419
 21
95.16585193721592
 31
0.0
  0
LINE
  5
79
330
1F
100
AcDbEntity
  8
Default
100
AcDbLine
 10
180.9937542584003
 20
104.2392748925609
 30
0.0
 11
176.704499770419
 21
104.2392748925609
 31
0.0
  0
LINE
  5
7A
330
1F
100
AcDbEntity
  8
Default
100
AcDbLine
 10
184.1282094611559
 20
103.4144182602568
 30
0.0
 11
180.9937542584003
 21
104.2392748925609
 31
0.0
  0
LINE
  5
7B
330
1F
100
AcDbEntity
  8
Default
100
AcDbLine
 10
185.7779227257641
 20
99.62007775165802
 30
0.0
 11
184.1282094611559
 21
103.4144182602568
 31
0.0
  0
LINE
  5
7C
330
1F
100
AcDbEntity
  8
Default
100
AcDbLine
 10
185.6954370625337
 20
102.1358904801855
 30
0.0
 11
186.1078653786857
 21
99.78504907811883
 31
0.0
  0
LINE
  5
7D
330
1F
100
AcDbEntity
  8
Default
100
AcDbLine
 10
184.2931807876167
 20
103.7443609131785
 30
0.0
 11
185.6954370625337
 21
102.1358904801855
 31
0.0
  0
LINE
  5
7E
330
1F
100
AcDbEntity
  8
Default
100
AcDbLine
 10
180.9937542584003
 20
104.7341888719434
 30
0.0
 11
184.2931807876167
 21
103.7443609131785
 31
0.0
  0
LINE
  5
7F
330
1F
100
AcDbEntity
  8
Default
100
AcDbLine
 10
176.2095857910366
 20
104.7341888719434
 30
0.0
 11
180.9937542584003
 21
104.7341888719434
 31
0.0
  0
LINE
  5
80
330
1F
100
AcDbEntity
  8
Default
100
AcDbLine
 10
176.2095857910366
 20
87.24722826709662
 30
0.0
 11
176.2095857910366
 21
104.7341888719434
 31
0.0
  0
LINE
  5
81
330
1F
100
AcDbEntity
  8
Default
100
AcDbLine
 10
176.704499770419
 20
87.24722826709662
 30
0.0
 11
176.2095857910366
 21
87.24722826709662
 31
0.0
  0
LINE
  5
82
330
1F
100
AcDbEntity
  8
Default
100
AcDbLine
 10
176.704499770419
 20
94.67093795783346
 30
0.0
 11
176.704499770419
 21
87.24722826709662
 31
0.0
  0
LINE
  5
83
330
1F
100
AcDbEntity
  8
Default
100
AcDbLine
 10
180.9937542584003
 20
94.67093795783346
 30
0.0
 11
176.704499770419
 21
94.67093795783346
 31
0.0
  0
LINE
  5
84
330
1F
100
AcDbEntity
  8
Default
100
AcDbLine
 10
184.2931807876167
 20
95.66076591659836
 30
0.0
 11
180.9937542584003
 21
94.67093795783346
 31
0.0
  0
LINE
  5
85
330
1F
100
AcDbEntity
  8
Default
100
AcDbLine
 10
185.6954370625337
 20
97.28985776539895
 30
0.0
 11
184.2931807876167
 21
95.66076591659836
 31
0.0
  0
LINE
  5
86
330
1F
100
AcDbEntity
  8
Default
100
AcDbLine
 10
186.1078653786857
 20
99.78504907811883
 30
0.0
 11
185.6954370625337
 21
97.28985776539895
 31
0.0
  0
LINE
  5
87
330
1F
100
AcDbEntity
  8
Default
100
AcDbLine
 10
165.3214782446225
 20
95.82573724305918
 30
0.0
 11
170.9305033442904
 21
87.24722826709662
 31
0.0
  0
LINE
  5
88
330
1F
100
AcDbEntity
  8
Default
100
AcDbLine
 10
170.9305033442904
 20
104.4042462190218
 30
0.0
 11
165.3214782446225
 21
95.82573724305918
 31
0.0
  0
LINE
  5
89
330
1F
100
AcDbEntity
  8
Default
100
AcDbLine
 10
170.6005606913687
 20
104.5692175454826
 30
0.0
 11
170.9305033442904
 21
104.4042462190218
 31
0.0
  0
LINE
  5
8A
330
1F
100
AcDbEntity
  8
Default
100
AcDbLine
 10
164.9915355917009
 20
96.15567989598082
 30
0.0
 11
170.6005606913687
 21
104.5692175454826
 31
0.0
  0
LINE
  5
8B
330
1F
100
AcDbEntity
  8
Default
100
AcDbLine
 10
159.3825104920331
 20
104.5692175454826
 30
0.0
 11
164.9915355917009
 21
96.15567989598082
 31
0.0
  0
LINE
  5
8C
330
1F
100
AcDbEntity
  8
Default
100
AcDbLine
 10
159.0525678391115
 20
104.4042462190218
 30
0.0
 11
159.3825104920331
 21
104.5692175454826
 31
0.0
  0
LINE
  5
8D
330
1F
100
AcDbEntity
  8
Default
100
AcDbLine
 10
164.8265642652401
 20
95.82573724305918
 30
0.0
 11
159.0525678391115
 21
104.4042462190218
 31
0.0
  0
LINE
  5
8E
330
1F
100
AcDbEntity
  8
Default
100
AcDbLine
 10
159.0525678391115
 20
87.24722826709662
 30
0.0
 11
164.8265642652401
 21
95.82573724305918
 31
0.0
  0
LINE
  5
8F
330
1F
100
AcDbEntity
  8
Default
100
AcDbLine
 10
159.3825104920331
 20
87.0822569406358
 30
0.0
 11
159.0525678391115
 21
87.24722826709662
 31
0.0
  0
LINE
  5
90
330
1F
100
AcDbEntity
  8
Default
100
AcDbLine
 10
164.9915355917009
 20
95.49579459013755
 30
0.0
 11
159.3825104920331
 21
87.0822569406358
 31
0.0
  0
LINE
  5
91
330
1F
100
AcDbEntity
  8
Default
100
AcDbLine
 10
170.6005606913687
 20
87.0822569406358
 30
0.0
 11
164.9915355917009
 21
95.49579459013755
 31
0.0
  0
LINE
  5
92
330
1F
100
AcDbEntity
  8
Default
100
AcDbLine
 10
170.9305033442904
 20
87.24722826709662
 30
0.0
 11
170.6005606913687
 21
87.0822569406358
 31
0.0
  0
LINE
  5
93
330
1F
100
AcDbEntity
  8
Default
100
AcDbLine
 10
153.6085140659044
 20
87.41219959355743
 30
0.0
 11
153.6085140659044
 21
87.0822569406358
 31
0.0
  0
LINE
  5
94
330
1F
100
AcDbEntity
  8
Default
100
AcDbLine
 10
146.1848043751676
 20
87.41219959355743
 30
0.0
 11
153.6085140659044
 21
87.41219959355743
 31
0.0
  0
LINE
  5
95
330
1F
100
AcDbEntity
  8
Default
100
AcDbLine
 10
146.1848043751676
 20
96.65059387536327
 30
0.0
 11
146.1848043751676
 21
87.41219959355743
 31
0.0
  0
LINE
  5
96
330
1F
100
AcDbEntity
  8
Default
100
AcDbLine
 10
151.6288581483746
 20
96.65059387536327
 30
0.0
 11
146.1848043751676
 21
96.65059387536327
 31
0.0
  0
LINE
  5
97
330
1F
100
AcDbEntity
  8
Default
100
AcDbLine
 10
151.6288581483746
 20
96.98053652828492
 30
0.0
 11
151.6288581483746
 21
96.65059387536327
 31
0.0
  0
LINE
  5
98
330
1F
100
AcDbEntity
  8
Default
100
AcDbLine
 10
146.1848043751676
 20
96.98053652828492
 30
0.0
 11
151.6288581483746
 21
96.98053652828492
 31
0.0
  0
LINE
  5
99
330
1F
100
AcDbEntity
  8
Default
100
AcDbLine
 10
146.1848043751676
 20
104.4042462190218
 30
0.0
 11
146.1848043751676
 21
96.98053652828492
 31
0.0
  0
LINE
  5
9A
330
1F
100
AcDbEntity
  8
Default
100
AcDbLine
 10
153.6085140659044
 20
104.4042462190218
 30
0.0
 11
146.1848043751676
 21
104.4042462190218
 31
0.0
  0
LINE
  5
9B
330
1F
100
AcDbEntity
  8
Default
100
AcDbLine
 10
153.6085140659044
 20
104.7341888719434
 30
0.0
 11
153.6085140659044
 21
104.4042462190218
 31
0.0
  0
LINE
  5
9C
330
1F
100
AcDbEntity
  8
Default
100
AcDbLine
 10
145.6898903957851
 20
104.7341888719434
 30
0.0
 11
153.6085140659044
 21
104.7341888719434
 31
0.0
  0
LINE
  5
9D
330
1F
100
AcDbEntity
  8
Default
100
AcDbLine
 10
145.6898903957851
 20
87.0822569406358
 30
0.0
 11
145.6898903957851
 21
104.7341888719434
 31
0.0
  0
LINE
  5
9E
330
1F
100
AcDbEntity
  8
Default
100
AcDbLine
 10
153.6085140659044
 20
87.0822569406358
 30
0.0
 11
145.6898903957851
 21
87.0822569406358
 31
0.0
  0
LINE
  5
9F
330
1F
100
AcDbEntity
  8
Default
100
AcDbLine
 10
130.6774996878506
 20
95.99070856952001
 30
0.0
 11
132.3272129524588
 21
99.62007775165802
 31
0.0
  0
LINE
  5
A0
330
1F
100
AcDbEntity
  8
Default
100
AcDbLine
 10
127.5430444850951
 20
95.16585193721592
 30
0.0
 11
130.6774996878506
 21
95.99070856952001
 31
0.0
  0
LINE
  5
A1
330
1F
100
AcDbEntity
  8
Default
100
AcDbLine
 10
123.2537899971138
 20
95.16585193721592
 30
0.0
 11
127.5430444850951
 21
95.16585193721592
 31
0.0
  0
LINE
  5
A2
330
1F
100
AcDbEntity
  8
Default
100
AcDbLine
 10
123.2537899971138
 20
104.2392748925609
 30
0.0
 11
123.2537899971138
 21
95.16585193721592
 31
0.0
  0
LINE
  5
A3
330
1F
100
AcDbEntity
  8
Default
100
AcDbLine
 10
127.5430444850951
 20
104.2392748925609
 30
0.0
 11
123.2537899971138
 21
104.2392748925609
 31
0.0
  0
LINE
  5
A4
330
1F
100
AcDbEntity
  8
Default
100
AcDbLine
 10
130.6774996878506
 20
103.4144182602568
 30
0.0
 11
127.5430444850951
 21
104.2392748925609
 31
0.0
  0
LINE
  5
A5
330
1F
100
AcDbEntity
  8
Default
100
AcDbLine
 10
132.3272129524588
 20
99.62007775165802
 30
0.0
 11
130.6774996878506
 21
103.4144182602568
 31
0.0
  0
LINE
  5
A6
330
1F
100
AcDbEntity
  8
Default
100
AcDbLine
 10
132.2447272892284
 20
102.1358904801855
 30
0.0
 11
132.6571556053805
 21
99.78504907811883
 31
0.0
  0
LINE
  5
A7
330
1F
100
AcDbEntity
  8
Default
100
AcDbLine
 10
130.8424710143115
 20
103.7443609131785
 30
0.0
 11
132.2447272892284
 21
102.1358904801855
 31
0.0
  0
LINE
  5
A8
330
1F
100
AcDbEntity
  8
Default
100
AcDbLine
 10
127.5430444850951
 20
104.7341888719434
 30
0.0
 11
130.8424710143115
 21
103.7443609131785
 31
0.0
  0
LINE
  5
A9
330
1F
100
AcDbEntity
  8
Default
100
AcDbLine
 10
122.7588760177314
 20
104.7341888719434
 30
0.0
 11
127.5430444850951
 21
104.7341888719434
 31
0.0
  0
LINE
  5
AA
330
1F
100
AcDbEntity
  8
Default
100
AcDbLine
 10
122.7588760177314
 20
87.24722826709662
 30
0.0
 11
122.7588760177314
 21
104.7341888719434
 31
0.0
  0
LINE
  5
AB
330
1F
100
AcDbEntity
  8
Default
100
AcDbLine
 10
123.2537899971138
 20
87.24722826709662
 30
0.0
 11
122.7588760177314
 21
87.24722826709662
 31
0.0
  0
LINE
  5
AC
330
1F
100
AcDbEntity
  8
Default
100
AcDbLine
 10
123.2537899971138
 20
94.67093795783346
 30
0.0
 11
123.2537899971138
 21
87.24722826709662
 31
0.0
  0
LINE
  5
AD
330
1F
100
AcDbEntity
  8
Default
100
AcDbLine
 10
127.5430444850951
 20
94.67093795783346
 30
0.0
 11
123.2537899971138
 21
94.67093795783346
 31
0.0
  0
LINE
  5
AE
330
1F
100
AcDbEntity
  8
Default
100
AcDbLine
 10
128.6978437703208
 20
94.83590928429427
 30
0.0
 11
127.5430444850951
 21
94.67093795783346
 31
0.0
  0
LINE
  5
AF
330
1F
100
AcDbEntity
  8
Default
100
AcDbLine
 10
132.3272129524588
 20
87.24722826709662
 30
0.0
 11
128.6978437703208
 21
94.83590928429427
 31
0.0
  0
LINE
  5
B0
330
1F
100
AcDbEntity
  8
Default
100
AcDbLine
 10
132.6571556053805
 20
87.41219959355743
 30
0.0
 11
132.3272129524588
 21
87.24722826709662
 31
0.0
  0
LINE
  5
B1
330
1F
100
AcDbEntity
  8
Default
100
AcDbLine
 10
129.0277864232424
 20
95.00088061075509
 30
0.0
 11
132.6571556053805
 21
87.41219959355743
 31
0.0
  0
LINE
  5
B2
330
1F
100
AcDbEntity
  8
Default
100
AcDbLine
 10
131.7704347256536
 20
96.52686538051768
 30
0.0
 11
129.0277864232424
 21
95.00088061075509
 31
0.0
  0
LINE
  5
B3
330
1F
100
AcDbEntity
  8
Default
100
AcDbLine
 10
132.6571556053805
 20
99.78504907811883
 30
0.0
 11
131.7704347256536
 21
96.52686538051768
 31
0.0
  0
LINE
  5
B4
330
1F
100
AcDbEntity
  8
Default
100
AcDbLine
 10
115.6651089799162
 20
88.73197020524398
 30
0.0
 11
116.9848795916027
 21
92.03139673446036
 31
0.0
  0
LINE
  5
B5
330
1F
100
AcDbEntity
  8
Default
100
AcDbLine
 10
112.3656824506998
 20
87.41219959355743
 30
0.0
 11
115.6651089799162
 21
88.73197020524398
 31
0.0
  0
LINE
  5
B6
330
1F
100
AcDbEntity
  8
Default
100
AcDbLine
 10
109.2312272479442
 20
88.73197020524398
 30
0.0
 11
112.3656824506998
 21
87.41219959355743
 31
0.0
  0
LINE
  5
B7
330
1F
100
AcDbEntity
  8
Default
100
AcDbLine
 10
107.9114566362577
 20
92.03139673446036
 30
0.0
 11
109.2312272479442
 21
88.73197020524398
 31
0.0
  0
LINE
  5
B8
330
1F
100
AcDbEntity
  8
Default
100
AcDbLine
 10
107.9114566362577
 20
99.62007775165802
 30
0.0
 11
107.9114566362577
 21
92.03139673446036
 31
0.0
  0
LINE
  5
B9
330
1F
100
AcDbEntity
  8
Default
100
AcDbLine
 10
109.2312272479442
 20
102.9195042808744
 30
0.0
 11
107.9114566362577
 21
99.62007775165802
 31
0.0
  0
LINE
  5
BA
330
1F
100
AcDbEntity
  8
Default
100
AcDbLine
 10
112.3656824506998
 20
104.2392748925609
 30
0.0
 11
109.2312272479442
 21
102.9195042808744
 31
0.0
  0
LINE
  5
BB
330
1F
100
AcDbEntity
  8
Default
100
AcDbLine
 10
115.6651089799162
 20
102.9195042808744
 30
0.0
 11
112.3656824506998
 21
104.239274892561
 31
0.0
  0
LINE
  5
BC
330
1F
100
AcDbEntity
  8
Default
100
AcDbLine
 10
116.9848795916027
 20
99.62007775165802
 30
0.0
 11
115.6651089799162
 21
102.9195042808744
 31
0.0
  0
LINE
  5
BD
330
1F
100
AcDbEntity
  8
Default
100
AcDbLine
 10
116.9848795916027
 20
92.03139673446036
 30
0.0
 11
116.9848795916027
 21
99.62007775165802
 31
0.0
  0
LINE
  5
BE
330
1F
100
AcDbEntity
  8
Default
100
AcDbLine
 10
117.3148222445243
 20
99.78504907811883
 30
0.0
 11
117.3148222445243
 21
92.03139673446036
 31
0.0
  0
LINE
  5
BF
330
1F
100
AcDbEntity
  8
Default
100
AcDbLine
 10
115.9950516328378
 20
103.249446933796
 30
0.0
 11
117.3148222445243
 21
99.78504907811883
 31
0.0
  0
LINE
  5
C0
330
1F
100
AcDbEntity
  8
Default
100
AcDbLine
 10
112.3656824506998
 20
104.7341888719434
 30
0.0
 11
115.9950516328378
 21
103.249446933796
 31
0.0
  0
LINE
  5
C1
330
1F
100
AcDbEntity
  8
Default
100
AcDbLine
 10
108.9012845950226
 20
103.249446933796
 30
0.0
 11
112.3656824506998
 21
104.7341888719434
 31
0.0
  0
LINE
  5
C2
330
1F
100
AcDbEntity
  8
Default
100
AcDbLine
 10
107.4165426568752
 20
99.78504907811883
 30
0.0
 11
108.9012845950226
 21
103.249446933796
 31
0.0
  0
LINE
  5
C3
330
1F
100
AcDbEntity
  8
Default
100
AcDbLine
 10
107.4165426568752
 20
92.03139673446036
 30
0.0
 11
107.4165426568752
 21
99.78504907811883
 31
0.0
  0
LINE
  5
C4
330
1F
100
AcDbEntity
  8
Default
100
AcDbLine
 10
108.9012845950226
 20
88.56699887878317
 30
0.0
 11
107.4165426568752
 21
92.03139673446036
 31
0.0
  0
LINE
  5
C5
330
1F
100
AcDbEntity
  8
Default
100
AcDbLine
 10
112.3656824506998
 20
87.0822569406358
 30
0.0
 11
108.9012845950226
 21
88.56699887878317
 31
0.0
  0
LINE
  5
C6
330
1F
100
AcDbEntity
  8
Default
100
AcDbLine
 10
115.9950516328378
 20
88.56699887878317
 30
0.0
 11
112.3656824506998
 21
87.0822569406358
 31
0.0
  0
LINE
  5
C7
330
1F
100
AcDbEntity
  8
Default
100
AcDbLine
 10
117.3148222445243
 20
92.03139673446036
 30
0.0
 11
115.9950516328378
 21
88.56699887878317
 31
0.0
  0
LINE
  5
C8
330
1F
100
AcDbEntity
  8
Default
100
AcDbLine
 10
101.8075175572074
 20
104.7341888719434
 30
0.0
 11
101.8075175572074
 21
104.4042462190218
 31
0.0
  0
LINE
  5
C9
330
1F
100
AcDbEntity
  8
Default
100
AcDbLine
 10
92.2391806224799
 20
104.7341888719434
 30
0.0
 11
101.8075175572074
 21
104.7341888719434
 31
0.0
  0
LINE
  5
CA
330
1F
100
AcDbEntity
  8
Default
100
AcDbLine
 10
92.2391806224799
 20
104.4042462190218
 30
0.0
 11
92.2391806224799
 21
104.7341888719434
 31
0.0
  0
LINE
  5
CB
330
1F
100
AcDbEntity
  8
Default
100
AcDbLine
 10
96.85837776338282
 20
104.4042462190218
 30
0.0
 11
92.2391806224799
 21
104.4042462190218
 31
0.0
  0
LINE
  5
CC
330
1F
100
AcDbEntity
  8
Default
100
AcDbLine
 10
96.85837776338282
 20
87.24722826709662
 30
0.0
 11
96.85837776338282
 21
104.4042462190218
 31
0.0
  0
LINE
  5
CD
330
1F
100
AcDbEntity
  8
Default
100
AcDbLine
 10
97.35329174276528
 20
87.24722826709662
 30
0.0
 11
96.85837776338282
 21
87.24722826709662
 31
0.0
  0
LINE
  5
CE
330
1F
100
AcDbEntity
  8
Default
100
AcDbLine
 10
97.35329174276528
 20
104.4042462190218
 30
0.0
 11
97.35329174276528
 21
87.24722826709662
 31
0.0
  0
LINE
  5
CF
330
1F
100
AcDbEntity
  8
Default
100
AcDbLine
 10
101.8075175572074
 20
104.4042462190218
 30
0.0
 11
97.35329174276528
 21
104.4042462190218
 31
0.0
  0
LINE
  5
D0
330
1F
100
AcDbEntity
  8
Default
100
AcDbLine
 10
86.63015552281207
 20
87.41219959355743
 30
0.0
 11
86.63015552281207
 21
87.0822569406358
 31
0.0
  0
LINE
  5
D1
330
1F
100
AcDbEntity
  8
Default
100
AcDbLine
 10
83.66067164651734
 20
87.41219959355743
 30
0.0
 11
86.63015552281207
 21
87.41219959355743
 31
0.0
  0
LINE
  5
D2
330
1F
100
AcDbEntity
  8
Default
100
AcDbLine
 10
81.84598705544833
 20
87.74214224647908
 30
0.0
 11
83.66067164651733
 21
87.41219959355743
 31
0.0
  0
LINE
  5
D3
330
1F
100
AcDbEntity
  8
Default
100
AcDbLine
 10
80.36124511730097
 20
88.56699887878317
 30
0.0
 11
81.84598705544833
 21
87.74214224647909
 31
0.0
  0
LINE
  5
D4
330
1F
100
AcDbEntity
  8
Default
100
AcDbLine
 10
79.37141715853605
 20
90.05174081693053
 30
0.0
 11
80.36124511730097
 21
88.56699887878317
 31
0.0
  0
LINE
  5
D5
330
1F
100
AcDbEntity
  8
Default
100
AcDbLine
 10
79.20644583207523
 20
92.03139673446036
 30
0.0
 11
79.37141715853605
 21
90.05174081693053
 31
0.0
  0
LINE
  5
D6
330
1F
100
AcDbEntity
  8
Default
100
AcDbLine
 10
79.20644583207523
 20
99.78504907811883
 30
0.0
 11
79.20644583207523
 21
92.03139673446036
 31
0.0
  0
LINE
  5
D7
330
1F
100
AcDbEntity
  8
Default
100
AcDbLine
 10
80.36124511730097
 20
103.0844756073352
 30
0.0
 11
79.20644583207523
 21
99.78504907811883
 31
0.0
  0
LINE
  5
D8
330
1F
100
AcDbEntity
  8
Default
100
AcDbLine
 10
83.66067164651734
 20
104.4042462190218
 30
0.0
 11
80.36124511730097
 21
103.0844756073352
 31
0.0
  0
LINE
  5
D9
330
1F
100
AcDbEntity
  8
Default
100
AcDbLine
 10
86.63015552281207
 20
104.4042462190218
 30
0.0
 11
83.66067164651734
 21
104.4042462190218
 31
0.0
  0
LINE
  5
DA
330
1F
100
AcDbEntity
  8
Default
100
AcDbLine
 10
86.63015552281207
 20
104.7341888719434
 30
0.0
 11
86.63015552281207
 21
104.4042462190218
 31
0.0
  0
LINE
  5
DB
330
1F
100
AcDbEntity
  8
Default
100
AcDbLine
 10
83.66067164651734
 20
104.7341888719434
 30
0.0
 11
86.63015552281207
 21
104.7341888719434
 31
0.0
  0
LINE
  5
DC
330
1F
100
AcDbEntity
  8
Default
100
AcDbLine
 10
80.03130246437934
 20
103.4144182602568
 30
0.0
 11
83.66067164651734
 21
104.7341888719434
 31
0.0
  0
LINE
  5
DD
330
1F
100
AcDbEntity
  8
Default
100
AcDbLine
 10
78.71153185269279
 20
99.78504907811883
 30
0.0
 11
80.03130246437934
 21
103.4144182602568
 31
0.0
  0
LINE
  5
DE
330
1F
100
AcDbEntity
  8
Default
100
AcDbLine
 10
78.71153185269279
 20
92.03139673446036
 30
0.0
 11
78.71153185269279
 21
99.78504907811883
 31
0.0
  0
LINE
  5
DF
330
1F
100
AcDbEntity
  8
Default
100
AcDbLine
 10
80.03130246437934
 20
88.40202755232235
 30
0.0
 11
78.71153185269279
 21
92.03139673446036
 31
0.0
  0
LINE
  5
E0
330
1F
100
AcDbEntity
  8
Default
100
AcDbLine
 10
83.66067164651734
 20
87.0822569406358
 30
0.0
 11
80.03130246437934
 21
88.40202755232235
 31
0.0
  0
LINE
  5
E1
330
1F
100
AcDbEntity
  8
Default
100
AcDbLine
 10
86.63015552281207
 20
87.0822569406358
 30
0.0
 11
83.66067164651734
 21
87.0822569406358
 31
0.0
  0
LINE
  5
E2
330
1F
100
AcDbEntity
  8
Default
100
AcDbLine
 10
73.26747807948576
 20
87.41219959355743
 30
0.0
 11
73.26747807948576
 21
87.0822569406358
 31
0.0
  0
LINE
  5
E3
330
1F
100
AcDbEntity
  8
Default
100
AcDbLine
 10
65.84376838874893
 20
87.41219959355743
 30
0.0
 11
73.26747807948576
 21
87.41219959355743
 31
0.0
  0
LINE
  5
E4
330
1F
100
AcDbEntity
  8
Default
100
AcDbLine
 10
65.84376838874893
 20
96.65059387536327
 30
0.0
 11
65.84376838874893
 21
87.41219959355743
 31
0.0
  0
LINE
  5
E5
330
1F
100
AcDbEntity
  8
Default
100
AcDbLine
 10
71.28782216195594
 20
96.65059387536327
 30
0.0
 11
65.84376838874893
 21
96.65059387536327
 31
0.0
  0
LINE
  5
E6
330
1F
100
AcDbEntity
  8
Default
100
AcDbLine
 10
71.28782216195594
 20
96.98053652828492
 30
0.0
 11
71.28782216195594
 21
96.65059387536327
 31
0.0
  0
LINE
  5
E7
330
1F
100
AcDbEntity
  8
Default
100
AcDbLine
 10
65.84376838874893
 20
96.98053652828492
 30
0.0
 11
71.28782216195594
 21
96.98053652828492
 31
0.0
  0
LINE
  5
E8
330
1F
100
AcDbEntity
  8
Default
100
AcDbLine
 10
65.84376838874893
 20
104.4042462190218
 30
0.0
 11
65.84376838874893
 21
96.98053652828492
 31
0.0
  0
LINE
  5
E9
330
1F
100
AcDbEntity
  8
Default
100
AcDbLine
 10
73.26747807948576
 20
104.4042462190218
 30
0.0
 11
65.84376838874893
 21
104.4042462190218
 31
0.0
  0
LINE
  5
EA
330
1F
100
AcDbEntity
  8
Default
100
AcDbLine
 10
73.26747807948576
 20
104.7341888719434
 30
0.0
 11
73.26747807948576
 21
104.4042462190218
 31
0.0
  0
LINE
  5
EB
330
1F
100
AcDbEntity
  8
Default
100
AcDbLine
 10
65.34885440936647
 20
104.7341888719434
 30
0.0
 11
73.26747807948576
 21
104.7341888719434
 31
0.0
  0
LINE
  5
EC
330
1F
100
AcDbEntity
  8
Default
100
AcDbLine
 10
65.34885440936647
 20
87.0822569406358
 30
0.0
 11
65.34885440936647
 21
104.7341888719434
 31
0.0
  0
LINE
  5
ED
330
1F
100
AcDbEntity
  8
Default
100
AcDbLine
 10
73.26747807948576
 20
87.0822569406358
 30
0.0
 11
65.34885440936647
 21
87.0822569406358
 31
0.0
  0
LINE
  5
EE
330
1F
100
AcDbEntity
  8
Default
100
AcDbLine
 10
59.73982930969864
 20
104.5692175454826
 30
0.0
 11
60.06977196262027
 21
104.4042462190218
 31
0.0
  0
LINE
  5
EF
330
1F
100
AcDbEntity
  8
Default
100
AcDbLine
 10
54.1308042100308
 20
87.90711357293989
 30
0.0
 11
59.73982930969864
 21
104.5692175454826
 31
0.0
  0
LINE
  5
F0
330
1F
100
AcDbEntity
  8
Default
100
AcDbLine
 10
48.52177911036297
 20
104.5692175454826
 30
0.0
 11
54.1308042100308
 21
87.90711357293989
 31
0.0
  0
LINE
  5
F1
330
1F
100
AcDbEntity
  8
Default
100
AcDbLine
 10
48.19183645744133
 20
104.4042462190218
 30
0.0
 11
48.52177911036297
 21
104.5692175454826
 31
0.0
  0
LINE
  5
F2
330
1F
100
AcDbEntity
  8
Default
100
AcDbLine
 10
53.96583288356998
 20
87.24722826709662
 30
0.0
 11
48.19183645744133
 21
104.4042462190218
 31
0.0
  0
LINE
  5
F3
330
1F
100
AcDbEntity
  8
Default
100
AcDbLine
 10
54.29577553649162
 20
87.24722826709662
 30
0.0
 11
53.96583288356998
 21
87.24722826709662
 31
0.0
  0
LINE
  5
F4
330
1F
100
AcDbEntity
  8
Default
100
AcDbLine
 10
60.06977196262027
 20
104.4042462190218
 30
0.0
 11
54.29577553649162
 21
87.24722826709662
 31
0.0
  0
LINE
  5
F5
330
1F
100
AcDbEntity
  8
Default
100
AcDbLine
 10
180.6638116054787
 20
119.9115509063387
 30
0.0
 11
188.4174639491372
 21
119.9115509063387
 31
0.0
  0
LINE
  5
F6
330
1F
100
AcDbEntity
  8
Default
100
AcDbLine
 10
184.4581521140775
 20
131.459543758596
 30
0.0
 11
180.6638116054787
 21
119.9115509063387
 31
0.0
  0
LINE
  5
F7
330
1F
100
AcDbEntity
  8
Default
100
AcDbLine
 10
188.4174639491372
 20
119.9115509063387
 30
0.0
 11
184.4581521140775
 21
131.459543758596
 31
0.0
  0
LINE
  5
F8
330
1F
100
AcDbEntity
  8
Default
100
AcDbLine
 10
184.6231234405383
 20
132.1194290644393
 30
0.0
 11
190.397119866667
 21
114.9624111125141
 31
0.0
  0
LINE
  5
F9
330
1F
100
AcDbEntity
  8
Default
100
AcDbLine
 10
184.2931807876167
 20
132.1194290644393
 30
0.0
 11
184.6231234405383
 21
132.1194290644393
 31
0.0
  0
LINE
  5
FA
330
1F
100
AcDbEntity
  8
Default
100
AcDbLine
 10
178.519184361488
 20
114.9624111125141
 30
0.0
 11
184.2931807876167
 21
132.1194290644393
 31
0.0
  0
LINE
  5
FB
330
1F
100
AcDbEntity
  8
Default
100
AcDbLine
 10
178.8491270144097
 20
114.9624111125141
 30
0.0
 11
178.519184361488
 21
114.9624111125141
 31
0.0
  0
LINE
  5
FC
330
1F
100
AcDbEntity
  8
Default
100
AcDbLine
 10
180.4988402790179
 20
119.5816082534171
 30
0.0
 11
178.8491270144097
 21
114.9624111125141
 31
0.0
  0
LINE
  5
FD
330
1F
100
AcDbEntity
  8
Default
100
AcDbLine
 10
188.4174639491372
 20
119.5816082534171
 30
0.0
 11
180.4988402790179
 21
119.5816082534171
 31
0.0
  0
LINE
  5
FE
330
1F
100
AcDbEntity
  8
Default
100
AcDbLine
 10
190.0671772137454
 20
114.9624111125141
 30
0.0
 11
188.4174639491372
 21
119.5816082534171
 31
0.0
  0
LINE
  5
FF
330
1F
100
AcDbEntity
  8
Default
100
AcDbLine
 10
190.397119866667
 20
114.9624111125141
 30
0.0
 11
190.0671772137454
 21
114.9624111125141
 31
0.0
  0
LINE
  5
100
330
1F
100
AcDbEntity
  8
Default
100
AcDbLine
 10
173.075130588281
 20
132.1194290644393
 30
0.0
 11
173.075130588281
 21
114.9624111125141
 31
0.0
  0
LINE
  5
101
330
1F
100
AcDbEntity
  8
Default
100
AcDbLine
 10
172.7451879353594
 20
132.1194290644393
 30
0.0
 11
173.075130588281
 21
132.1194290644393
 31
0.0
  0
LINE
  5
102
330
1F
100
AcDbEntity
  8
Default
100
AcDbLine
 10
172.7451879353594
 20
115.6222964183574
 30
0.0
 11
172.7451879353594
 21
132.1194290644393
 31
0.0
  0
LINE
  5
103
330
1F
100
AcDbEntity
  8
Default
100
AcDbLine
 10
163.6717649800144
 20
132.1194290644393
 30
0.0
 11
172.7451879353594
 21
115.6222964183574
 31
0.0
  0
LINE
  5
104
330
1F
100
AcDbEntity
  8
Default
100
AcDbLine
 10
163.1768510006319
 20
132.1194290644393
 30
0.0
 11
163.6717649800144
 21
132.1194290644393
 31
0.0
  0
LINE
  5
105
330
1F
100
AcDbEntity
  8
Default
100
AcDbLine
 10
163.1768510006319
 20
114.9624111125141
 30
0.0
 11
163.1768510006319
 21
132.1194290644393
 31
0.0
  0
LINE
  5
106
330
1F
100
AcDbEntity
  8
Default
100
AcDbLine
 10
163.6717649800144
 20
114.9624111125141
 30
0.0
 11
163.1768510006319
 21
114.9624111125141
 31
0.0
  0
LINE
  5
107
330
1F
100
AcDbEntity
  8
Default
100
AcDbLine
 10
163.6717649800144
 20
131.2945724321352
 30
0.0
 11
163.6717649800144
 21
114.9624111125141
 31
0.0
  0
LINE
  5
108
330
1F
100
AcDbEntity
  8
Default
100
AcDbLine
 10
172.7451879353594
 20
114.9624111125141
 30
0.0
 11
163.6717649800144
 21
131.2945724321352
 31
0.0
  0
LINE
  5
109
330
1F
100
AcDbEntity
  8
Default
100
AcDbLine
 10
173.075130588281
 20
114.9624111125141
 30
0.0
 11
172.7451879353594
 21
114.9624111125141
 31
0.0
  0
LINE
  5
10A
330
1F
100
AcDbEntity
  8
Default
100
AcDbLine
 10
157.7327972274249
 20
124.6957193737025
 30
0.0
 11
157.7327972274249
 21
114.7974397860533
 31
0.0
  0
LINE
  5
10B
330
1F
100
AcDbEntity
  8
Default
100
AcDbLine
 10
154.7633133511302
 20
124.6957193737025
 30
0.0
 11
157.7327972274249
 21
124.6957193737025
 31
0.0
  0
LINE
  5
10C
330
1F
100
AcDbEntity
  8
Default
100
AcDbLine
 10
154.7633133511302
 20
124.3657767207808
 30
0.0
 11
154.7633133511302
 21
124.6957193737025
 31
0.0
  0
LINE
  5
10D
330
1F
100
AcDbEntity
  8
Default
100
AcDbLine
 10
157.4028545745033
 20
124.3657767207808
 30
0.0
 11
154.7633133511302
 21
124.3657767207808
 31
0.0
  0
LINE
  5
10E
330
1F
100
AcDbEntity
  8
Default
100
AcDbLine
 10
157.4028545745033
 20
115.127382438975
 30
0.0
 11
157.4028545745033
 21
124.3657767207808
 31
0.0
  0
LINE
  5
10F
330
1F
100
AcDbEntity
  8
Default
100
AcDbLine
 10
152.7836574336004
 20
115.127382438975
 30
0.0
 11
157.4028545745033
 21
115.127382438975
 31
0.0
  0
LINE
  5
110
330
1F
100
AcDbEntity
  8
Default
100
AcDbLine
 10
149.484230904384
 20
116.4471530506615
 30
0.0
 11
152.7836574336004
 21
115.127382438975
 31
0.0
  0
LINE
  5
111
330
1F
100
AcDbEntity
  8
Default
100
AcDbLine
 10
148.3294316191582
 20
119.7465795798779
 30
0.0
 11
149.484230904384
 21
116.4471530506615
 31
0.0
  0
LINE
  5
112
330
1F
100
AcDbEntity
  8
Default
100
AcDbLine
 10
148.3294316191582
 20
127.5002319235364
 30
0.0
 11
148.3294316191582
 21
119.7465795798779
 31
0.0
  0
LINE
  5
113
330
1F
100
AcDbEntity
  8
Default
100
AcDbLine
 10
149.8141735573056
 20
130.7996584527527
 30
0.0
 11
148.3294316191582
 21
127.5002319235363
 31
0.0
  0
LINE
  5
114
330
1F
100
AcDbEntity
  8
Default
100
AcDbLine
 10
152.7836574336004
 20
132.1194290644393
 30
0.0
 11
149.8141735573056
 21
130.7996584527527
 31
0.0
  0
LINE
  5
115
330
1F
100
AcDbEntity
  8
Default
100
AcDbLine
 10
157.5678259009641
 20
132.1194290644393
 30
0.0
 11
152.7836574336004
 21
132.1194290644393
 31
0.0
  0
LINE
  5
116
330
1F
100
AcDbEntity
  8
Default
100
AcDbLine
 10
157.5678259009641
 20
132.4493717173609
 30
0.0
 11
157.5678259009641
 21
132.1194290644393
 31
0.0
  0
LINE
  5
117
330
1F
100
AcDbEntity
  8
Default
100
AcDbLine
 10
152.7836574336004
 20
132.4493717173609
 30
0.0
 11
157.5678259009641
 21
132.4493717173609
 31
0.0
  0
LINE
  5
118
330
1F
100
AcDbEntity
  8
Default
100
AcDbLine
 10
149.484230904384
 20
131.1296011056744
 30
0.0
 11
152.7836574336004
 21
132.4493717173609
 31
0.0
  0
LINE
  5
119
330
1F
100
AcDbEntity
  8
Default
100
AcDbLine
 10
147.8345176397758
 20
127.5002319235364
 30
0.0
 11
149.484230904384
 21
131.1296011056744
 31
0.0
  0
LINE
  5
11A
330
1F
100
AcDbEntity
  8
Default
100
AcDbLine
 10
147.8345176397758
 20
119.7465795798779
 30
0.0
 11
147.8345176397758
 21
127.5002319235364
 31
0.0
  0
LINE
  5
11B
330
1F
100
AcDbEntity
  8
Default
100
AcDbLine
 10
149.3192595779232
 20
116.1172103977399
 30
0.0
 11
147.8345176397758
 21
119.7465795798779
 31
0.0
  0
LINE
  5
11C
330
1F
100
AcDbEntity
  8
Default
100
AcDbLine
 10
152.7836574336004
 20
114.7974397860533
 30
0.0
 11
149.3192595779232
 21
116.1172103977399
 31
0.0
  0
LINE
  5
11D
330
1F
100
AcDbEntity
  8
Default
100
AcDbLine
 10
157.7327972274249
 20
114.7974397860533
 30
0.0
 11
152.7836574336004
 21
114.7974397860533
 31
0.0
  0
LINE
  5
11E
330
1F
100
AcDbEntity
  8
Default
100
AcDbLine
 10
142.5554351930296
 20
132.1194290644393
 30
0.0
 11
142.5554351930296
 21
114.9624111125141
 31
0.0
  0
LINE
  5
11F
330
1F
100
AcDbEntity
  8
Default
100
AcDbLine
 10
142.0605212136471
 20
132.1194290644393
 30
0.0
 11
142.5554351930296
 21
132.1194290644393
 31
0.0
  0
LINE
  5
120
330
1F
100
AcDbEntity
  8
Default
100
AcDbLine
 10
142.0605212136471
 20
114.9624111125141
 30
0.0
 11
142.0605212136471
 21
132.1194290644393
 31
0.0
  0
LINE
  5
121
330
1F
100
AcDbEntity
  8
Default
100
AcDbLine
 10
142.5554351930296
 20
114.9624111125141
 30
0.0
 11
142.0605212136471
 21
114.9624111125141
 31
0.0
  0
LINE
  5
122
330
1F
100
AcDbEntity
  8
Default
100
AcDbLine
 10
136.7814387669009
 20
132.1194290644393
 30
0.0
 11
136.7814387669009
 21
114.9624111125141
 31
0.0
  0
LINE
  5
123
330
1F
100
AcDbEntity
  8
Default
100
AcDbLine
 10
136.2865247875185
 20
132.1194290644393
 30
0.0
 11
136.7814387669009
 21
132.1194290644393
 31
0.0
  0
LINE
  5
124
330
1F
100
AcDbEntity
  8
Default
100
AcDbLine
 10
136.2865247875185
 20
114.9624111125141
 30
0.0
 11
136.2865247875185
 21
132.1194290644393
 31
0.0
  0
LINE
  5
125
330
1F
100
AcDbEntity
  8
Default
100
AcDbLine
 10
136.7814387669009
 20
114.9624111125141
 30
0.0
 11
136.2865247875185
 21
114.9624111125141
 31
0.0
  0
LINE
  5
126
330
1F
100
AcDbEntity
  8
Default
100
AcDbLine
 10
130.2238285400834
 20
120.9632431125264
 30
0.0
 11
130.8424710143115
 21
118.756751621113
 31
0.0
  0
LINE
  5
127
330
1F
100
AcDbEntity
  8
Default
100
AcDbLine
 10
128.3679011173992
 20
122.5510921297118
 30
0.0
 11
130.2238285400834
 21
120.9632431125264
 31
0.0
  0
LINE
  5
128
330
1F
100
AcDbEntity
  8
Default
100
AcDbLine
 10
124.5735606088003
 20
124.5307480472416
 30
0.0
 11
128.3679011173992
 21
122.5510921297118
 31
0.0
  0
LINE
  5
129
330
1F
100
AcDbEntity
  8
Default
100
AcDbLine
 10
123.7487039764963
 20
124.8606907001633
 30
0.0
 11
124.5735606088003
 21
124.5307480472416
 31
0.0
  0
LINE
  5
12A
330
1F
100
AcDbEntity
  8
Default
100
AcDbLine
 10
121.9752622170425
 20
126.3454326383106
 30
0.0
 11
123.7487039764963
 21
124.8606907001633
 31
0.0
  0
LINE
  5
12B
330
1F
100
AcDbEntity
  8
Default
100
AcDbLine
 10
121.4391054060448
 20
128.3250885558405
 30
0.0
 11
121.9752622170425
 21
126.3454326383106
 31
0.0
  0
LINE
  5
12C
330
1F
100
AcDbEntity
  8
Default
100
AcDbLine
 10
122.2639620383489
 20
130.7996584527527
 30
0.0
 11
121.4391054060448
 21
128.3250885558405
 31
0.0
  0
LINE
  5
12D
330
1F
100
AcDbEntity
  8
Default
100
AcDbLine
 10
125.2334459146436
 20
132.1194290644393
 30
0.0
 11
122.2639620383489
 21
130.7996584527527
 31
0.0
  0
LINE
  5
12E
330
1F
100
AcDbEntity
  8
Default
100
AcDbLine
 10
129.6876717290858
 20
130.9646297792136
 30
0.0
 11
125.2334459146436
 21
132.1194290644393
 31
0.0
  0
LINE
  5
12F
330
1F
100
AcDbEntity
  8
Default
100
AcDbLine
 10
129.8526430555465
 20
131.2945724321352
 30
0.0
 11
129.6876717290858
 21
130.9646297792136
 31
0.0
  0
LINE
  5
130
330
1F
100
AcDbEntity
  8
Default
100
AcDbLine
 10
125.2334459146436
 20
132.4493717173609
 30
0.0
 11
129.8526430555465
 21
131.2945724321352
 31
0.0
  0
LINE
  5
131
330
1F
100
AcDbEntity
  8
Default
100
AcDbLine
 10
121.9340193854272
 20
130.9646297792136
 30
0.0
 11
125.2334459146436
 21
132.4493717173609
 31
0.0
  0
LINE
  5
132
330
1F
100
AcDbEntity
  8
Default
100
AcDbLine
 10
120.9441914266624
 20
128.3250885558405
 30
0.0
 11
121.9340193854273
 21
130.9646297792136
 31
0.0
  0
LINE
  5
133
330
1F
100
AcDbEntity
  8
Default
100
AcDbLine
 10
122.4289333648097
 20
125.1906333530849
 30
0.0
 11
120.9441914266624
 21
128.3250885558405
 31
0.0
  0
LINE
  5
134
330
1F
100
AcDbEntity
  8
Default
100
AcDbLine
 10
124.4085892823395
 20
124.20080539432
 30
0.0
 11
122.4289333648097
 21
125.1906333530849
 31
0.0
  0
LINE
  5
135
330
1F
100
AcDbEntity
  8
Default
100
AcDbLine
 10
127.3780731586343
 20
122.7160634561726
 30
0.0
 11
124.4085892823395
 21
124.20080539432
 31
0.0
  0
LINE
  5
136
330
1F
100
AcDbEntity
  8
Default
100
AcDbLine
 10
128.6978437703208
 20
121.8912068238685
 30
0.0
 11
127.3780731586343
 21
122.7160634561726
 31
0.0
  0
LINE
  5
137
330
1F
100
AcDbEntity
  8
Default
100
AcDbLine
 10
129.5227004026249
 20
121.2313215180253
 30
0.0
 11
128.6978437703208
 21
121.8912068238685
 31
0.0
  0
LINE
  5
138
330
1F
100
AcDbEntity
  8
Default
100
AcDbLine
 10
130.5125283613899
 20
118.756751621113
 30
0.0
 11
129.5227004026249
 21
121.2313215180253
 31
0.0
  0
LINE
  5
139
330
1F
100
AcDbEntity
  8
Default
100
AcDbLine
 10
129.6876717290858
 20
116.4471530506615
 30
0.0
 11
130.5125283613899
 21
118.756751621113
 31
0.0
  0
LINE
  5
13A
330
1F
100
AcDbEntity
  8
Default
100
AcDbLine
 10
126.8831591792518
 20
115.127382438975
 30
0.0
 11
129.6876717290858
 21
116.4471530506615
 31
0.0
  0
LINE
  5
13B
330
1F
100
AcDbEntity
  8
Default
100
AcDbLine
 10
121.274134079584
 20
117.1070383565048
 30
0.0
 11
126.8831591792518
 21
115.127382438975
 31
0.0
  0
LINE
  5
13C
330
1F
100
AcDbEntity
  8
Default
100
AcDbLine
 10
121.1091627531232
 20
116.7770957035832
 30
0.0
 11
121.274134079584
 21
117.1070383565048
 31
0.0
  0
LINE
  5
13D
330
1F
100
AcDbEntity
  8
Default
100
AcDbLine
 10
123.9136753029571
 20
115.2923537654358
 30
0.0
 11
121.1091627531232
 21
116.7770957035832
 31
0.0
  0
LINE
  5
13E
330
1F
100
AcDbEntity
  8
Default
100
AcDbLine
 10
126.8831591792518
 20
114.7974397860533
 30
0.0
 11
123.9136753029571
 21
115.2923537654358
 31
0.0
  0
LINE
  5
13F
330
1F
100
AcDbEntity
  8
Default
100
AcDbLine
 10
129.8526430555465
 20
116.1172103977399
 30
0.0
 11
126.8831591792518
 21
114.7974397860533
 31
0.0
  0
LINE
  5
140
330
1F
100
AcDbEntity
  8
Default
100
AcDbLine
 10
130.8424710143115
 20
118.756751621113
 30
0.0
 11
129.8526430555465
 21
116.1172103977399
 31
0.0
  0
LINE
  5
141
330
1F
100
AcDbEntity
  8
Default
100
AcDbLine
 10
107.7464853097969
 20
132.4493717173609
 30
0.0
 11
107.7464853097969
 21
132.1194290644393
 31
0.0
  0
LINE
  5
142
330
1F
100
AcDbEntity
  8
Default
100
AcDbLine
 10
98.17814837506937
 20
132.4493717173609
 30
0.0
 11
107.7464853097969
 21
132.4493717173609
 31
0.0
  0
LINE
  5
143
330
1F
100
AcDbEntity
  8
Default
100
AcDbLine
 10
98.17814837506937
 20
132.1194290644393
 30
0.0
 11
98.17814837506937
 21
132.4493717173609
 31
0.0
  0
LINE
  5
144
330
1F
100
AcDbEntity
  8
Default
100
AcDbLine
 10
102.7973455159723
 20
132.1194290644393
 30
0.0
 11
98.17814837506937
 21
132.1194290644393
 31
0.0
  0
LINE
  5
145
330
1F
100
AcDbEntity
  8
Default
100
AcDbLine
 10
102.7973455159723
 20
114.9624111125141
 30
0.0
 11
102.7973455159723
 21
132.1194290644393
 31
0.0
  0
LINE
  5
146
330
1F
100
AcDbEntity
  8
Default
100
AcDbLine
 10
103.2922594953548
 20
114.9624111125141
 30
0.0
 11
102.7973455159723
 21
114.9624111125141
 31
0.0
  0
LINE
  5
147
330
1F
100
AcDbEntity
  8
Default
100
AcDbLine
 10
103.2922594953548
 20
132.1194290644393
 30
0.0
 11
103.2922594953548
 21
114.9624111125141
 31
0.0
  0
LINE
  5
148
330
1F
100
AcDbEntity
  8
Default
100
AcDbLine
 10
107.7464853097969
 20
132.1194290644393
 30
0.0
 11
103.2922594953548
 21
132.1194290644393
 31
0.0
  0
LINE
  5
149
330
1F
100
AcDbEntity
  8
Default
100
AcDbLine
 10
91.95048080117347
 20
120.9632431125264
 30
0.0
 11
92.56912327540154
 21
118.756751621113
 31
0.0
  0
LINE
  5
14A
330
1F
100
AcDbEntity
  8
Default
100
AcDbLine
 10
90.09455337848927
 20
122.5510921297118
 30
0.0
 11
91.95048080117347
 21
120.9632431125264
 31
0.0
  0
LINE
  5
14B
330
1F
100
AcDbEntity
  8
Default
100
AcDbLine
 10
86.30021286989044
 20
124.5307480472416
 30
0.0
 11
90.09455337848927
 21
122.5510921297118
 31
0.0
  0
LINE
  5
14C
330
1F
100
AcDbEntity
  8
Default
100
AcDbLine
 10
85.47535623758634
 20
124.8606907001633
 30
0.0
 11
86.30021286989044
 21
124.5307480472416
 31
0.0
  0
LINE
  5
14D
330
1F
100
AcDbEntity
  8
Default
100
AcDbLine
 10
83.70191447813255
 20
126.3454326383106
 30
0.0
 11
85.47535623758634
 21
124.8606907001633
 31
0.0
  0
LINE
  5
14E
330
1F
100
AcDbEntity
  8
Default
100
AcDbLine
 10
83.16575766713488
 20
128.3250885558405
 30
0.0
 11
83.70191447813255
 21
126.3454326383106
 31
0.0
  0
LINE
  5
14F
330
1F
100
AcDbEntity
  8
Default
100
AcDbLine
 10
83.99061429943897
 20
130.7996584527527
 30
0.0
 11
83.16575766713488
 21
128.3250885558405
 31
0.0
  0
LINE
  5
150
330
1F
100
AcDbEntity
  8
Default
100
AcDbLine
 10
86.9600981757337
 20
132.1194290644393
 30
0.0
 11
83.99061429943897
 21
130.7996584527527
 31
0.0
  0
LINE
  5
151
330
1F
100
AcDbEntity
  8
Default
100
AcDbLine
 10
91.41432399017582
 20
130.9646297792136
 30
0.0
 11
86.9600981757337
 21
132.1194290644393
 31
0.0
  0
LINE
  5
152
330
1F
100
AcDbEntity
  8
Default
100
AcDbLine
 10
91.57929531663663
 20
131.2945724321352
 30
0.0
 11
91.41432399017582
 21
130.9646297792136
 31
0.0
  0
LINE
  5
153
330
1F
100
AcDbEntity
  8
Default
100
AcDbLine
 10
86.9600981757337
 20
132.4493717173609
 30
0.0
 11
91.57929531663663
 21
131.2945724321352
 31
0.0
  0
LINE
  5
154
330
1F
100
AcDbEntity
  8
Default
100
AcDbLine
 10
83.66067164651734
 20
130.9646297792136
 30
0.0
 11
86.9600981757337
 21
132.4493717173609
 31
0.0
  0
LINE
  5
155
330
1F
100
AcDbEntity
  8
Default
100
AcDbLine
 10
82.67084368775242
 20
128.3250885558405
 30
0.0
 11
83.66067164651733
 21
130.9646297792136
 31
0.0
  0
LINE
  5
156
330
1F
100
AcDbEntity
  8
Default
100
AcDbLine
 10
84.1555856258998
 20
125.1906333530849
 30
0.0
 11
82.67084368775241
 21
128.3250885558405
 31
0.0
  0
LINE
  5
157
330
1F
100
AcDbEntity
  8
Default
100
AcDbLine
 10
86.13524154342961
 20
124.20080539432
 30
0.0
 11
84.1555856258998
 21
125.1906333530849
 31
0.0
  0
LINE
  5
158
330
1F
100
AcDbEntity
  8
Default
100
AcDbLine
 10
89.10472541972435
 20
122.7160634561726
 30
0.0
 11
86.13524154342961
 21
124.20080539432
 31
0.0
  0
LINE
  5
159
330
1F
100
AcDbEntity
  8
Default
100
AcDbLine
 10
90.4244960314109
 20
121.8912068238685
 30
0.0
 11
89.10472541972435
 21
122.7160634561726
 31
0.0
  0
LINE
  5
15A
330
1F
100
AcDbEntity
  8
Default
100
AcDbLine
 10
91.24935266371499
 20
121.2313215180253
 30
0.0
 11
90.4244960314109
 21
121.8912068238685
 31
0.0
  0
LINE
  5
15B
330
1F
100
AcDbEntity
  8
Default
100
AcDbLine
 10
92.2391806224799
 20
118.756751621113
 30
0.0
 11
91.24935266371499
 21
121.2313215180253
 31
0.0
  0
LINE
  5
15C
330
1F
100
AcDbEntity
  8
Default
100
AcDbLine
 10
91.41432399017582
 20
116.4471530506615
 30
0.0
 11
92.2391806224799
 21
118.756751621113
 31
0.0
  0
LINE
  5
15D
330
1F
100
AcDbEntity
  8
Default
100
AcDbLine
 10
88.60981144034189
 20
115.127382438975
 30
0.0
 11
91.41432399017582
 21
116.4471530506615
 31
0.0
  0
LINE
  5
15E
330
1F
100
AcDbEntity
  8
Default
100
AcDbLine
 10
83.00078634067405
 20
117.1070383565048
 30
0.0
 11
88.60981144034189
 21
115.127382438975
 31
0.0
  0
LINE
  5
15F
330
1F
100
AcDbEntity
  8
Default
100
AcDbLine
 10
82.83581501421325
 20
116.7770957035832
 30
0.0
 11
83.00078634067405
 21
117.1070383565048
 31
0.0
  0
LINE
  5
160
330
1F
100
AcDbEntity
  8
Default
100
AcDbLine
 10
85.64032756404715
 20
115.2923537654358
 30
0.0
 11
82.83581501421325
 21
116.7770957035832
 31
0.0
  0
LINE
  5
161
330
1F
100
AcDbEntity
  8
Default
100
AcDbLine
 10
88.60981144034189
 20
114.7974397860533
 30
0.0
 11
85.64032756404715
 21
115.2923537654358
 31
0.0
  0
LINE
  5
162
330
1F
100
AcDbEntity
  8
Default
100
AcDbLine
 10
91.57929531663663
 20
116.1172103977399
 30
0.0
 11
88.60981144034189
 21
114.7974397860533
 31
0.0
  0
LINE
  5
163
330
1F
100
AcDbEntity
  8
Default
100
AcDbLine
 10
92.56912327540154
 20
118.756751621113
 30
0.0
 11
91.57929531663662
 21
116.1172103977399
 31
0.0
  0
LINE
  5
164
330
1F
100
AcDbEntity
  8
Default
100
AcDbLine
 10
75.2471339970156
 20
123.7058914149375
 30
0.0
 11
76.89684726162378
 21
127.3352605970755
 31
0.0
  0
LINE
  5
165
330
1F
100
AcDbEntity
  8
Default
100
AcDbLine
 10
72.11267879426003
 20
122.8810347826334
 30
0.0
 11
75.2471339970156
 21
123.7058914149375
 31
0.0
  0
LINE
  5
166
330
1F
100
AcDbEntity
  8
Default
100
AcDbLine
 10
67.82342430627875
 20
122.8810347826334
 30
0.0
 11
72.11267879426003
 21
122.8810347826334
 31
0.0
  0
LINE
  5
167
330
1F
100
AcDbEntity
  8
Default
100
AcDbLine
 10
67.82342430627875
 20
131.9544577379785
 30
0.0
 11
67.82342430627875
 21
122.8810347826334
 31
0.0
  0
LINE
  5
168
330
1F
100
AcDbEntity
  8
Default
100
AcDbLine
 10
72.11267879426003
 20
131.9544577379785
 30
0.0
 11
67.82342430627875
 21
131.9544577379785
 31
0.0
  0
LINE
  5
169
330
1F
100
AcDbEntity
  8
Default
100
AcDbLine
 10
75.2471339970156
 20
131.1296011056744
 30
0.0
 11
72.11267879426003
 21
131.9544577379785
 31
0.0
  0
LINE
  5
16A
330
1F
100
AcDbEntity
  8
Default
100
AcDbLine
 10
76.89684726162378
 20
127.3352605970755
 30
0.0
 11
75.2471339970156
 21
131.1296011056744
 31
0.0
  0
LINE
  5
16B
330
1F
100
AcDbEntity
  8
Default
100
AcDbLine
 10
76.81436159839336
 20
129.851073325603
 30
0.0
 11
77.2267899145454
 21
127.5002319235364
 31
0.0
  0
LINE
  5
16C
330
1F
100
AcDbEntity
  8
Default
100
AcDbLine
 10
75.41210532347641
 20
131.459543758596
 30
0.0
 11
76.81436159839336
 21
129.851073325603
 31
0.0
  0
LINE
  5
16D
330
1F
100
AcDbEntity
  8
Default
100
AcDbLine
 10
72.11267879426003
 20
132.4493717173609
 30
0.0
 11
75.41210532347641
 21
131.459543758596
 31
0.0
  0
LINE
  5
16E
330
1F
100
AcDbEntity
  8
Default
100
AcDbLine
 10
67.32851032689629
 20
132.4493717173609
 30
0.0
 11
72.11267879426003
 21
132.4493717173609
 31
0.0
  0
LINE
  5
16F
330
1F
100
AcDbEntity
  8
Default
100
AcDbLine
 10
67.32851032689629
 20
114.9624111125141
 30
0.0
 11
67.32851032689629
 21
132.4493717173609
 31
0.0
  0
LINE
  5
170
330
1F
100
AcDbEntity
  8
Default
100
AcDbLine
 10
67.82342430627875
 20
114.9624111125141
 30
0.0
 11
67.32851032689629
 21
114.9624111125141
 31
0.0
  0
LINE
  5
171
330
1F
100
AcDbEntity
  8
Default
100
AcDbLine
 10
67.82342430627875
 20
122.386120803251
 30
0.0
 11
67.82342430627875
 21
114.9624111125141
 31
0.0
  0
LINE
  5
172
330
1F
100
AcDbEntity
  8
Default
100
AcDbLine
 10
72.11267879426003
 20
122.386120803251
 30
0.0
 11
67.82342430627875
 21
122.386120803251
 31
0.0
  0
LINE
  5
173
330
1F
100
AcDbEntity
  8
Default
100
AcDbLine
 10
73.26747807948576
 20
122.5510921297118
 30
0.0
 11
72.11267879426003
 21
122.386120803251
 31
0.0
  0
LINE
  5
174
330
1F
100
AcDbEntity
  8
Default
100
AcDbLine
 10
76.89684726162378
 20
114.9624111125141
 30
0.0
 11
73.26747807948576
 21
122.5510921297118
 31
0.0
  0
LINE
  5
175
330
1F
100
AcDbEntity
  8
Default
100
AcDbLine
 10
77.2267899145454
 20
115.127382438975
 30
0.0
 11
76.89684726162378
 21
114.9624111125141
 31
0.0
  0
LINE
  5
176
330
1F
100
AcDbEntity
  8
Default
100
AcDbLine
 10
73.5974207324074
 20
122.7160634561726
 30
0.0
 11
77.2267899145454
 21
115.127382438975
 31
0.0
  0
LINE
  5
177
330
1F
100
AcDbEntity
  8
Default
100
AcDbLine
 10
76.34006903481851
 20
124.2420482259352
 30
0.0
 11
73.5974207324074
 21
122.7160634561726
 31
0.0
  0
LINE
  5
178
330
1F
100
AcDbEntity
  8
Default
100
AcDbLine
 10
77.2267899145454
 20
127.5002319235364
 30
0.0
 11
76.34006903481851
 21
124.2420482259352
 31
0.0
  0
LINE
  5
179
330
1F
100
AcDbEntity
  8
Default
100
AcDbLine
 10
62.04942788015009
 20
132.1194290644393
 30
0.0
 11
62.04942788015009
 21
114.9624111125141
 31
0.0
  0
LINE
  5
17A
330
1F
100
AcDbEntity
  8
Default
100
AcDbLine
 10
61.55451390076764
 20
132.1194290644393
 30
0.0
 11
62.04942788015009
 21
132.1194290644393
 31
0.0
  0
LINE
  5
17B
330
1F
100
AcDbEntity
  8
Default
100
AcDbLine
 10
61.55451390076764
 20
114.9624111125141
 30
0.0
 11
61.55451390076764
 21
132.1194290644393
 31
0.0
  0
LINE
  5
17C
330
1F
100
AcDbEntity
  8
Default
100
AcDbLine
 10
62.04942788015009
 20
114.9624111125141
 30
0.0
 11
61.55451390076764
 21
114.9624111125141
 31
0.0
  0
LINE
  5
17D
330
1F
100
AcDbEntity
  8
Default
100
AcDbLine
 10
56.11046012756063
 20
124.6957193737025
 30
0.0
 11
56.11046012756063
 21
124.3657767207808
 31
0.0
  0
LINE
  5
17E
330
1F
100
AcDbEntity
  8
Default
100
AcDbLine
 10
48.68675043682379
 20
124.6957193737025
 30
0.0
 11
56.11046012756063
 21
124.6957193737025
 31
0.0
  0
LINE
  5
17F
330
1F
100
AcDbEntity
  8
Default
100
AcDbLine
 10
48.68675043682379
 20
132.1194290644393
 30
0.0
 11
48.68675043682379
 21
124.6957193737025
 31
0.0
  0
LINE
  5
180
330
1F
100
AcDbEntity
  8
Default
100
AcDbLine
 10
56.11046012756063
 20
132.1194290644393
 30
0.0
 11
48.68675043682379
 21
132.1194290644393
 31
0.0
  0
LINE
  5
181
330
1F
100
AcDbEntity
  8
Default
100
AcDbLine
 10
56.11046012756063
 20
132.4493717173609
 30
0.0
 11
56.11046012756063
 21
132.1194290644393
 31
0.0
  0
LINE
  5
182
330
1F
100
AcDbEntity
  8
Default
100
AcDbLine
 10
48.19183645744133
 20
132.4493717173609
 30
0.0
 11
56.11046012756063
 21
132.4493717173609
 31
0.0
  0
LINE
  5
183
330
1F
100
AcDbEntity
  8
Default
100
AcDbLine
 10
48.19183645744133
 20
114.9624111125141
 30
0.0
 11
48.19183645744133
 21
132.4493717173609
 31
0.0
  0
LINE
  5
184
330
1F
100
AcDbEntity
  8
Default
100
AcDbLine
 10
48.68675043682379
 20
114.9624111125141
 30
0.0
 11
48.19183645744133
 21
114.9624111125141
 31
0.0
  0
LINE
  5
185
330
1F
100
AcDbEntity
  8
Default
100
AcDbLine
 10
48.68675043682379
 20
124.3657767207808
 30
0.0
 11
48.68675043682379
 21
114.9624111125141
 31
0.0
  0
LINE
  5
186
330
1F
100
AcDbEntity
  8
Default
100
AcDbLine
 10
56.11046012756063
 20
124.3657767207808
 30
0.0
 11
48.68675043682379
 21
124.3657767207808
 31
0.0
  0
ENDSEC
  0
SECTION
  2
OBJECTS
  0
DICTIONARY
  5
C
330
0
100
AcDbDictionary
281
     1
  3
ACAD_GROUP
350
D
  3
ACAD_LAYOUT
350
1A
  3
ACAD_MLEADERSTYLE
350
188
  3
ACAD_MLINESTYLE
350
17
  3
ACAD_PLOTSETTINGS
350
19
  3
ACAD_PLOTSTYLENAME
350
E
  3
ACAD_TABLESTYLE
350
187
  3
ACAD_VISUALSTYLE
350
2A
  0
DICTIONARY
  5
D
102
{ACAD_REACTORS
330
C
102
}
330
C
100
AcDbDictionary
281
     1
  0
DICTIONARY
  5
1A
102
{ACAD_REACTORS
330
C
102
}
330
C
100
AcDbDictionary
281
     1
  3
Layout1
350
1E
  3
Layout2
350
26
  3
Model
350
22
  0
DICTIONARY
  5
188
102
{ACAD_REACTORS
330
C
102
}
330
C
100
AcDbDictionary
281
     1
  0
DICTIONARY
  5
17
102
{ACAD_REACTORS
330
C
102
}
330
C
100
AcDbDictionary
281
     1
  3
Standard
350
18
  0
DICTIONARY
  5
19
102
{ACAD_REACTORS
330
C
102
}
330
C
100
AcDbDictionary
281
     1
  0
ACDBDICTIONARYWDFLT
  5
E
102
{ACAD_REACTORS
330
C
102
}
330
C
100
AcDbDictionary
281
     1
  3
Normal
350
F
100
AcDbDictionaryWithDefault
340
F
  0
DICTIONARY
  5
187
102
{ACAD_REACTORS
330
C
102
}
330
C
100
AcDbDictionary
281
     1
  0
DICTIONARY
  5
2A
102
{ACAD_REACTORS
330
C
102
}
330
C
100
AcDbDictionary
281
     1
  3
2dWireframe
350
2F
  3
3D Hidden
350
31
  3
3dWireframe
350
30
  3
Basic
350
32
  3
Brighten
350
36
  3
ColorChange
350
3A
  3
Conceptual
350
34
  3
Dim
350
35
  3
Facepattern
350
39
  3
Flat
350
2B
  3
FlatWithEdges
350
2C
  3
Gouraud
350
2D
  3
GouraudWithEdges
350
2E
  3
Linepattern
350
38
  3
Realistic
350
33
  3
Thicken
350
37
  0
LAYOUT
  5
1E
102
{ACAD_REACTORS
330
1A
102
}
330
1A
100
AcDbPlotSettings
  1

  2
none_device
  4

  6

 40
0.0
 41
0.0
 42
0.0
 43
0.0
 44
0.0
 45
0.0
 46
0.0
 47
0.0
 48
0.0
 49
0.0
140
0.0
141
0.0
142
1.0
143
1.0
 70
   688
 72
     0
 73
     0
 74
     5
  7

 75
    16
 76
     0
 77
     2
 78
   300
147
1.0
148
0.0
149
0.0
100
AcDbLayout
  1
Layout1
 70
     1
 71
     1
 10
0.0
 20
0.0
 11
12.0
 21
9.0
 12
0.0
 22
0.0
 32
0.0
 14
1.000000000000000E+20
 24
1.000000000000000E+20
 34
1.000000000000000E+20
 15
-1.000000000000000E+20
 25
-1.000000000000000E+20
 35
-1.000000000000000E+20
146
0.0
 13
0.0
 23
0.0
 33
0.0
 16
1.0
 26
0.0
 36
0.0
 17
0.0
 27
1.0
 37
0.0
 76
     0
330
1B
  0
LAYOUT
  5
26
102
{ACAD_REACTORS
330
1A
102
}
330
1A
100
AcDbPlotSettings
  1

  2
none_device
  4

  6

 40
0.0
 41
0.0
 42
0.0
 43
0.0
 44
0.0
 45
0.0
 46
0.0
 47
0.0
 48
0.0
 49
0.0
140
0.0
141
0.0
142
1.0
143
1.0
 70
   688
 72
     0
 73
     0
 74
     5
  7

 75
    16
 76
     0
 77
     2
 78
   300
147
1.0
148
0.0
149
0.0
100
AcDbLayout
  1
Layout2
 70
     1
 71
     2
 10
0.0
 20
0.0
 11
0.0
 21
0.0
 12
0.0
 22
0.0
 32
0.0
 14
0.0
 24
0.0
 34
0.0
 15
0.0
 25
0.0
 35
0.0
146
0.0
 13
0.0
 23
0.0
 33
0.0
 16
1.0
 26
0.0
 36
0.0
 17
0.0
 27
1.0
 37
0.0
 76
     0
330
23
  0
LAYOUT
  5
22
102
{ACAD_REACTORS
330
1A
102
}
330
1A
100
AcDbPlotSettings
  1

  2
none_device
  4

  6

 40
0.0
 41
0.0
 42
0.0
 43
0.0
 44
0.0
 45
0.0
 46
0.0
 47
0.0
 48
0.0
 49
0.0
140
0.0
141
0.0
142
1.0
143
1.0
 70
  1712
 72
     0
 73
     0
 74
     0
  7

 75
     0
 76
     0
 77
     2
 78
   300
147
1.0
148
0.0
149
0.0
100
AcDbLayout
  1
Model
 70
     1
 71
     0
 10
0.0
 20
0.0
 11
12.0
 21
9.0
 12
0.0
 22
0.0
 32
0.0
 14
48.19183645744133
 24
87.0822569406358
 34
0.0
 15
238.0738332138436
 25
132.4493717173609
 35
0.0
146
0.0
 13
0.0
 23
0.0
 33
0.0
 16
1.0
 26
0.0
 36
0.0
 17
0.0
 27
1.0
 37
0.0
 76
     0
330
1F
331
29
  0
MLINESTYLE
  5
18
102
{ACAD_REACTORS
330
17
102
}
330
17
100
AcDbMlineStyle
  2
Standard
 70
     0
  3

 62
   256
 51
90.0
 52
90.0
 71
     2
 49
0.5
 62
   256
  6
BYLAYER
 49
-0.5
 62
   256
  6
BYLAYER
  0
ACDBPLACEHOLDER
  5
F
102
{ACAD_REACTORS
330
E
102
}
330
E
  0
VISUALSTYLE
  5
2F
102
{ACAD_REACTORS
330
2A
102
}
330
2A
100
AcDbVisualStyle
  2
2dWireframe
 70
     4
 71
     0
 72
     2
 73
     0
 90
        0
 40
-0.6
 41
-30.0
 62
     5
 63
     7
421
 16777215
 74
     1
 91
        4
 64
     7
 65
   257
 75
     1
175
     1
 42
1.0
 92
        0
 66
   257
 43
1.0
 76
     1
 77
     6
 78
     2
 67
     7
 79
     5
170
     0
171
     0
290
     0
174
     0
 93
        1
 44
0.0
173
     0
291
     0
 45
0.0
1001
ACAD
1000
AcDbSavedByObjectVersion
1070
     0
  0
VISUALSTYLE
  5
31
102
{ACAD_REACTORS
330
2A
102
}
330
2A
100
AcDbVisualStyle
  2
3D Hidden
 70
     6
 71
     1
 72
     2
 73
     2
 90
        0
 40
-0.6
 41
-30.0
 62
     5
 63
     7
421
 16777215
 74
     2
 91
        2
 64
     7
 65
   257
 75
     2
175
     1
 42
40.0
 92
        0
 66
   257
 43
1.0
 76
     1
 77
     6
 78
     2
 67
     7
 79
     3
170
     0
171
     0
290
     0
174
     0
 93
        1
 44
0.0
173
     0
291
     0
 45
0.0
1001
ACAD
1000
AcDbSavedByObjectVersion
1070
     0
  0
VISUALSTYLE
  5
30
102
{ACAD_REACTORS
330
2A
102
}
330
2A
100
AcDbVisualStyle
  2
3dWireframe
 70
     5
 71
     0
 72
     2
 73
     0
 90
        0
 40
-0.6
 41
-30.0
 62
     5
 63
     7
421
 16777215
 74
     1
 91
        4
 64
     7
 65
   257
 75
     1
175
     1
 42
1.0
 92
        0
 66
   257
 43
1.0
 76
     1
 77
     6
 78
     2
 67
     7
 79
     5
170
     0
171
     0
290
     0
174
     0
 93
        1
 44
0.0
173
     0
291
     0
 45
0.0
1001
ACAD
1000
AcDbSavedByObjectVersion
1070
     0
  0
VISUALSTYLE
  5
32
102
{ACAD_REACTORS
330
2A
102
}
330
2A
100
AcDbVisualStyle
  2
Basic
 70
     7
 71
     1
 72
     0
 73
     1
 90
        0
 40
-0.6
 41
-30.0
 62
     5
 63
     7
421
 16777215
 74
     0
 91
        4
 64
     7
 65
   257
 75
     1
175
     1
 42
1.0
 92
        8
 66
     7
 43
1.0
 76
     1
 77
     6
 78
     2
 67
     7
 79
     5
170
     0
171
     0
290
     0
174
     0
 93
        1
 44
0.0
173
     0
291
     1
 45
0.0
1001
ACAD
1000
AcDbSavedByObjectVersion
1070
     0
  0
VISUALSTYLE
  5
36
102
{ACAD_REACTORS
330
2A
102
}
330
2A
100
AcDbVisualStyle
  2
Brighten
 70
    12
 71
     2
 72
     2
 73
     0
 90
        0
 40
-0.6
 41
-30.0
 62
     5
 63
     7
421
 16777215
 74
     1
 91
        4
 64
     7
 65
   257
 75
     1
175
     1
 42
1.0
 92
        8
 66
     7
 43
1.0
 76
     1
 77
     6
 78
     2
 67
     7
 79
     5
170
     0
171
     0
290
     0
174
     0
 93
        1
 44
50.0
173
     0
291
     1
 45
0.0
1001
ACAD
1000
AcDbSavedByObjectVersion
1070
     0
  0
VISUALSTYLE
  5
3A
102
{ACAD_REACTORS
330
2A
102
}
330
2A
100
AcDbVisualStyle
  2
ColorChange
 70
    16
 71
     2
 72
     2
 73
     3
 90
        0
 40
-0.6
 41
-30.0
 62
     5
 63
     8
421
  8421504
 74
     1
 91
        4
 64
     7
 65
   257
 75
     1
175
     1
 42
1.0
 92
        8
 66
     8
424
  8421504
 43
1.0
 76
     1
 77
     6
 78
     2
 67
     7
 79
     5
170
     0
171
     0
290
     0
174
     0
 93
        1
 44
0.0
173
     0
291
     1
 45
0.0
1001
ACAD
1000
AcDbSavedByObjectVersion
1070
     0
  0
VISUALSTYLE
  5
34
102
{ACAD_REACTORS
330
2A
102
}
330
2A
100
AcDbVisualStyle
  2
Conceptual
 70
     9
 71
     3
 72
     2
 73
     0
 90
        0
 40
-0.6
 41
-30.0
 62
     5
 63
     7
421
 16777215
 74
     2
 91
        2
 64
     7
 65
   257
 75
     1
175
     1
 42
40.0
 92
        8
 66
     7
 43
1.0
 76
     1
 77
     6
 78
     2
 67
     7
 79
     3
170
     0
171
     0
290
     0
174
     0
 93
        1
 44
0.0
173
     0
291
     0
 45
0.0
1001
ACAD
1000
AcDbSavedByObjectVersion
1070
     0
  0
VISUALSTYLE
  5
35
102
{ACAD_REACTORS
330
2A
102
}
330
2A
100
AcDbVisualStyle
  2
Dim
 70
    11
 71
     2
 72
     2
 73
     0
 90
        0
 40
-0.6
 41
-30.0
 62
     5
 63
     7
421
 16777215
 74
     1
 91
        4
 64
     7
 65
   257
 75
     1
175
     1
 42
1.0
 92
        8
 66
     7
 43
1.0
 76
     1
 77
     6
 78
     2
 67
     7
 79
     5
170
     0
171
     0
290
     0
174
     0
 93
        1
 44
-50.0
173
     0
291
     1
 45
0.0
1001
ACAD
1000
AcDbSavedByObjectVersion
1070
     0
  0
VISUALSTYLE
  5
39
102
{ACAD_REACTORS
330
2A
102
}
330
2A
100
AcDbVisualStyle
  2
Facepattern
 70
    15
 71
     2
 72
     2
 73
     0
 90
        0
 40
-0.6
 41
-30.0
 62
     5
 63
     7
421
 16777215
 74
     1
 91
        4
 64
     7
 65
   257
 75
     1
175
     1
 42
1.0
 92
        8
 66
     7
 43
1.0
 76
     1
 77
     6
 78
     2
 67
     7
 79
     5
170
     0
171
     0
290
     0
174
     0
 93
        1
 44
0.0
173
     0
291
     1
 45
0.0
1001
ACAD
1000
AcDbSavedByObjectVersion
1070
     0
  0
VISUALSTYLE
  5
2B
102
{ACAD_REACTORS
330
2A
102
}
330
2A
100
AcDbVisualStyle
  2
Flat
 70
     0
 71
     2
 72
     1
 73
     1
 90
        2
 40
-0.6
 41
30.0
 62
     5
 63
     7
421
 16777215
 74
     0
 91
        4
 64
     7
 65
   257
 75
     1
175
     1
 42
1.0
 92
        8
 66
     7
 43
1.0
 76
     1
 77
     6
 78
     2
 67
     7
 79
     5
170
     0
171
     0
290
     0
174
     0
 93
       13
 44
0.0
173
     0
291
     1
 45
0.0
1001
ACAD
1000
AcDbSavedByObjectVersion
1070
     0
  0
VISUALSTYLE
  5
2C
102
{ACAD_REACTORS
330
2A
102
}
330
2A
100
AcDbVisualStyle
  2
FlatWithEdges
 70
     1
 71
     2
 72
     1
 73
     1
 90
        2
 40
-0.6
 41
30.0
 62
     5
 63
     7
421
 16777215
 74
     1
 91
        4
 64
     7
 65
   257
 75
     1
175
     1
 42
1.0
 92
        0
 66
   257
 43
1.0
 76
     1
 77
     6
 78
     2
 67
     7
 79
     5
170
     0
171
     0
290
     0
174
     0
 93
       13
 44
0.0
173
     0
291
     1
 45
0.0
1001
ACAD
1000
AcDbSavedByObjectVersion
1070
     0
  0
VISUALSTYLE
  5
2D
102
{ACAD_REACTORS
330
2A
102
}
330
2A
100
AcDbVisualStyle
  2
Gouraud
 70
     2
 71
     2
 72
     2
 73
     1
 90
        2
 40
-0.6
 41
30.0
 62
     5
 63
     7
421
 16777215
 74
     0
 91
        4
 64
     7
 65
   257
 75
     1
175
     1
 42
1.0
 92
        0
 66
     7
 43
1.0
 76
     1
 77
     6
 78
     2
 67
     7
 79
     5
170
     0
171
     0
290
     0
174
     0
 93
       13
 44
0.0
173
     0
291
     1
 45
0.0
1001
ACAD
1000
AcDbSavedByObjectVersion
1070
     0
  0
VISUALSTYLE
  5
2E
102
{ACAD_REACTORS
330
2A
102
}
330
2A
100
AcDbVisualStyle
  2
GouraudWithEdges
 70
     3
 71
     2
 72
     2
 73
     1
 90
        2
 40
-0.6
 41
30.0
 62
     5
 63
     7
421
 16777215
 74
     1
 91
        4
 64
     7
 65
   257
 75
     1
175
     1
 42
1.0
 92
        0
 66
   257
 43
1.0
 76
     1
 77
     6
 78
     2
 67
     7
 79
     5
170
     0
171
     0
290
     0
174
     0
 93
       13
 44
0.0
173
     0
291
     1
 45
0.0
1001
ACAD
1000
AcDbSavedByObjectVersion
1070
     0
  0
VISUALSTYLE
  5
38
102
{ACAD_REACTORS
330
2A
102
}
330
2A
100
AcDbVisualStyle
  2
Linepattern
 70
    14
 71
     2
 72
     2
 73
     0
 90
        0
 40
-0.6
 41
-30.0
 62
     5
 63
     7
421
 16777215
 74
     1
 91
        4
 64
     7
 65
   257
 75
     7
175
     7
 42
1.0
 92
        8
 66
     7
 43
1.0
 76
     1
 77
     6
 78
     2
 67
     7
 79
     5
170
     0
171
     0
290
     0
174
     0
 93
        1
 44
0.0
173
     0
291
     1
 45
0.0
1001
ACAD
1000
AcDbSavedByObjectVersion
1070
     0
  0
VISUALSTYLE
  5
33
102
{ACAD_REACTORS
330
2A
102
}
330
2A
100
AcDbVisualStyle
  2
Realistic
 70
     8
 71
     2
 72
     2
 73
     0
 90
        0
 40
-0.6
 41
-30.0
 62
     5
 63
     7
421
 16777215
 74
     1
 91
        0
 64
     7
 65
   257
 75
     1
175
     1
 42
1.0
 92
        8
 66
     8
424
  7895160
 43
1.0
 76
     1
 77
     6
 78
     2
 67
     7
 79
     5
170
     0
171
     0
290
     0
174
     0
 93
       13
 44
0.0
173
     0
291
     0
 45
0.0
1001
ACAD
1000
AcDbSavedByObjectVersion
1070
     0
  0
VISUALSTYLE
  5
37
102
{ACAD_REACTORS
330
2A
102
}
330
2A
100
AcDbVisualStyle
  2
Thicken
 70
    13
 71
     2
 72
     2
 73
     0
 90
        0
 40
-0.6
 41
-30.0
 62
     5
 63
     7
421
 16777215
 74
     1
 91
        4
 64
     7
 65
   257
 75
     1
175
     1
 42
1.0
 92
       12
 66
     7
 43
1.0
 76
     1
 77
     6
 78
     2
 67
     7
 79
     5
170
     0
171
     0
290
     0
174
     0
 93
        1
 44
0.0
173
     0
291
     1
 45
0.0
1001
ACAD
1000
AcDbSavedByObjectVersion
1070
     0
  0
ENDSEC
  0
EOF
